<svg width="225" height="199" viewBox="0 0 225 199" fill="none" xmlns="http://www.w3.org/2000/svg">
<g clip-path="url(#clip0_98_137)">
<path d="M25.3278 179.966H7.61914V180.099H25.3278V179.966Z" fill="#EBEBEB"/>
<path d="M99.8735 180.03H71.0754V180.163H99.8735V180.03Z" fill="#EBEBEB"/>
<path d="M46.389 182.722H36.1284V182.855H46.389V182.722Z" fill="#EBEBEB"/>
<path d="M218.038 182.657H207.756V182.791H218.038V182.657Z" fill="#EBEBEB"/>
<path d="M202.992 182.657H186.797V182.791H202.992V182.657Z" fill="#EBEBEB"/>
<path d="M177.884 181.771H155.128V181.905H177.884V181.771Z" fill="#EBEBEB"/>
<path d="M106.29 151.062H3.04769C2.2389 151.06 1.46372 150.739 0.892324 150.167C0.320924 149.595 -1.24032e-06 148.82 0 148.012V3.04957C0.00704068 2.24634 0.331072 1.47833 0.901713 0.912339C1.47235 0.346352 2.24351 0.0281094 3.04769 0.0267334H106.29C107.099 0.0267334 107.876 0.348024 108.448 0.919924C109.021 1.49182 109.343 2.26749 109.343 3.07628V148.012C109.343 148.821 109.021 149.597 108.448 150.169C107.876 150.741 107.099 151.062 106.29 151.062ZM3.04769 0.133548C2.27436 0.134963 1.53318 0.442809 0.986844 0.989517C0.440512 1.53622 0.133669 2.27712 0.133671 3.04957V148.012C0.133669 148.785 0.440512 149.526 0.986844 150.072C1.53318 150.619 2.27436 150.927 3.04769 150.928H106.29C107.063 150.927 107.805 150.619 108.352 150.073C108.9 149.526 109.208 148.785 109.209 148.012V3.04957C109.208 2.27663 108.9 1.53575 108.352 0.989191C107.805 0.442636 107.063 0.13496 106.29 0.133548H3.04769Z" fill="#EBEBEB"/>
<path d="M221.947 151.062H118.7C117.89 151.06 117.115 150.739 116.542 150.167C115.97 149.596 115.648 148.821 115.646 148.012V3.04957C115.655 2.24586 115.98 1.47784 116.552 0.912005C117.123 0.346166 117.895 0.0280944 118.7 0.0267334H221.947C222.75 0.029513 223.52 0.348377 224.089 0.914213C224.659 1.48005 224.982 2.24727 224.989 3.04957V148.012C224.989 148.819 224.669 149.593 224.099 150.165C223.529 150.736 222.755 151.059 221.947 151.062ZM118.7 0.133548C117.926 0.13496 117.184 0.442636 116.637 0.989191C116.09 1.53575 115.782 2.27663 115.78 3.04957V148.012C115.782 148.785 116.09 149.526 116.637 150.073C117.184 150.619 117.926 150.927 118.7 150.928H221.947C222.721 150.927 223.462 150.619 224.01 150.073C224.557 149.526 224.865 148.785 224.866 148.012V3.04957C224.865 2.27663 224.557 1.53575 224.01 0.989191C223.462 0.442636 222.721 0.13496 221.947 0.133548H118.7Z" fill="#EBEBEB"/>
<path d="M141.162 174.881H156.304V99.6309H141.162V174.881Z" fill="#E6E6E6"/>
<path d="M144.033 174.876H141.156V166.705H147.048L144.033 174.876Z" fill="#F0F0F0"/>
<path d="M197.758 174.881H212.9V99.6309H197.758V174.881Z" fill="#E6E6E6"/>
<path d="M141.162 169.866H200.266V99.6308L141.162 99.6308V169.866Z" fill="#F0F0F0"/>
<path d="M143.391 145.988V159.644H169.746V145.988H143.391Z" fill="#E6E6E6"/>
<path d="M171.676 145.993V159.65H198.031V145.993H171.676Z" fill="#E6E6E6"/>
<path d="M182.247 148.279H187.46C188.581 148.28 189.69 148.052 190.72 147.609C191.75 147.167 192.678 146.519 193.448 145.705H176.258C177.028 146.519 177.957 147.167 178.987 147.609C180.016 148.052 181.126 148.28 182.247 148.279Z" fill="#F0F0F0"/>
<path d="M153.695 148.279H158.908C160.029 148.28 161.138 148.052 162.168 147.609C163.198 147.167 164.126 146.519 164.896 145.705H147.706C148.476 146.519 149.405 147.167 150.435 147.609C151.464 148.052 152.574 148.28 153.695 148.279Z" fill="#F0F0F0"/>
<path d="M143.391 124.764V138.42H169.746V124.764H143.391Z" fill="#E6E6E6"/>
<path d="M171.676 124.764V138.42H198.031V124.764H171.676Z" fill="#E6E6E6"/>
<path d="M182.247 127.05H187.46C188.581 127.048 189.689 126.817 190.718 126.373C191.747 125.929 192.674 125.279 193.443 124.465H176.258C177.028 125.28 177.956 125.93 178.986 126.374C180.016 126.818 181.125 127.048 182.247 127.05Z" fill="#F0F0F0"/>
<path d="M153.695 127.05H158.908C160.028 127.051 161.137 126.823 162.167 126.381C163.196 125.94 164.125 125.293 164.896 124.481H147.706C148.478 125.293 149.406 125.94 150.436 126.381C151.465 126.823 152.574 127.051 153.695 127.05Z" fill="#F0F0F0"/>
<path d="M143.391 103.535V117.191H169.746V103.535H143.391Z" fill="#E6E6E6"/>
<path d="M171.676 103.54V117.196H198.031V103.54H171.676Z" fill="#E6E6E6"/>
<path d="M182.247 105.826H187.46C188.581 105.827 189.69 105.599 190.72 105.156C191.75 104.714 192.678 104.065 193.448 103.252H176.258C177.028 104.065 177.957 104.714 178.987 105.156C180.016 105.599 181.126 105.827 182.247 105.826Z" fill="#F0F0F0"/>
<path d="M153.695 105.826H158.908C160.029 105.827 161.138 105.599 162.168 105.156C163.198 104.714 164.126 104.065 164.896 103.252H147.706C148.476 104.065 149.405 104.714 150.435 105.156C151.464 105.599 152.574 105.827 153.695 105.826Z" fill="#F0F0F0"/>
<path d="M197.389 174.876H200.265V166.705H194.373L197.389 174.876Z" fill="#F0F0F0"/>
<path d="M199.881 47.9702L202.196 54.2883H199.881L185.679 47.9702H199.881Z" fill="#F5F5F5"/>
<path d="M202.196 47.9702V54.2883L187.995 47.9702H202.196Z" fill="#E6E6E6"/>
<path d="M144.183 47.9702L146.503 54.2883H144.183L129.981 47.9702H144.183Z" fill="#F5F5F5"/>
<path d="M146.503 47.9702V54.2883L132.297 47.9702H146.503Z" fill="#E6E6E6"/>
<path d="M212.622 43.452H197.175V48.264H212.622V43.452Z" fill="#E6E6E6"/>
<path d="M120.384 48.2693L197.18 48.2693V43.4573L120.384 43.4573V48.2693Z" fill="#F5F5F5"/>
<path d="M181.578 26.7302C181.578 26.7302 181.733 43.4573 187.513 43.4573C193.293 43.4573 193.443 26.7302 193.443 26.7302H181.578Z" fill="#F0F0F0"/>
<path d="M145.739 37.9991C145.739 37.9991 146.145 43.452 161.693 43.452C177.242 43.452 177.648 37.9991 177.648 37.9991H145.739Z" fill="#F0F0F0"/>
<path d="M99.5312 174.881H100.563L103.52 160.328L104.055 157.775L107.263 141.913H119.657L126.356 174.881H127.394L120.566 141.31C120.543 141.195 120.481 141.091 120.39 141.017C120.3 140.943 120.186 140.903 120.068 140.904H106.851C106.734 140.903 106.621 140.943 106.531 141.018C106.441 141.092 106.38 141.195 106.359 141.31L103.525 155.238L102.991 157.786L99.5312 174.881Z" fill="#F0F0F0"/>
<path d="M79.6785 174.881H80.7104L87.4153 141.913H99.7772L102.985 157.786L103.52 160.328L106.482 174.881H107.514L104.039 157.791L103.504 155.254L100.67 141.326C100.642 141.214 100.579 141.113 100.489 141.04C100.4 140.967 100.289 140.925 100.173 140.92H87.0036C86.8863 140.919 86.7724 140.959 86.6816 141.033C86.5908 141.107 86.5288 141.211 86.5064 141.326L79.6785 174.881Z" fill="#F0F0F0"/>
<path d="M121.507 137.059H85.5386C84.7137 137.06 83.923 137.388 83.3398 137.971C82.7565 138.553 82.4282 139.343 82.4268 140.167V140.274C82.4268 140.575 82.5468 140.865 82.7603 141.078C82.9739 141.291 83.2636 141.411 83.5656 141.411H123.48C123.782 141.411 124.071 141.291 124.285 141.078C124.499 140.865 124.619 140.575 124.619 140.274V140.167C124.617 139.343 124.289 138.553 123.706 137.971C123.122 137.388 122.332 137.06 121.507 137.059Z" fill="#F0F0F0"/>
<path d="M63.4348 174.881H64.4667L67.4235 160.328L67.9582 157.775L71.1663 141.913H83.5282L90.2492 174.881H91.2865L84.4586 141.31C84.4361 141.195 84.3741 141.091 84.2833 141.017C84.1925 140.943 84.0786 140.903 83.9613 140.904H70.7546C70.638 140.903 70.5248 140.943 70.4349 141.018C70.345 141.092 70.284 141.195 70.2627 141.31L67.4289 155.238L66.8942 157.786L63.4348 174.881Z" fill="#F0F0F0"/>
<path d="M43.582 174.881H44.6193L51.3189 141.913H63.6861L66.8942 157.786L67.4289 160.328L70.391 174.881H71.423L67.9475 157.791L67.4129 155.254L64.5844 141.31C64.5567 141.197 64.4932 141.097 64.4036 141.024C64.3139 140.951 64.2028 140.909 64.0871 140.904H50.9072C50.7899 140.903 50.676 140.943 50.5852 141.017C50.4944 141.091 50.4324 141.195 50.4099 141.31L43.582 174.881Z" fill="#F0F0F0"/>
<path d="M85.437 137.059H49.4422C48.6173 137.06 47.8266 137.388 47.2433 137.971C46.66 138.553 46.3317 139.343 46.3303 140.167V140.274C46.3303 140.575 46.4503 140.865 46.6639 141.078C46.8775 141.291 47.1671 141.411 47.4692 141.411H87.3886C87.5379 141.411 87.6858 141.382 87.8237 141.325C87.9615 141.267 88.0867 141.183 88.1921 141.078C88.2974 140.972 88.3808 140.847 88.4374 140.709C88.4941 140.571 88.5229 140.423 88.5222 140.274V140.167C88.5208 139.348 88.1962 138.562 87.6187 137.98C87.0411 137.398 86.2573 137.067 85.437 137.059Z" fill="#F0F0F0"/>
<path d="M24.6649 94.8777H76.342L76.342 12.1876H24.6649L24.6649 94.8777Z" fill="#E6E6E6"/>
<path d="M21.2856 94.8777H74.7593L74.7593 12.1876H21.2856L21.2856 94.8777Z" fill="#F0F0F0"/>
<path d="M24.6649 101.142H76.342V94.8724H24.6649V101.142Z" fill="#E6E6E6"/>
<path d="M15.6609 101.142H69.1345V94.8724H15.6609V101.142Z" fill="#F0F0F0"/>
<path d="M70.0327 90.1511V16.9033L26.0122 16.9033L26.0122 90.1511H70.0327Z" fill="#FAFAFA"/>
<path d="M70.4072 90.1511L54.9281 16.9033H41.8284L57.3074 90.1511H70.4072Z" fill="white"/>
<path d="M66.8408 81.4031C66.9301 81.4031 67.0158 81.3676 67.079 81.3045C67.1421 81.2414 67.1776 81.1559 67.1776 81.0666V19.9797C67.1776 19.8904 67.1421 19.8048 67.079 19.7417C67.0158 19.6786 66.9301 19.6432 66.8408 19.6432C66.7514 19.6432 66.6657 19.6786 66.6026 19.7417C66.5394 19.8048 66.5039 19.8904 66.5039 19.9797V81.0666C66.5039 81.1559 66.5394 81.2414 66.6026 81.3045C66.6657 81.3676 66.7514 81.4031 66.8408 81.4031Z" fill="#F0F0F0"/>
<path d="M54.4949 90.1511L39.0105 16.9033H33.9043L49.3887 90.1511H54.4949Z" fill="white"/>
<path d="M26.6111 90.1565L26.6111 16.9087H26.0122L26.0122 90.1565H26.6111Z" fill="#E6E6E6"/>
<path opacity="0.6" d="M20.1682 20.5297H71.8453L72.2784 18.7406H20.6013L20.1682 20.5297Z" fill="#F0F0F0"/>
<path opacity="0.6" d="M20.1682 24.7061H71.8453L72.2784 22.917H20.6013L20.1682 24.7061Z" fill="#F0F0F0"/>
<path opacity="0.6" d="M20.1682 28.8826H71.8453L72.2784 27.0881H20.6013L20.1682 28.8826Z" fill="#F0F0F0"/>
<path opacity="0.6" d="M20.1682 33.0537H71.8453L72.2784 31.2645H20.6013L20.1682 33.0537Z" fill="#F0F0F0"/>
<path opacity="0.6" d="M20.1682 37.23H71.8453L72.2784 35.4355H20.6013L20.1682 37.23Z" fill="#F0F0F0"/>
<path opacity="0.6" d="M20.1682 41.4012H71.8453L72.2784 39.6121H20.6013L20.1682 41.4012Z" fill="#F0F0F0"/>
<path d="M113.241 199C170.496 199 216.91 196.293 216.91 192.954C216.91 189.615 170.496 186.909 113.241 186.909C55.9853 186.909 9.5708 189.615 9.5708 192.954C9.5708 196.293 55.9853 199 113.241 199Z" fill="#F5F5F5"/>
<path d="M109.567 110.964H76.9034C76.4428 110.964 76.0693 111.337 76.0693 111.797V125.405C76.0693 125.865 76.4428 126.238 76.9034 126.238H109.567C110.028 126.238 110.401 125.865 110.401 125.405V111.797C110.401 111.337 110.028 110.964 109.567 110.964Z" fill="url(#paint0_linear_98_137)"/>
<path opacity="0.6" d="M109.567 110.964H76.9034C76.4428 110.964 76.0693 111.337 76.0693 111.797V125.405C76.0693 125.865 76.4428 126.238 76.9034 126.238H109.567C110.028 126.238 110.401 125.865 110.401 125.405V111.797C110.401 111.337 110.028 110.964 109.567 110.964Z" fill="white"/>
<path opacity="0.1" d="M109.557 110.969H76.8822C76.661 110.969 76.4488 111.057 76.2924 111.213C76.136 111.369 76.0481 111.581 76.0481 111.802V116.166L93.051 119.509C93.1551 119.53 93.2624 119.53 93.3665 119.509L110.375 116.166V111.802C110.375 111.584 110.289 111.375 110.136 111.219C109.983 111.063 109.775 110.973 109.557 110.969Z" fill="black"/>
<path d="M110.273 105.383H100.296V103.711C100.294 103.02 100.019 102.358 99.53 101.87C99.041 101.381 98.3782 101.106 97.6866 101.105H88.7734C88.0818 101.106 87.419 101.381 86.9299 101.87C86.4409 102.358 86.1656 103.02 86.1642 103.711V105.383H76.1923C75.9739 105.383 75.7645 105.469 75.6101 105.624C75.4556 105.778 75.3689 105.987 75.3689 106.205V114.435C75.37 114.625 75.4364 114.809 75.5572 114.956C75.6779 115.103 75.8455 115.204 76.0319 115.242L93.0723 118.59C93.1768 118.606 93.2832 118.606 93.3877 118.59L110.428 115.242C110.615 115.204 110.783 115.103 110.905 114.956C111.027 114.81 111.094 114.626 111.096 114.435V106.205C111.096 105.987 111.01 105.778 110.855 105.624C110.701 105.469 110.491 105.383 110.273 105.383ZM88.1478 103.711C88.1492 103.545 88.2154 103.387 88.3323 103.269C88.4491 103.151 88.6074 103.084 88.7734 103.081H97.6866C97.8525 103.084 98.0109 103.151 98.1277 103.269C98.2446 103.387 98.3108 103.545 98.3122 103.711V105.383H88.1532L88.1478 103.711Z" fill="url(#paint1_linear_98_137)"/>
<path opacity="0.6" d="M110.273 105.383H100.296V103.711C100.294 103.02 100.019 102.358 99.53 101.87C99.041 101.381 98.3782 101.106 97.6866 101.105H88.7734C88.0818 101.106 87.419 101.381 86.9299 101.87C86.4409 102.358 86.1656 103.02 86.1642 103.711V105.383H76.1923C75.9739 105.383 75.7645 105.469 75.6101 105.624C75.4556 105.778 75.3689 105.987 75.3689 106.205V114.435C75.37 114.625 75.4364 114.809 75.5572 114.956C75.6779 115.103 75.8455 115.204 76.0319 115.242L93.0723 118.59C93.1768 118.606 93.2832 118.606 93.3877 118.59L110.428 115.242C110.615 115.204 110.783 115.103 110.905 114.956C111.027 114.81 111.094 114.626 111.096 114.435V106.205C111.096 105.987 111.01 105.778 110.855 105.624C110.701 105.469 110.491 105.383 110.273 105.383ZM88.1478 103.711C88.1492 103.545 88.2154 103.387 88.3323 103.269C88.4491 103.151 88.6074 103.084 88.7734 103.081H97.6866C97.8525 103.084 98.0109 103.151 98.1277 103.269C98.2446 103.387 98.3108 103.545 98.3122 103.711V105.383H88.1532L88.1478 103.711Z" fill="white"/>
<path d="M94.9919 116.342H91.4737C91.0367 116.342 90.6824 116.696 90.6824 117.132V119.354C90.6824 119.79 91.0367 120.144 91.4737 120.144H94.9919C95.429 120.144 95.7832 119.79 95.7832 119.354V117.132C95.7832 116.696 95.429 116.342 94.9919 116.342Z" fill="url(#paint2_linear_98_137)"/>
<path opacity="0.3" d="M94.9919 116.342H91.4737C91.0367 116.342 90.6824 116.696 90.6824 117.132V119.354C90.6824 119.79 91.0367 120.144 91.4737 120.144H94.9919C95.429 120.144 95.7832 119.79 95.7832 119.354V117.132C95.7832 116.696 95.429 116.342 94.9919 116.342Z" fill="white"/>
<path d="M109.567 12.7162H76.9034C76.4428 12.7162 76.0693 13.0892 76.0693 13.5493V27.1575C76.0693 27.6176 76.4428 27.9906 76.9034 27.9906H109.567C110.028 27.9906 110.401 27.6176 110.401 27.1575V13.5493C110.401 13.0892 110.028 12.7162 109.567 12.7162Z" fill="url(#paint3_linear_98_137)"/>
<path opacity="0.6" d="M109.567 12.7162H76.9034C76.4428 12.7162 76.0693 13.0892 76.0693 13.5493V27.1575C76.0693 27.6176 76.4428 27.9906 76.9034 27.9906H109.567C110.028 27.9906 110.401 27.6176 110.401 27.1575V13.5493C110.401 13.0892 110.028 12.7162 109.567 12.7162Z" fill="white"/>
<path opacity="0.1" d="M109.557 12.7216H76.8822C76.661 12.7216 76.4488 12.8093 76.2924 12.9656C76.136 13.1218 76.0481 13.3337 76.0481 13.5547V17.9181L93.051 21.2613C93.1551 21.2826 93.2624 21.2826 93.3665 21.2613L110.375 17.9181V13.5547C110.375 13.3365 110.289 13.127 110.136 12.9712C109.983 12.8154 109.775 12.7258 109.557 12.7216Z" fill="black"/>
<path d="M110.273 7.13508H100.296V5.46344C100.294 4.77265 100.019 4.11056 99.53 3.62209C99.041 3.13363 98.3782 2.85859 97.6866 2.85718H88.7734C88.0818 2.85859 87.419 3.13363 86.9299 3.62209C86.4409 4.11056 86.1656 4.77265 86.1641 5.46344V7.13508H76.1923C75.9739 7.13508 75.7645 7.22174 75.6101 7.37598C75.4556 7.53022 75.3689 7.73942 75.3689 7.95755V16.1876C75.369 16.3779 75.4351 16.5622 75.556 16.7093C75.6769 16.8563 75.8451 16.957 76.0319 16.994L93.0723 20.3213C93.1763 20.3426 93.2836 20.3426 93.3877 20.3213L110.428 16.9727C110.613 16.9376 110.78 16.8408 110.903 16.6981C111.025 16.5554 111.095 16.3754 111.102 16.1876V7.95755C111.102 7.84909 111.08 7.7417 111.039 7.64157C110.997 7.54143 110.936 7.45053 110.859 7.37408C110.782 7.29764 110.69 7.23717 110.59 7.19615C110.489 7.15513 110.382 7.13438 110.273 7.13508ZM88.1478 5.46344C88.1478 5.29722 88.2136 5.13773 88.3307 5.0197C88.4479 4.90166 88.607 4.83465 88.7734 4.83324H97.6866C97.8521 4.83463 98.0104 4.90092 98.1274 5.0178C98.2444 5.13468 98.3108 5.29281 98.3122 5.4581V7.12974H88.1532L88.1478 5.46344Z" fill="url(#paint4_linear_98_137)"/>
<path opacity="0.6" d="M110.273 7.13508H100.296V5.46344C100.294 4.77265 100.019 4.11056 99.53 3.62209C99.041 3.13363 98.3782 2.85859 97.6866 2.85718H88.7734C88.0818 2.85859 87.419 3.13363 86.9299 3.62209C86.4409 4.11056 86.1656 4.77265 86.1641 5.46344V7.13508H76.1923C75.9739 7.13508 75.7645 7.22174 75.6101 7.37598C75.4556 7.53022 75.3689 7.73942 75.3689 7.95755V16.1876C75.369 16.3779 75.4351 16.5622 75.556 16.7093C75.6769 16.8563 75.8451 16.957 76.0319 16.994L93.0723 20.3213C93.1763 20.3426 93.2836 20.3426 93.3877 20.3213L110.428 16.9727C110.613 16.9376 110.78 16.8408 110.903 16.6981C111.025 16.5554 111.095 16.3754 111.102 16.1876V7.95755C111.102 7.84909 111.08 7.7417 111.039 7.64157C110.997 7.54143 110.936 7.45053 110.859 7.37408C110.782 7.29764 110.69 7.23717 110.59 7.19615C110.489 7.15513 110.382 7.13438 110.273 7.13508ZM88.1478 5.46344C88.1478 5.29722 88.2136 5.13773 88.3307 5.0197C88.4479 4.90166 88.607 4.83465 88.7734 4.83324H97.6866C97.8521 4.83463 98.0104 4.90092 98.1274 5.0178C98.2444 5.13468 98.3108 5.29281 98.3122 5.4581V7.12974H88.1532L88.1478 5.46344Z" fill="white"/>
<path d="M94.9919 18.0942H91.4737C91.0367 18.0942 90.6824 18.4481 90.6824 18.8847V21.1064C90.6824 21.5429 91.0367 21.8968 91.4737 21.8968H94.9919C95.429 21.8968 95.7832 21.5429 95.7832 21.1064V18.8847C95.7832 18.4481 95.429 18.0942 94.9919 18.0942Z" fill="url(#paint5_linear_98_137)"/>
<path opacity="0.3" d="M94.9919 18.0942H91.4737C91.0367 18.0942 90.6824 18.4481 90.6824 18.8847V21.1064C90.6824 21.5429 91.0367 21.8968 91.4737 21.8968H94.9919C95.429 21.8968 95.7832 21.5429 95.7832 21.1064V18.8847C95.7832 18.4481 95.429 18.0942 94.9919 18.0942Z" fill="white"/>
<path d="M58.6815 110.964H26.0177C25.557 110.964 25.1836 111.337 25.1836 111.797V125.405C25.1836 125.865 25.557 126.238 26.0177 126.238H58.6815C59.1422 126.238 59.5156 125.865 59.5156 125.405V111.797C59.5156 111.337 59.1422 110.964 58.6815 110.964Z" fill="url(#paint6_linear_98_137)"/>
<path opacity="0.6" d="M58.6815 110.964H26.0177C25.557 110.964 25.1836 111.337 25.1836 111.797V125.405C25.1836 125.865 25.557 126.238 26.0177 126.238H58.6815C59.1422 126.238 59.5156 125.865 59.5156 125.405V111.797C59.5156 111.337 59.1422 110.964 58.6815 110.964Z" fill="white"/>
<path opacity="0.1" d="M58.7029 110.969H26.0177C25.7965 110.969 25.5843 111.057 25.4279 111.213C25.2715 111.369 25.1836 111.581 25.1836 111.802V116.166L42.1865 119.509C42.2924 119.53 42.4015 119.53 42.5073 119.509L59.5156 116.166V111.802C59.5157 111.585 59.4307 111.376 59.2789 111.221C59.1271 111.065 58.9204 110.975 58.7029 110.969Z" fill="black"/>
<path d="M59.3873 105.383H49.4101V103.711C49.4087 103.02 49.1333 102.358 48.6443 101.87C48.1553 101.381 47.4924 101.106 46.8008 101.105H37.893C37.2014 101.106 36.5386 101.381 36.0495 101.87C35.5605 102.358 35.2852 103.02 35.2838 103.711V105.383H25.3066C25.0882 105.383 24.8787 105.469 24.7243 105.624C24.5699 105.778 24.4832 105.987 24.4832 106.205V114.435C24.4842 114.625 24.5507 114.809 24.6714 114.956C24.7921 115.103 24.9598 115.204 25.1462 115.242L42.1865 118.59C42.2928 118.606 42.401 118.606 42.5073 118.59L59.5477 115.242C59.7341 115.204 59.9017 115.103 60.0224 114.956C60.1431 114.809 60.2096 114.625 60.2107 114.435V106.205C60.2107 105.987 60.1239 105.778 59.9695 105.624C59.8151 105.469 59.6057 105.383 59.3873 105.383ZM37.2621 103.711C37.2648 103.545 37.3322 103.386 37.4499 103.269C37.5676 103.151 37.7265 103.084 37.893 103.081H46.8008C46.9673 103.084 47.1262 103.151 47.2439 103.269C47.3616 103.386 47.429 103.545 47.4318 103.711V105.383H37.2728L37.2621 103.711Z" fill="url(#paint7_linear_98_137)"/>
<path opacity="0.6" d="M59.3873 105.383H49.4101V103.711C49.4087 103.02 49.1333 102.358 48.6443 101.87C48.1553 101.381 47.4924 101.106 46.8008 101.105H37.893C37.2014 101.106 36.5386 101.381 36.0495 101.87C35.5605 102.358 35.2852 103.02 35.2838 103.711V105.383H25.3066C25.0882 105.383 24.8787 105.469 24.7243 105.624C24.5699 105.778 24.4832 105.987 24.4832 106.205V114.435C24.4842 114.625 24.5507 114.809 24.6714 114.956C24.7921 115.103 24.9598 115.204 25.1462 115.242L42.1865 118.59C42.2928 118.606 42.401 118.606 42.5073 118.59L59.5477 115.242C59.7341 115.204 59.9017 115.103 60.0224 114.956C60.1431 114.809 60.2096 114.625 60.2107 114.435V106.205C60.2107 105.987 60.1239 105.778 59.9695 105.624C59.8151 105.469 59.6057 105.383 59.3873 105.383ZM37.2621 103.711C37.2648 103.545 37.3322 103.386 37.4499 103.269C37.5676 103.151 37.7265 103.084 37.893 103.081H46.8008C46.9673 103.084 47.1262 103.151 47.2439 103.269C47.3616 103.386 47.429 103.545 47.4318 103.711V105.383H37.2728L37.2621 103.711Z" fill="white"/>
<path d="M44.1113 116.342H40.5931C40.156 116.342 39.8018 116.696 39.8018 117.132V119.354C39.8018 119.79 40.156 120.144 40.5931 120.144H44.1113C44.5483 120.144 44.9026 119.79 44.9026 119.354V117.132C44.9026 116.696 44.5483 116.342 44.1113 116.342Z" fill="url(#paint8_linear_98_137)"/>
<path opacity="0.3" d="M44.1113 116.342H40.5931C40.156 116.342 39.8018 116.696 39.8018 117.132V119.354C39.8018 119.79 40.156 120.144 40.5931 120.144H44.1113C44.5483 120.144 44.9026 119.79 44.9026 119.354V117.132C44.9026 116.696 44.5483 116.342 44.1113 116.342Z" fill="white"/>
<path d="M58.6815 12.7162H26.0177C25.557 12.7162 25.1836 13.0892 25.1836 13.5493V27.1575C25.1836 27.6176 25.557 27.9906 26.0177 27.9906H58.6815C59.1422 27.9906 59.5156 27.6176 59.5156 27.1575V13.5493C59.5156 13.0892 59.1422 12.7162 58.6815 12.7162Z" fill="url(#paint9_linear_98_137)"/>
<path opacity="0.6" d="M58.6815 12.7162H26.0177C25.557 12.7162 25.1836 13.0892 25.1836 13.5493V27.1575C25.1836 27.6176 25.557 27.9906 26.0177 27.9906H58.6815C59.1422 27.9906 59.5156 27.6176 59.5156 27.1575V13.5493C59.5156 13.0892 59.1422 12.7162 58.6815 12.7162Z" fill="white"/>
<path opacity="0.1" d="M58.7029 12.7216H26.0177C25.7965 12.7216 25.5843 12.8093 25.4279 12.9656C25.2715 13.1218 25.1836 13.3337 25.1836 13.5547V17.9181L42.1865 21.2613C42.2924 21.2828 42.4015 21.2828 42.5073 21.2613L59.5156 17.9181V13.5547C59.5157 13.3374 59.4307 13.1287 59.2789 12.973C59.1271 12.8174 58.9204 12.7271 58.7029 12.7216Z" fill="black"/>
<path d="M59.3873 7.1352H49.4101V5.46356C49.4087 4.77277 49.1333 4.11068 48.6443 3.62222C48.1553 3.13375 47.4924 2.85871 46.8008 2.8573H37.893C37.2014 2.85871 36.5386 3.13375 36.0495 3.62222C35.5605 4.11068 35.2852 4.77277 35.2838 5.46356V7.1352H25.3066C25.0882 7.1352 24.8787 7.22186 24.7243 7.3761C24.5699 7.53034 24.4832 7.73954 24.4832 7.95767V16.1877C24.4832 16.378 24.5493 16.5623 24.6702 16.7094C24.7911 16.8564 24.9593 16.9571 25.1462 16.9941L42.1865 20.3214C42.2924 20.3428 42.4015 20.3428 42.5073 20.3214L59.5477 16.9728C59.7345 16.9357 59.9027 16.8351 60.0236 16.688C60.1445 16.541 60.2106 16.3566 60.2107 16.1663V7.95767C60.2107 7.73954 60.1239 7.53034 59.9695 7.3761C59.8151 7.22186 59.6057 7.1352 59.3873 7.1352ZM37.2621 5.46356C37.2635 5.29686 37.3304 5.13737 37.4484 5.01949C37.5664 4.9016 37.7261 4.83476 37.893 4.83336H46.8008C46.9668 4.83473 47.1257 4.90084 47.2436 5.01758C47.3614 5.13432 47.429 5.29244 47.4318 5.45822V7.12987H37.2728L37.2621 5.46356Z" fill="url(#paint10_linear_98_137)"/>
<path opacity="0.6" d="M59.3873 7.1352H49.4101V5.46356C49.4087 4.77277 49.1333 4.11068 48.6443 3.62222C48.1553 3.13375 47.4924 2.85871 46.8008 2.8573H37.893C37.2014 2.85871 36.5386 3.13375 36.0495 3.62222C35.5605 4.11068 35.2852 4.77277 35.2838 5.46356V7.1352H25.3066C25.0882 7.1352 24.8787 7.22186 24.7243 7.3761C24.5699 7.53034 24.4832 7.73954 24.4832 7.95767V16.1877C24.4832 16.378 24.5493 16.5623 24.6702 16.7094C24.7911 16.8564 24.9593 16.9571 25.1462 16.9941L42.1865 20.3214C42.2924 20.3428 42.4015 20.3428 42.5073 20.3214L59.5477 16.9728C59.7345 16.9357 59.9027 16.8351 60.0236 16.688C60.1445 16.541 60.2106 16.3566 60.2107 16.1663V7.95767C60.2107 7.73954 60.1239 7.53034 59.9695 7.3761C59.8151 7.22186 59.6057 7.1352 59.3873 7.1352ZM37.2621 5.46356C37.2635 5.29686 37.3304 5.13737 37.4484 5.01949C37.5664 4.9016 37.7261 4.83476 37.893 4.83336H46.8008C46.9668 4.83473 47.1257 4.90084 47.2436 5.01758C47.3614 5.13432 47.429 5.29244 47.4318 5.45822V7.12987H37.2728L37.2621 5.46356Z" fill="white"/>
<path d="M44.1113 18.0942H40.5931C40.156 18.0942 39.8018 18.4481 39.8018 18.8847V21.1064C39.8018 21.5429 40.156 21.8968 40.5931 21.8968H44.1113C44.5483 21.8968 44.9026 21.5429 44.9026 21.1064V18.8847C44.9026 18.4481 44.5483 18.0942 44.1113 18.0942Z" fill="url(#paint11_linear_98_137)"/>
<path opacity="0.3" d="M44.1113 18.0942H40.5931C40.156 18.0942 39.8018 18.4481 39.8018 18.8847V21.1064C39.8018 21.5429 40.156 21.8968 40.5931 21.8968H44.1113C44.5483 21.8968 44.9026 21.5429 44.9026 21.1064V18.8847C44.9026 18.4481 44.5483 18.0942 44.1113 18.0942Z" fill="white"/>
<path d="M54.4254 77.1198H26.0177C25.795 77.1198 25.5815 77.0314 25.4241 76.8742C25.2667 76.7169 25.1782 76.5036 25.1782 76.2813V62.6785C25.1791 62.5663 25.2027 62.4555 25.2477 62.3527C25.2695 62.3048 25.2945 62.2584 25.3226 62.2138C25.3524 62.1681 25.3883 62.1268 25.4295 62.091C25.5853 61.9346 25.7968 61.8462 26.0177 61.8453H52.9069C52.6832 63.7092 52.6099 65.5881 52.6877 67.4638C52.6877 67.7682 52.6877 68.0726 52.7358 68.3717C52.7732 68.9325 52.816 69.4986 52.8802 70.0593C53.1554 72.4589 53.6731 74.8244 54.4254 77.1198Z" fill="url(#paint12_linear_98_137)"/>
<path opacity="0.6" d="M54.4254 77.1198H26.0177C25.795 77.1198 25.5815 77.0314 25.4241 76.8742C25.2667 76.7169 25.1782 76.5036 25.1782 76.2813V62.6785C25.1791 62.5663 25.2027 62.4555 25.2477 62.3527C25.2695 62.3048 25.2945 62.2584 25.3226 62.2138C25.3524 62.1681 25.3883 62.1268 25.4295 62.091C25.5853 61.9346 25.7968 61.8462 26.0177 61.8453H52.9069C52.6832 63.7092 52.6099 65.5881 52.6877 67.4638C52.6877 67.7682 52.6877 68.0726 52.7358 68.3717C52.7732 68.9325 52.816 69.4986 52.8802 70.0593C53.1554 72.4589 53.6731 74.8244 54.4254 77.1198Z" fill="white"/>
<path opacity="0.1" d="M52.9069 61.8453C52.6832 63.7092 52.6099 65.5881 52.6877 67.4638C52.6877 67.7682 52.6877 68.0726 52.7358 68.3717L44.8974 69.9098L42.502 70.3798C42.3985 70.4065 42.29 70.4065 42.1865 70.3798L39.7965 69.9151L25.1836 67.0418V62.6731C25.1853 62.5633 25.207 62.4547 25.2478 62.3527C25.2695 62.3048 25.2945 62.2584 25.3226 62.2138C25.3524 62.1681 25.3884 62.1268 25.4295 62.091C25.5853 61.9346 25.7968 61.8462 26.0177 61.8453H52.9069Z" fill="black"/>
<path d="M54.0244 56.259H49.4154V54.5873C49.4126 53.8961 49.1361 53.234 48.6462 52.7457C48.1563 52.2574 47.4929 51.9825 46.8008 51.9811H37.893C37.201 51.9811 36.5373 52.2557 36.048 52.7444C35.5587 53.2332 35.2838 53.8961 35.2838 54.5873V56.259H25.3066C25.1984 56.259 25.0914 56.2803 24.9915 56.3216C24.8916 56.3629 24.8008 56.4235 24.7243 56.4999C24.6479 56.5763 24.5872 56.6669 24.5458 56.7667C24.5045 56.8665 24.4832 56.9734 24.4832 57.0815V65.3061C24.4832 65.4978 24.5499 65.6835 24.6718 65.8316C24.7937 65.9796 24.9632 66.0808 25.1515 66.1179H25.1836L39.7965 68.9966L42.1865 69.4612C42.2906 69.4825 42.3979 69.4825 42.502 69.4612L44.8974 68.9912L52.6877 67.4584C52.6099 65.5828 52.6832 63.7039 52.9069 61.84C53.129 59.9528 53.5027 58.0864 54.0244 56.259ZM37.2621 54.5873C37.2649 54.4216 37.3324 54.2634 37.4503 54.1467C37.5681 54.03 37.727 53.9639 37.893 53.9625H46.8008C46.9663 53.9639 47.1246 54.0302 47.2416 54.147C47.3587 54.2639 47.425 54.4221 47.4264 54.5873V56.259H37.2674L37.2621 54.5873Z" fill="url(#paint13_linear_98_137)"/>
<path opacity="0.6" d="M54.0244 56.259H49.4154V54.5873C49.4126 53.8961 49.1361 53.234 48.6462 52.7457C48.1563 52.2574 47.4929 51.9825 46.8008 51.9811H37.893C37.201 51.9811 36.5373 52.2557 36.048 52.7444C35.5587 53.2332 35.2838 53.8961 35.2838 54.5873V56.259H25.3066C25.1984 56.259 25.0914 56.2803 24.9915 56.3216C24.8916 56.3629 24.8008 56.4235 24.7243 56.4999C24.6479 56.5763 24.5872 56.6669 24.5458 56.7667C24.5045 56.8665 24.4832 56.9734 24.4832 57.0815V65.3061C24.4832 65.4978 24.5499 65.6835 24.6718 65.8316C24.7937 65.9796 24.9632 66.0808 25.1515 66.1179H25.1836L39.7965 68.9966L42.1865 69.4612C42.2906 69.4825 42.3979 69.4825 42.502 69.4612L44.8974 68.9912L52.6877 67.4584C52.6099 65.5828 52.6832 63.7039 52.9069 61.84C53.129 59.9528 53.5027 58.0864 54.0244 56.259ZM37.2621 54.5873C37.2649 54.4216 37.3324 54.2634 37.4503 54.1467C37.5681 54.03 37.727 53.9639 37.893 53.9625H46.8008C46.9663 53.9639 47.1246 54.0302 47.2416 54.147C47.3587 54.2639 47.425 54.4221 47.4264 54.5873V56.259H37.2674L37.2621 54.5873Z" fill="white"/>
<path d="M44.1113 67.218H40.5931C40.156 67.218 39.8018 67.5719 39.8018 68.0084V70.2302C39.8018 70.6667 40.156 71.0206 40.5931 71.0206H44.1113C44.5483 71.0206 44.9026 70.6667 44.9026 70.2302V68.0084C44.9026 67.5719 44.5483 67.218 44.1113 67.218Z" fill="url(#paint14_linear_98_137)"/>
<path opacity="0.3" d="M44.1113 67.218H40.5931C40.156 67.218 39.8018 67.5719 39.8018 68.0084V70.2302C39.8018 70.6667 40.156 71.0206 40.5931 71.0206H44.1113C44.5483 71.0206 44.9026 70.6667 44.9026 70.2302V68.0084C44.9026 67.5719 44.5483 67.218 44.1113 67.218Z" fill="white"/>
<path d="M127.784 126.238H160.448C160.908 126.238 161.282 125.865 161.282 125.405V111.797C161.282 111.337 160.908 110.964 160.448 110.964H127.784C127.323 110.964 126.95 111.337 126.95 111.797V125.405C126.95 125.865 127.323 126.238 127.784 126.238Z" fill="url(#paint15_linear_98_137)"/>
<path opacity="0.6" d="M127.784 126.238H160.448C160.908 126.238 161.282 125.865 161.282 125.405V111.797C161.282 111.337 160.908 110.964 160.448 110.964H127.784C127.323 110.964 126.95 111.337 126.95 111.797V125.405C126.95 125.865 127.323 126.238 127.784 126.238Z" fill="white"/>
<path opacity="0.1" d="M127.784 110.969H160.442C160.664 110.969 160.876 111.057 161.032 111.213C161.189 111.369 161.277 111.581 161.277 111.802V116.166L144.252 119.509C144.148 119.53 144.041 119.53 143.937 119.509L126.928 116.166V111.802C126.928 111.691 126.951 111.581 126.994 111.478C127.037 111.376 127.101 111.283 127.18 111.205C127.26 111.128 127.355 111.067 127.458 111.026C127.562 110.986 127.673 110.966 127.784 110.969Z" fill="black"/>
<path d="M127.073 105.383H137.05V103.711C137.051 103.02 137.327 102.358 137.816 101.87C138.305 101.381 138.968 101.106 139.659 101.105H148.572C149.264 101.106 149.927 101.381 150.416 101.87C150.905 102.358 151.18 103.02 151.182 103.711V105.383H161.154C161.262 105.383 161.369 105.404 161.469 105.445C161.569 105.487 161.659 105.547 161.736 105.624C161.812 105.7 161.873 105.791 161.914 105.89C161.956 105.99 161.977 106.097 161.977 106.205V114.435C161.976 114.625 161.909 114.809 161.789 114.956C161.668 115.103 161.5 115.204 161.314 115.242L144.252 118.59C144.146 118.606 144.038 118.606 143.931 118.59L126.891 115.242C126.705 115.204 126.537 115.103 126.416 114.956C126.296 114.809 126.229 114.625 126.228 114.435V106.205C126.228 106.095 126.25 105.987 126.293 105.885C126.335 105.784 126.398 105.693 126.477 105.616C126.555 105.539 126.649 105.479 126.751 105.439C126.854 105.399 126.963 105.38 127.073 105.383ZM149.198 103.711C149.197 103.545 149.13 103.387 149.014 103.269C148.897 103.151 148.738 103.084 148.572 103.081H139.659C139.493 103.084 139.334 103.151 139.216 103.269C139.098 103.386 139.031 103.545 139.028 103.711V105.383H149.187L149.198 103.711Z" fill="url(#paint16_linear_98_137)"/>
<path opacity="0.6" d="M127.073 105.383H137.05V103.711C137.051 103.02 137.327 102.358 137.816 101.87C138.305 101.381 138.968 101.106 139.659 101.105H148.572C149.264 101.106 149.927 101.381 150.416 101.87C150.905 102.358 151.18 103.02 151.182 103.711V105.383H161.154C161.262 105.383 161.369 105.404 161.469 105.445C161.569 105.487 161.659 105.547 161.736 105.624C161.812 105.7 161.873 105.791 161.914 105.89C161.956 105.99 161.977 106.097 161.977 106.205V114.435C161.976 114.625 161.909 114.809 161.789 114.956C161.668 115.103 161.5 115.204 161.314 115.242L144.252 118.59C144.146 118.606 144.038 118.606 143.931 118.59L126.891 115.242C126.705 115.204 126.537 115.103 126.416 114.956C126.296 114.809 126.229 114.625 126.228 114.435V106.205C126.228 106.095 126.25 105.987 126.293 105.885C126.335 105.784 126.398 105.693 126.477 105.616C126.555 105.539 126.649 105.479 126.751 105.439C126.854 105.399 126.963 105.38 127.073 105.383ZM149.198 103.711C149.197 103.545 149.13 103.387 149.014 103.269C148.897 103.151 148.738 103.084 148.572 103.081H139.659C139.493 103.084 139.334 103.151 139.216 103.269C139.098 103.386 139.031 103.545 139.028 103.711V105.383H149.187L149.198 103.711Z" fill="white"/>
<path d="M142.354 120.144H145.872C146.309 120.144 146.664 119.791 146.664 119.354V117.132C146.664 116.696 146.309 116.342 145.872 116.342H142.354C141.917 116.342 141.563 116.696 141.563 117.132V119.354C141.563 119.791 141.917 120.144 142.354 120.144Z" fill="url(#paint17_linear_98_137)"/>
<path opacity="0.3" d="M142.354 120.144H145.872C146.309 120.144 146.664 119.791 146.664 119.354V117.132C146.664 116.696 146.309 116.342 145.872 116.342H142.354C141.917 116.342 141.563 116.696 141.563 117.132V119.354C141.563 119.791 141.917 120.144 142.354 120.144Z" fill="white"/>
<path d="M127.784 27.9906L160.448 27.9906C160.908 27.9906 161.282 27.6176 161.282 27.1574V13.5493C161.282 13.0892 160.908 12.7162 160.448 12.7162L127.784 12.7162C127.323 12.7162 126.95 13.0892 126.95 13.5493V27.1574C126.95 27.6176 127.323 27.9906 127.784 27.9906Z" fill="url(#paint18_linear_98_137)"/>
<path opacity="0.6" d="M127.784 27.9906L160.448 27.9906C160.908 27.9906 161.282 27.6176 161.282 27.1574V13.5493C161.282 13.0892 160.908 12.7162 160.448 12.7162L127.784 12.7162C127.323 12.7162 126.95 13.0892 126.95 13.5493V27.1574C126.95 27.6176 127.323 27.9906 127.784 27.9906Z" fill="white"/>
<path opacity="0.1" d="M127.784 12.7216H160.442C160.664 12.7216 160.876 12.8093 161.032 12.9656C161.189 13.1218 161.277 13.3337 161.277 13.5547V17.9181L144.252 21.2613C144.148 21.2826 144.041 21.2826 143.937 21.2613L126.95 17.9181V13.5547C126.95 13.3337 127.038 13.1218 127.194 12.9656C127.351 12.8093 127.563 12.7216 127.784 12.7216Z" fill="black"/>
<path d="M127.073 7.13513H137.05V5.46349C137.051 4.7727 137.327 4.11061 137.816 3.62214C138.305 3.13368 138.968 2.85864 139.659 2.85723H148.572C148.917 2.85512 149.258 2.92093 149.577 3.0509C149.895 3.18087 150.185 3.37242 150.43 3.61458C150.674 3.85673 150.868 4.14472 151.001 4.462C151.134 4.77929 151.202 5.11963 151.203 5.46349V7.13513H161.175C161.393 7.13513 161.603 7.22178 161.757 7.37603C161.912 7.53027 161.998 7.73947 161.998 7.9576V16.1876C161.998 16.3779 161.932 16.5623 161.811 16.7093C161.69 16.8564 161.522 16.957 161.335 16.9941L144.252 20.3213C144.146 20.3428 144.037 20.3428 143.931 20.3213L126.891 16.9727C126.704 16.9356 126.536 16.835 126.415 16.688C126.294 16.5409 126.228 16.3565 126.228 16.1663V7.9576C126.228 7.84777 126.25 7.73905 126.293 7.63784C126.335 7.53664 126.398 7.445 126.477 7.36834C126.555 7.29168 126.649 7.23155 126.751 7.1915C126.854 7.15145 126.963 7.13228 127.073 7.13513ZM149.198 5.46349C149.198 5.29727 149.132 5.13778 149.015 5.01975C148.898 4.90171 148.739 4.8347 148.572 4.83329H139.659C139.493 4.83466 139.334 4.90077 139.217 5.01751C139.099 5.13425 139.031 5.29237 139.028 5.45815V7.12979H149.187L149.198 5.46349Z" fill="url(#paint19_linear_98_137)"/>
<path opacity="0.6" d="M127.073 7.13513H137.05V5.46349C137.051 4.7727 137.327 4.11061 137.816 3.62214C138.305 3.13368 138.968 2.85864 139.659 2.85723H148.572C148.917 2.85512 149.258 2.92093 149.577 3.0509C149.895 3.18087 150.185 3.37242 150.43 3.61458C150.674 3.85673 150.868 4.14472 151.001 4.462C151.134 4.77929 151.202 5.11963 151.203 5.46349V7.13513H161.175C161.393 7.13513 161.603 7.22178 161.757 7.37603C161.912 7.53027 161.998 7.73947 161.998 7.9576V16.1876C161.998 16.3779 161.932 16.5623 161.811 16.7093C161.69 16.8564 161.522 16.957 161.335 16.9941L144.252 20.3213C144.146 20.3428 144.037 20.3428 143.931 20.3213L126.891 16.9727C126.704 16.9356 126.536 16.835 126.415 16.688C126.294 16.5409 126.228 16.3565 126.228 16.1663V7.9576C126.228 7.84777 126.25 7.73905 126.293 7.63784C126.335 7.53664 126.398 7.445 126.477 7.36834C126.555 7.29168 126.649 7.23155 126.751 7.1915C126.854 7.15145 126.963 7.13228 127.073 7.13513ZM149.198 5.46349C149.198 5.29727 149.132 5.13778 149.015 5.01975C148.898 4.90171 148.739 4.8347 148.572 4.83329H139.659C139.493 4.83466 139.334 4.90077 139.217 5.01751C139.099 5.13425 139.031 5.29237 139.028 5.45815V7.12979H149.187L149.198 5.46349Z" fill="white"/>
<path d="M142.354 21.8969H145.872C146.309 21.8969 146.664 21.543 146.664 21.1064V18.8847C146.664 18.4481 146.309 18.0943 145.872 18.0943H142.354C141.917 18.0943 141.563 18.4481 141.563 18.8847V21.1064C141.563 21.543 141.917 21.8969 142.354 21.8969Z" fill="url(#paint20_linear_98_137)"/>
<path opacity="0.3" d="M142.354 21.8969H145.872C146.309 21.8969 146.664 21.543 146.664 21.1064V18.8847C146.664 18.4481 146.309 18.0943 145.872 18.0943H142.354C141.917 18.0943 141.563 18.4481 141.563 18.8847V21.1064C141.563 21.543 141.917 21.8969 142.354 21.8969Z" fill="white"/>
<path d="M132.056 77.1198H160.448C160.67 77.1183 160.882 77.0294 161.038 76.8723C161.194 76.7152 161.282 76.5027 161.282 76.2813V62.6785C161.281 62.5663 161.257 62.4555 161.212 62.3527C161.193 62.3037 161.168 62.2571 161.138 62.2138C161.108 62.1681 161.072 62.1268 161.031 62.091C160.954 62.0131 160.862 61.9512 160.761 61.909C160.66 61.8668 160.552 61.8452 160.442 61.8453H133.559C133.782 63.7093 133.856 65.5881 133.778 67.4638C133.778 67.7682 133.778 68.0726 133.73 68.3717C133.698 68.9325 133.65 69.4986 133.585 70.0593C133.315 72.4583 132.803 74.8238 132.056 77.1198Z" fill="url(#paint21_linear_98_137)"/>
<path opacity="0.6" d="M132.056 77.1198H160.448C160.67 77.1183 160.882 77.0294 161.038 76.8723C161.194 76.7152 161.282 76.5027 161.282 76.2813V62.6785C161.281 62.5663 161.257 62.4555 161.212 62.3527C161.193 62.3037 161.168 62.2571 161.138 62.2138C161.108 62.1681 161.072 62.1268 161.031 62.091C160.954 62.0131 160.862 61.9512 160.761 61.909C160.66 61.8668 160.552 61.8452 160.442 61.8453H133.559C133.782 63.7093 133.856 65.5881 133.778 67.4638C133.778 67.7682 133.778 68.0726 133.73 68.3717C133.698 68.9325 133.65 69.4986 133.585 70.0593C133.315 72.4583 132.803 74.8238 132.056 77.1198Z" fill="white"/>
<path opacity="0.1" d="M133.559 61.8453C133.782 63.7093 133.856 65.5881 133.778 67.4638C133.778 67.7682 133.778 68.0726 133.73 68.3717L141.579 69.9098L143.974 70.3798C144.078 70.4065 144.186 70.4065 144.29 70.3798L146.68 69.9151L161.293 67.0418V62.6731C161.291 62.5633 161.269 62.4547 161.228 62.3527C161.209 62.3037 161.184 62.2571 161.154 62.2138C161.124 62.1681 161.088 62.1268 161.047 62.091C160.97 62.0131 160.878 61.9512 160.777 61.909C160.676 61.8668 160.568 61.8452 160.458 61.8453H133.559Z" fill="black"/>
<path d="M132.436 56.259H137.05V54.5873C137.051 53.8966 137.327 53.2345 137.816 52.746C138.305 52.2575 138.968 51.9825 139.659 51.9811H148.567C149.26 51.9811 149.924 52.2555 150.414 52.7441C150.904 53.2327 151.18 53.8956 151.182 54.5873V56.259H161.154C161.372 56.259 161.581 56.3456 161.736 56.4999C161.89 56.6541 161.977 56.8633 161.977 57.0815V65.3061C161.977 65.4971 161.911 65.6822 161.79 65.8301C161.67 65.9781 161.501 66.0797 161.314 66.1179H161.277L146.664 68.9966L144.252 69.4559C144.148 69.4772 144.041 69.4772 143.937 69.4559L141.541 68.9859L133.751 67.4531C133.903 63.6675 133.451 59.8819 132.414 56.2376L132.436 56.259ZM149.198 54.5873C149.195 54.4216 149.128 54.2634 149.01 54.1467C148.892 54.03 148.733 53.9639 148.567 53.9625H139.659C139.494 53.9639 139.335 54.0302 139.218 54.147C139.101 54.2639 139.035 54.4221 139.034 54.5873V56.259H149.193L149.198 54.5873Z" fill="url(#paint22_linear_98_137)"/>
<path opacity="0.6" d="M132.436 56.259H137.05V54.5873C137.051 53.8966 137.327 53.2345 137.816 52.746C138.305 52.2575 138.968 51.9825 139.659 51.9811H148.567C149.26 51.9811 149.924 52.2555 150.414 52.7441C150.904 53.2327 151.18 53.8956 151.182 54.5873V56.259H161.154C161.372 56.259 161.581 56.3456 161.736 56.4999C161.89 56.6541 161.977 56.8633 161.977 57.0815V65.3061C161.977 65.4971 161.911 65.6822 161.79 65.8301C161.67 65.9781 161.501 66.0797 161.314 66.1179H161.277L146.664 68.9966L144.252 69.4559C144.148 69.4772 144.041 69.4772 143.937 69.4559L141.541 68.9859L133.751 67.4531C133.903 63.6675 133.451 59.8819 132.414 56.2376L132.436 56.259ZM149.198 54.5873C149.195 54.4216 149.128 54.2634 149.01 54.1467C148.892 54.03 148.733 53.9639 148.567 53.9625H139.659C139.494 53.9639 139.335 54.0302 139.218 54.147C139.101 54.2639 139.035 54.4221 139.034 54.5873V56.259H149.193L149.198 54.5873Z" fill="white"/>
<path d="M142.354 71.0206H145.872C146.309 71.0206 146.664 70.6667 146.664 70.2302V68.0085C146.664 67.5719 146.309 67.2181 145.872 67.2181H142.354C141.917 67.2181 141.563 67.5719 141.563 68.0085V70.2302C141.563 70.6667 141.917 71.0206 142.354 71.0206Z" fill="url(#paint23_linear_98_137)"/>
<path opacity="0.3" d="M142.354 71.0206H145.872C146.309 71.0206 146.664 70.6667 146.664 70.2302V68.0085C146.664 67.5719 146.309 67.2181 145.872 67.2181H142.354C141.917 67.2181 141.563 67.5719 141.563 68.0085V70.2302C141.563 70.6667 141.917 71.0206 142.354 71.0206Z" fill="white"/>
<path d="M118.427 58.5287H71.4926C70.8311 58.5287 70.2949 59.0643 70.2949 59.725V79.2773C70.2949 79.938 70.8311 80.4736 71.4926 80.4736H118.427C119.089 80.4736 119.625 79.938 119.625 79.2773V59.725C119.625 59.0643 119.089 58.5287 118.427 58.5287Z" fill="url(#paint24_linear_98_137)"/>
<path d="M101.36 55.0359H88.5542C87.5832 55.0345 86.6525 54.6486 85.9659 53.9628C85.2794 53.277 84.893 52.3473 84.8916 51.3775V48.093C84.893 47.1231 85.2794 46.1934 85.9659 45.5076C86.6525 44.8219 87.5832 44.436 88.5542 44.4346H101.36C102.331 44.4346 103.263 44.82 103.95 45.5061C104.637 46.1922 105.022 47.1227 105.022 48.093V51.3615C105.025 51.8432 104.931 52.3207 104.748 52.7664C104.565 53.2121 104.296 53.6173 103.955 53.9587C103.615 54.3001 103.211 54.571 102.765 54.7559C102.32 54.9407 101.842 55.0359 101.36 55.0359ZM88.5542 47.1209C88.2965 47.1237 88.05 47.2268 87.8672 47.4084C87.6845 47.5899 87.5799 47.8355 87.5757 48.093V51.3615C87.5757 51.6235 87.6799 51.8748 87.8654 52.0601C88.0509 52.2454 88.3025 52.3495 88.5649 52.3495H101.371C101.633 52.3495 101.884 52.2454 102.07 52.0601C102.255 51.8748 102.36 51.6235 102.36 51.3615V48.093C102.36 47.8309 102.255 47.5796 102.07 47.3943C101.884 47.209 101.633 47.1049 101.371 47.1049L88.5542 47.1209Z" fill="url(#paint25_linear_98_137)"/>
<path opacity="0.2" d="M118.422 58.5287H71.4977C71.34 58.528 71.1837 58.5584 71.0377 58.6182C70.8918 58.678 70.7591 58.766 70.6474 58.8772C70.5356 58.9884 70.4469 59.1205 70.3864 59.266C70.3258 59.4115 70.2947 59.5675 70.2947 59.725V66.0003L94.7297 70.807C94.8794 70.8395 95.0344 70.8395 95.1842 70.807L119.625 66.0003V59.725C119.625 59.5675 119.593 59.4115 119.533 59.266C119.472 59.1205 119.384 58.9884 119.272 58.8772C119.16 58.766 119.027 58.678 118.881 58.6182C118.736 58.5584 118.579 58.528 118.422 58.5287Z" fill="black"/>
<path d="M119.657 64.6491L95.1735 69.4558C95.0214 69.4825 94.8658 69.4825 94.7137 69.4558L70.2305 64.6491C69.9615 64.5961 69.7192 64.4517 69.5448 64.2404C69.3703 64.0292 69.2744 63.7641 69.2734 63.4902V51.6872C69.2734 51.5323 69.304 51.3788 69.3634 51.2356C69.4228 51.0924 69.5098 50.9623 69.6195 50.8527C69.7293 50.7431 69.8595 50.6561 70.0029 50.5968C70.1462 50.5375 70.2999 50.507 70.4551 50.507H119.443C119.598 50.507 119.752 50.5375 119.895 50.5968C120.038 50.6561 120.169 50.7431 120.278 50.8527C120.388 50.9623 120.475 51.0924 120.534 51.2356C120.594 51.3788 120.624 51.5323 120.624 51.6872V63.5116C120.619 63.7835 120.52 64.0453 120.343 64.2526C120.167 64.4599 119.924 64.6 119.657 64.6491Z" fill="url(#paint26_linear_98_137)"/>
<path d="M97.4941 66.2567H92.4306C91.8046 66.2567 91.2971 66.7636 91.2971 67.3889V70.588C91.2971 71.2133 91.8046 71.7203 92.4306 71.7203H97.4941C98.1201 71.7203 98.6276 71.2133 98.6276 70.588V67.3889C98.6276 66.7636 98.1201 66.2567 97.4941 66.2567Z" fill="url(#paint27_linear_98_137)"/>
<path opacity="0.4" d="M97.4941 66.2567H92.4306C91.8046 66.2567 91.2971 66.7636 91.2971 67.3889V70.588C91.2971 71.2133 91.8046 71.7203 92.4306 71.7203H97.4941C98.1201 71.7203 98.6276 71.2133 98.6276 70.588V67.3889C98.6276 66.7636 98.1201 66.2567 97.4941 66.2567Z" fill="black"/>
<path d="M183.23 70.6361C183.845 71.9019 184.3 73.0982 184.835 74.3479C185.369 75.5976 185.76 76.842 186.177 78.1184C187.022 80.7064 187.646 83.3614 188.043 86.0547C188.096 86.3912 188.123 86.7544 188.16 87.1229L188.214 87.6569C188.214 87.7531 188.214 87.8225 188.214 87.9347V88.2818C188.232 89.0916 188.162 89.901 188.005 90.6958C187.74 92.0771 187.363 93.4346 186.877 94.7547C185.964 97.2643 184.826 99.6864 183.476 101.991L180.76 100.843C181.364 98.4078 181.974 95.9243 182.434 93.5264C182.659 92.3774 182.818 91.2166 182.91 90.0496C182.941 89.5725 182.931 89.0935 182.878 88.6183L182.819 88.2818L182.744 87.8545C182.685 87.5715 182.648 87.2884 182.578 87C182.045 84.6426 181.356 82.3231 180.514 80.0571C180.108 78.8982 179.659 77.7446 179.21 76.5857C178.761 75.4267 178.263 74.2624 177.803 73.1943L183.23 70.6361Z" fill="#7F3E3B"/>
<path d="M180.878 100.133L178.793 102.162L183.343 104.299C183.343 104.299 184.444 102.376 183.685 100.635L180.878 100.133Z" fill="#7F3E3B"/>
<path d="M177.114 105.191L180.958 106.761L183.343 104.277L178.793 102.162L177.114 105.191Z" fill="#7F3E3B"/>
<path opacity="0.2" d="M99.2372 103.001C106.803 102.154 113.948 99.0861 119.768 94.184C125.589 89.2819 129.823 82.7661 131.937 75.4604C134.05 68.1546 133.947 60.387 131.641 53.1396C129.335 45.8923 124.93 39.4906 118.981 34.744C113.033 29.9973 105.81 27.1189 98.224 26.4726C90.6382 25.8264 83.0309 27.4412 76.3639 31.1131C69.6969 34.785 64.2696 40.349 60.7682 47.1016C57.2667 53.8542 55.8484 61.4922 56.6924 69.0499C57.2531 74.0699 58.7984 78.9304 61.2402 83.3537C63.6819 87.777 66.9722 91.6764 70.9231 94.8292C74.874 97.9821 79.4081 100.326 84.2663 101.729C89.1245 103.131 94.2117 103.563 99.2372 103.001Z" fill="url(#paint28_linear_98_137)"/>
<path opacity="0.1" d="M71.2251 34.4956L129.773 81.2054C130.024 80.6713 130.259 80.1372 130.489 79.6032C131.957 76.116 132.894 72.4294 133.27 68.6654L82.6994 28.3324C78.5493 29.7148 74.668 31.7996 71.2251 34.4956Z" fill="white"/>
<path opacity="0.1" d="M57.719 54.9665L112.759 98.8938C117.989 96.1693 122.522 92.2809 126.009 87.5287L65.8996 39.5479C62.0259 43.9933 59.2269 49.2686 57.719 54.9665Z" fill="white"/>
<path d="M189.791 107.973C189.721 107.001 189.402 106.063 188.866 105.249C188.476 104.65 187.931 104.169 187.289 103.855L183.637 102.066C181.209 100.865 178.766 99.6949 176.322 98.5253C173.879 97.3557 171.419 96.2074 168.971 95.0485C166.522 93.8896 164.051 92.7627 161.576 91.6571C156.635 89.4212 151.663 87.2457 146.658 85.1308C144.156 84.0627 141.648 83.0372 139.119 82.0332C138.381 81.7427 137.781 81.1828 137.44 80.4669C137.1 79.7509 137.044 78.9324 137.285 78.1772C140.671 67.5162 139.9 55.9714 135.127 45.8538C130.354 35.7363 121.932 27.7927 111.546 23.6131C101.16 19.4335 89.5764 19.3265 79.1147 23.3134C68.653 27.3003 60.0849 35.0869 55.1256 45.1145C50.1663 55.1421 49.1817 66.6707 52.3689 77.3925C55.5561 88.1142 62.68 97.238 72.3144 102.937C81.9488 108.637 93.3829 110.491 104.328 108.129C115.272 105.767 124.92 99.363 131.34 90.1991C131.794 89.5478 132.479 89.0933 133.257 88.9277C134.034 88.7621 134.845 88.8978 135.526 89.3072C137.864 90.6958 140.214 92.0613 142.573 93.4035C147.289 96.0881 152.041 98.7051 156.828 101.254C159.218 102.547 161.64 103.791 164.019 105.057C166.399 106.323 168.832 107.556 171.254 108.795C173.676 110.035 176.066 111.247 178.52 112.443L182.161 114.248C182.801 114.57 183.517 114.71 184.23 114.654C185.202 114.585 186.14 114.267 186.952 113.73C187.92 113.135 188.7 112.279 189.202 111.26C189.704 110.242 189.909 109.102 189.791 107.973ZM79.4486 96.1594C73.2329 93.0958 68.0664 88.2599 64.6024 82.2632C61.1385 76.2666 59.5326 69.3786 59.988 62.4703C60.4434 55.562 62.9395 48.9438 67.1607 43.4525C71.3819 37.9613 77.1386 33.8438 83.7027 31.6206C90.2668 29.3975 97.3435 29.1687 104.038 30.963C110.732 32.7574 116.743 36.4943 121.311 41.7013C125.879 46.9083 128.799 53.3514 129.701 60.2158C130.602 67.0802 129.446 74.0575 126.378 80.2654C124.341 84.3871 121.512 88.0677 118.051 91.0971C114.591 94.1265 110.567 96.4454 106.209 97.9213C101.851 99.3972 97.2448 100.001 92.6533 99.6989C88.0617 99.3966 83.5747 98.1939 79.4486 96.1594Z" fill="url(#paint29_linear_98_137)"/>
<path d="M163.068 54.1281C163.068 54.4432 162.902 54.6995 162.693 54.6995C162.485 54.6995 162.319 54.4432 162.319 54.1281C162.319 53.813 162.485 53.5513 162.693 53.5513C162.902 53.5513 163.068 53.8076 163.068 54.1281Z" fill="#263238"/>
<path d="M162.929 54.6995C162.553 55.6669 162.046 56.5781 161.421 57.4072C161.637 57.5618 161.885 57.6672 162.146 57.7161C162.407 57.765 162.676 57.7562 162.934 57.6903L162.929 54.6995Z" fill="#630F0F"/>
<path d="M164.19 52.3656C164.229 52.3645 164.267 52.3514 164.298 52.328C164.329 52.3047 164.352 52.2723 164.364 52.2353C164.375 52.1983 164.375 52.1586 164.363 52.1217C164.352 52.0847 164.328 52.0524 164.297 52.0291C164.061 51.8523 163.786 51.7339 163.495 51.6838C163.204 51.6336 162.906 51.6531 162.624 51.7407C162.599 51.7476 162.575 51.7597 162.555 51.7762C162.534 51.7927 162.518 51.8133 162.506 51.8366C162.494 51.86 162.487 51.8855 162.486 51.9116C162.485 51.9377 162.489 51.9638 162.498 51.9882C162.508 52.0126 162.522 52.0347 162.541 52.0532C162.559 52.0717 162.581 52.0861 162.606 52.0955C162.63 52.1049 162.656 52.1091 162.682 52.1078C162.709 52.1065 162.734 52.0997 162.757 52.0879C162.982 52.0212 163.219 52.0082 163.449 52.05C163.68 52.0917 163.897 52.187 164.083 52.3282C164.114 52.3528 164.151 52.3661 164.19 52.3656Z" fill="#263238"/>
<path d="M173.884 56.51C173.318 59.3833 172.756 64.6439 174.767 66.5559C174.767 66.5559 173.981 69.4666 168.644 69.4666C162.763 69.4666 165.837 66.5559 165.837 66.5559C169.045 65.7922 168.96 63.4155 168.398 61.2152L173.884 56.51Z" fill="#7F3E3B"/>
<path d="M175.798 64.756C176.242 64.9002 175.665 67.5385 175.665 67.5385C175.665 67.5385 174.932 69.3811 165.832 68.7402C165.132 68.6868 165.399 66.1553 166.067 65.7868C168.222 64.6118 174.366 64.286 175.798 64.756Z" fill="#263238"/>
<path d="M194.282 175.1C194.774 175.052 195.491 174.15 195.694 173.819C195.703 173.804 195.708 173.788 195.708 173.771C195.708 173.754 195.703 173.737 195.694 173.722C195.685 173.707 195.672 173.694 195.655 173.686C195.639 173.679 195.621 173.676 195.603 173.68C195.55 173.68 194.256 173.925 193.94 174.427C193.907 174.48 193.885 174.539 193.876 174.601C193.867 174.662 193.87 174.725 193.887 174.785C193.956 175.02 194.09 175.084 194.197 175.1H194.282ZM195.411 173.909C195.063 174.39 194.491 174.951 194.218 174.913C194.192 174.913 194.111 174.913 194.063 174.732C194.053 174.697 194.05 174.66 194.056 174.624C194.061 174.588 194.075 174.554 194.095 174.524C194.464 174.194 194.921 173.981 195.411 173.909Z" fill="url(#paint30_linear_98_137)"/>
<path d="M195.357 173.909C195.453 173.901 195.548 173.885 195.641 173.861C195.656 173.856 195.671 173.847 195.682 173.835C195.693 173.823 195.701 173.808 195.705 173.792C195.708 173.775 195.707 173.758 195.701 173.742C195.695 173.726 195.686 173.712 195.673 173.701C195.641 173.669 194.774 172.932 194.186 172.991C194.116 172.995 194.047 173.015 193.984 173.048C193.921 173.081 193.866 173.127 193.823 173.183C193.772 173.231 193.741 173.296 193.734 173.366C193.727 173.435 193.745 173.505 193.785 173.562C193.978 173.867 194.823 173.963 195.357 173.909ZM195.4 173.722C194.865 173.787 194.085 173.68 193.935 173.461C193.935 173.461 193.892 173.391 193.967 173.295C193.997 173.26 194.034 173.231 194.075 173.21C194.116 173.189 194.161 173.176 194.208 173.172C194.651 173.234 195.066 173.425 195.4 173.722Z" fill="url(#paint31_linear_98_137)"/>
<path d="M157.523 189.146C157.928 189.145 158.332 189.109 158.731 189.04C158.749 189.035 158.766 189.025 158.779 189.012C158.792 188.999 158.801 188.983 158.806 188.965C158.81 188.946 158.807 188.926 158.798 188.909C158.789 188.892 158.775 188.877 158.758 188.869C158.699 188.831 157.331 188.052 156.673 188.228C156.55 188.259 156.444 188.338 156.379 188.447C156.337 188.506 156.314 188.577 156.314 188.65C156.314 188.722 156.337 188.793 156.379 188.853C156.55 189.088 157.02 189.146 157.523 189.146ZM158.432 188.901C157.699 189.002 156.705 188.997 156.523 188.746C156.496 188.714 156.475 188.655 156.523 188.538C156.543 188.505 156.569 188.476 156.6 188.454C156.632 188.432 156.667 188.417 156.705 188.409C157.127 188.297 157.951 188.655 158.432 188.901Z" fill="url(#paint32_linear_98_137)"/>
<path d="M158.689 189.04C158.708 189.045 158.728 189.045 158.748 189.04C158.76 189.029 158.77 189.016 158.776 189.001C158.783 188.986 158.786 188.97 158.785 188.954C158.785 188.911 158.673 187.854 158.175 187.443C158.102 187.381 158.016 187.336 157.924 187.308C157.833 187.281 157.736 187.272 157.641 187.283C157.384 187.309 157.315 187.437 157.293 187.544C157.224 187.987 158.165 188.837 158.635 189.05L158.689 189.04ZM157.732 187.437C157.851 187.441 157.966 187.484 158.058 187.56C158.355 187.899 158.541 188.32 158.592 188.767C158.106 188.479 157.47 187.811 157.523 187.544C157.523 187.544 157.523 187.459 157.705 187.443L157.732 187.437Z" fill="url(#paint33_linear_98_137)"/>
<path d="M163.036 188.943H159.106L158.715 179.859H162.64L163.036 188.943Z" fill="#7F3E3B"/>
<path d="M199.132 170.945L196.063 173.397L188.267 167.992L191.336 165.54L199.132 170.945Z" fill="#7F3E3B"/>
<path d="M195.501 173.242L198.635 170.139C198.691 170.085 198.764 170.051 198.841 170.043C198.919 170.036 198.997 170.054 199.062 170.096L202.073 172.029C202.146 172.077 202.207 172.14 202.252 172.214C202.297 172.288 202.324 172.372 202.332 172.459C202.34 172.545 202.328 172.632 202.297 172.713C202.266 172.794 202.216 172.867 202.153 172.927C201.041 173.995 200.447 174.454 199.068 175.816C198.223 176.66 196.154 179.17 194.983 180.329C193.812 181.488 192.507 180.484 192.887 179.902C194.571 177.306 195.143 175.164 195.218 173.861C195.234 173.627 195.335 173.407 195.501 173.242Z" fill="#263238"/>
<path d="M159.127 188.495H163.405C163.482 188.494 163.558 188.521 163.618 188.569C163.678 188.618 163.72 188.686 163.736 188.762L164.511 192.249C164.531 192.333 164.531 192.42 164.512 192.504C164.493 192.588 164.454 192.666 164.4 192.733C164.346 192.8 164.277 192.854 164.199 192.89C164.121 192.927 164.036 192.945 163.95 192.944C162.399 192.944 160.164 192.832 158.218 192.832C155.946 192.832 153.983 192.954 151.315 192.954C149.711 192.954 149.257 191.325 149.931 191.176C153.005 190.508 155.513 190.434 158.165 188.799C158.451 188.61 158.784 188.505 159.127 188.495Z" fill="#263238"/>
<path d="M182.509 67.7307C185.915 69.3329 187.321 80.3134 187.321 80.3134L179.488 83.3843C178.272 80.4112 177.287 77.3491 176.542 74.225C175.445 69.2688 179.006 66.0644 182.509 67.7307Z" fill="url(#paint34_linear_98_137)"/>
<path opacity="0.3" d="M182.509 67.7307C185.915 69.3329 187.321 80.3134 187.321 80.3134L179.488 83.3843C178.272 80.4112 177.287 77.3491 176.542 74.225C175.445 69.2688 179.006 66.0644 182.509 67.7307Z" fill="white"/>
<path opacity="0.2" d="M177.435 70.9513C177.168 70.8218 176.888 70.7198 176.6 70.6469C176.288 71.8178 176.277 73.0487 176.568 74.2251C177.311 77.3495 178.294 80.4117 179.509 83.3844L182.092 82.375C181.616 79.5071 180.156 72.2544 177.435 70.9513Z" fill="black"/>
<path d="M159.796 67.6454C159.796 67.6454 155.614 72.3612 159.56 101.559H180.573C180.718 98.3544 178.691 82.6207 181.803 67.4424C179.479 66.996 177.129 66.6999 174.767 66.5559C171.793 66.3849 168.811 66.3849 165.837 66.5559C163.798 66.7611 161.778 67.1254 159.796 67.6454Z" fill="url(#paint35_linear_98_137)"/>
<path opacity="0.3" d="M159.796 67.6454C159.796 67.6454 155.614 72.3612 159.56 101.559H180.573C180.718 98.3544 178.691 82.6207 181.803 67.4424C179.479 66.996 177.129 66.6999 174.767 66.5559C171.793 66.3849 168.811 66.3849 165.837 66.5559C163.798 66.7611 161.778 67.1254 159.796 67.6454Z" fill="white"/>
<path opacity="0.2" d="M164.035 73.9046C163.084 71.0527 160.795 70.1394 158.464 71.8324C157.993 74.5989 157.662 79.0584 158.042 86.1295L162.143 86.0921C162.143 86.0921 165.442 78.1505 164.035 73.9046Z" fill="black"/>
<path d="M163.265 72.735C163.094 74.1663 162.859 75.4641 162.597 76.8153C162.335 78.1665 162.03 79.4857 161.683 80.8155C160.997 83.5335 160.062 86.1829 158.892 88.7304C158.587 89.3874 158.234 90.0336 157.86 90.6798C157.667 91.0056 157.475 91.3314 157.256 91.6518C156.971 92.0971 156.636 92.5076 156.256 92.8748C155.518 93.5582 154.643 94.0771 153.689 94.3969C152.915 94.668 152.113 94.856 151.299 94.9577C149.846 95.1377 148.377 95.1556 146.92 95.0111C146.207 94.9542 145.512 94.8634 144.835 94.7387C144.14 94.6159 143.482 94.4877 142.766 94.3008L143.113 91.3741C145.554 91.2718 147.977 90.9137 150.342 90.306C150.823 90.1637 151.29 89.9778 151.738 89.7505C152.031 89.616 152.288 89.4127 152.486 89.1577C152.443 89.1951 152.834 88.5489 153.064 88.0896C153.294 87.6303 153.55 87.0214 153.769 86.4874C154.219 85.3872 154.604 84.2229 154.956 83.0319C155.309 81.8409 155.619 80.6286 155.908 79.4002C156.197 78.1719 156.443 76.9328 156.71 75.6617C156.977 74.3907 157.17 73.1302 157.362 71.95L163.265 72.735Z" fill="#7F3E3B"/>
<path d="M165.046 70.5239C166.153 74.1075 161.661 84.789 161.661 84.789L152.203 82.4123C152.782 79.0361 153.756 75.7397 155.106 72.5908C158.154 65.9256 163.715 66.2033 165.046 70.5239Z" fill="url(#paint36_linear_98_137)"/>
<path opacity="0.3" d="M165.046 70.5239C166.153 74.1075 161.661 84.789 161.661 84.789L152.203 82.4123C152.782 79.0361 153.756 75.7397 155.106 72.5908C158.154 65.9256 163.715 66.2033 165.046 70.5239Z" fill="white"/>
<path d="M143.247 91.3901L138.798 91.278L140.937 95.8977C140.937 95.8977 142.744 96.138 144.231 93.6973L145.797 91.8334L143.995 91.4702C143.749 91.4222 143.498 91.3954 143.247 91.3901Z" fill="#7F3E3B"/>
<path d="M135.991 92.1378L138.542 95.9671L140.942 95.8977L138.804 91.278L135.991 92.1378Z" fill="#7F3E3B"/>
<path opacity="0.2" d="M158.715 179.864L158.913 184.548H162.843L162.645 179.864H158.715Z" fill="black"/>
<path opacity="0.2" d="M191.336 165.54L188.267 167.992L192.288 170.774L195.357 168.323L191.336 165.54Z" fill="black"/>
<path d="M173.66 53.4337C173.424 57.3217 173.483 59.6075 171.521 61.605C168.57 64.6064 163.763 62.8333 162.832 58.9346C161.993 55.4418 162.522 49.6738 166.329 48.1197C167.169 47.7728 168.083 47.6467 168.985 47.7533C169.887 47.86 170.747 48.1958 171.482 48.7288C172.218 49.2618 172.804 49.9741 173.185 50.7978C173.566 51.6214 173.73 52.529 173.66 53.4337Z" fill="#7F3E3B"/>
<path d="M176.804 49.8234C176.804 49.8234 178.852 50.4322 178.21 52.7661C177.242 56.3123 174.964 60.3926 172.024 60.649C168.361 60.9747 166.709 57.1989 166.228 53.2948C164.036 51.7941 162.41 50.3895 162.934 48.83C163.736 46.4267 166.645 44.3545 171.275 44.8885C175.906 45.4226 178.21 48.4134 176.804 49.8234Z" fill="#263238"/>
<path d="M168.457 54.0959C168.386 55.0602 167.999 55.9743 167.356 56.6968C166.5 57.6368 165.602 57.0493 165.452 55.9064C165.319 54.8703 165.597 53.1346 166.645 52.6165C167.693 52.0985 168.527 52.9316 168.457 54.0959Z" fill="#7F3E3B"/>
<path d="M167.014 101.559C167.014 101.559 165.688 128.006 168.27 139.211C172.361 156.953 190.342 171.17 190.342 171.17L196.117 166.55C196.117 166.55 181.322 155.553 179.99 140.781C178.798 127.515 180.563 112.278 180.563 101.559H167.014Z" fill="url(#paint37_linear_98_137)"/>
<path opacity="0.2" d="M167.014 101.559C167.014 101.559 165.688 128.006 168.27 139.211C172.361 156.953 190.342 171.17 190.342 171.17L196.117 166.55C196.117 166.55 181.322 155.553 179.99 140.781C178.798 127.515 180.563 112.278 180.563 101.559H167.014Z" fill="black"/>
<path opacity="0.2" d="M168.987 109.394C168.452 108.363 167.409 111.434 166.682 115.375C166.682 120.812 166.778 126.997 167.254 132.236C170.885 125.533 170.115 111.53 168.987 109.394Z" fill="black"/>
<path d="M187.722 170.032L189.914 171.73L196.582 166.331L194.582 164.52L187.722 170.032Z" fill="#2C6BDB"/>
<path opacity="0.4" d="M187.722 170.032L189.914 171.73L196.582 166.331L194.582 164.52L187.722 170.032Z" fill="#FAFAFA"/>
<path d="M159.56 101.559C159.56 101.559 153.647 126.607 153.23 138.57C152.764 151.991 157.448 183.64 157.448 183.64H164.105C164.105 183.64 164.923 151.745 165.222 139.521C165.543 126.196 173.371 101.559 173.371 101.559H159.56Z" fill="url(#paint38_linear_98_137)"/>
<path opacity="0.2" d="M159.56 101.559C159.56 101.559 153.647 126.607 153.23 138.57C152.764 151.991 157.448 183.64 157.448 183.64H164.105C164.105 183.64 164.923 151.745 165.222 139.521C165.543 126.196 173.371 101.559 173.371 101.559H159.56Z" fill="black"/>
<path d="M156.17 180.991C156.138 180.991 156.545 183.752 156.545 183.752H164.64L164.859 181.29L156.17 180.991Z" fill="#2C6BDB"/>
<path opacity="0.4" d="M156.17 180.991C156.138 180.991 156.545 183.752 156.545 183.752H164.64L164.859 181.29L156.17 180.991Z" fill="#FAFAFA"/>
</g>
<defs>
<linearGradient id="paint0_linear_98_137" x1="110.401" y1="110.964" x2="75.8492" y2="125.723" gradientUnits="userSpaceOnUse">
<stop stop-color="#24ADB6"/>
<stop offset="1" stop-color="#49D1A4"/>
</linearGradient>
<linearGradient id="paint1_linear_98_137" x1="111.096" y1="101.105" x2="74.1434" y2="115.444" gradientUnits="userSpaceOnUse">
<stop stop-color="#24ADB6"/>
<stop offset="1" stop-color="#49D1A4"/>
</linearGradient>
<linearGradient id="paint2_linear_98_137" x1="95.7832" y1="116.342" x2="90.0834" y2="117.795" gradientUnits="userSpaceOnUse">
<stop stop-color="#24ADB6"/>
<stop offset="1" stop-color="#49D1A4"/>
</linearGradient>
<linearGradient id="paint3_linear_98_137" x1="110.401" y1="12.7162" x2="75.8492" y2="27.4752" gradientUnits="userSpaceOnUse">
<stop stop-color="#24ADB6"/>
<stop offset="1" stop-color="#49D1A4"/>
</linearGradient>
<linearGradient id="paint4_linear_98_137" x1="111.102" y1="2.85718" x2="74.1543" y2="17.2107" gradientUnits="userSpaceOnUse">
<stop stop-color="#24ADB6"/>
<stop offset="1" stop-color="#49D1A4"/>
</linearGradient>
<linearGradient id="paint5_linear_98_137" x1="95.7832" y1="18.0942" x2="90.0834" y2="19.5473" gradientUnits="userSpaceOnUse">
<stop stop-color="#24ADB6"/>
<stop offset="1" stop-color="#49D1A4"/>
</linearGradient>
<linearGradient id="paint6_linear_98_137" x1="59.5156" y1="110.964" x2="24.9635" y2="125.723" gradientUnits="userSpaceOnUse">
<stop stop-color="#24ADB6"/>
<stop offset="1" stop-color="#49D1A4"/>
</linearGradient>
<linearGradient id="paint7_linear_98_137" x1="60.2107" y1="101.105" x2="23.2576" y2="115.444" gradientUnits="userSpaceOnUse">
<stop stop-color="#24ADB6"/>
<stop offset="1" stop-color="#49D1A4"/>
</linearGradient>
<linearGradient id="paint8_linear_98_137" x1="44.9026" y1="116.342" x2="39.2028" y2="117.795" gradientUnits="userSpaceOnUse">
<stop stop-color="#24ADB6"/>
<stop offset="1" stop-color="#49D1A4"/>
</linearGradient>
<linearGradient id="paint9_linear_98_137" x1="59.5156" y1="12.7162" x2="24.9634" y2="27.4752" gradientUnits="userSpaceOnUse">
<stop stop-color="#24ADB6"/>
<stop offset="1" stop-color="#49D1A4"/>
</linearGradient>
<linearGradient id="paint10_linear_98_137" x1="60.2107" y1="2.8573" x2="23.2672" y2="17.207" gradientUnits="userSpaceOnUse">
<stop stop-color="#24ADB6"/>
<stop offset="1" stop-color="#49D1A4"/>
</linearGradient>
<linearGradient id="paint11_linear_98_137" x1="44.9026" y1="18.0942" x2="39.2028" y2="19.5473" gradientUnits="userSpaceOnUse">
<stop stop-color="#24ADB6"/>
<stop offset="1" stop-color="#49D1A4"/>
</linearGradient>
<linearGradient id="paint12_linear_98_137" x1="54.4254" y1="61.8453" x2="23.6899" y2="73.0296" gradientUnits="userSpaceOnUse">
<stop stop-color="#24ADB6"/>
<stop offset="1" stop-color="#49D1A4"/>
</linearGradient>
<linearGradient id="paint13_linear_98_137" x1="54.0244" y1="51.9811" x2="22.1508" y2="62.2085" gradientUnits="userSpaceOnUse">
<stop stop-color="#24ADB6"/>
<stop offset="1" stop-color="#49D1A4"/>
</linearGradient>
<linearGradient id="paint14_linear_98_137" x1="44.9026" y1="67.218" x2="39.2028" y2="68.6711" gradientUnits="userSpaceOnUse">
<stop stop-color="#24ADB6"/>
<stop offset="1" stop-color="#49D1A4"/>
</linearGradient>
<linearGradient id="paint15_linear_98_137" x1="126.95" y1="126.238" x2="161.502" y2="111.479" gradientUnits="userSpaceOnUse">
<stop stop-color="#24ADB6"/>
<stop offset="1" stop-color="#49D1A4"/>
</linearGradient>
<linearGradient id="paint16_linear_98_137" x1="161.977" y1="101.105" x2="125.008" y2="115.459" gradientUnits="userSpaceOnUse">
<stop stop-color="#24ADB6"/>
<stop offset="1" stop-color="#49D1A4"/>
</linearGradient>
<linearGradient id="paint17_linear_98_137" x1="141.563" y1="120.144" x2="147.263" y2="118.691" gradientUnits="userSpaceOnUse">
<stop stop-color="#24ADB6"/>
<stop offset="1" stop-color="#49D1A4"/>
</linearGradient>
<linearGradient id="paint18_linear_98_137" x1="126.95" y1="27.9906" x2="161.502" y2="13.2316" gradientUnits="userSpaceOnUse">
<stop stop-color="#24ADB6"/>
<stop offset="1" stop-color="#49D1A4"/>
</linearGradient>
<linearGradient id="paint19_linear_98_137" x1="161.998" y1="2.85718" x2="125.022" y2="17.2367" gradientUnits="userSpaceOnUse">
<stop stop-color="#24ADB6"/>
<stop offset="1" stop-color="#49D1A4"/>
</linearGradient>
<linearGradient id="paint20_linear_98_137" x1="141.563" y1="21.8969" x2="147.263" y2="20.4438" gradientUnits="userSpaceOnUse">
<stop stop-color="#24ADB6"/>
<stop offset="1" stop-color="#49D1A4"/>
</linearGradient>
<linearGradient id="paint21_linear_98_137" x1="161.282" y1="61.8453" x2="130.564" y2="73.0152" gradientUnits="userSpaceOnUse">
<stop stop-color="#24ADB6"/>
<stop offset="1" stop-color="#49D1A4"/>
</linearGradient>
<linearGradient id="paint22_linear_98_137" x1="161.977" y1="51.9811" x2="130.086" y2="62.2245" gradientUnits="userSpaceOnUse">
<stop stop-color="#24ADB6"/>
<stop offset="1" stop-color="#49D1A4"/>
</linearGradient>
<linearGradient id="paint23_linear_98_137" x1="141.563" y1="71.0206" x2="147.263" y2="69.5676" gradientUnits="userSpaceOnUse">
<stop stop-color="#24ADB6"/>
<stop offset="1" stop-color="#49D1A4"/>
</linearGradient>
<linearGradient id="paint24_linear_98_137" x1="119.625" y1="58.5287" x2="69.98" y2="79.7366" gradientUnits="userSpaceOnUse">
<stop stop-color="#24ADB6"/>
<stop offset="1" stop-color="#49D1A4"/>
</linearGradient>
<linearGradient id="paint25_linear_98_137" x1="105.022" y1="44.4346" x2="83.8262" y2="52.0837" gradientUnits="userSpaceOnUse">
<stop stop-color="#24ADB6"/>
<stop offset="1" stop-color="#49D1A4"/>
</linearGradient>
<linearGradient id="paint26_linear_98_137" x1="120.624" y1="50.507" x2="72.3038" y2="75.3662" gradientUnits="userSpaceOnUse">
<stop stop-color="#24ADB6"/>
<stop offset="1" stop-color="#49D1A4"/>
</linearGradient>
<linearGradient id="paint27_linear_98_137" x1="98.6276" y1="66.2567" x2="90.4366" y2="68.3453" gradientUnits="userSpaceOnUse">
<stop stop-color="#24ADB6"/>
<stop offset="1" stop-color="#49D1A4"/>
</linearGradient>
<linearGradient id="paint28_linear_98_137" x1="133.449" y1="26.3335" x2="45.0238" y2="43.1573" gradientUnits="userSpaceOnUse">
<stop stop-color="#24ADB6"/>
<stop offset="1" stop-color="#49D1A4"/>
</linearGradient>
<linearGradient id="paint29_linear_98_137" x1="189.823" y1="20.3989" x2="36.1761" y2="63.5448" gradientUnits="userSpaceOnUse">
<stop stop-color="#24ADB6"/>
<stop offset="1" stop-color="#49D1A4"/>
</linearGradient>
<linearGradient id="paint30_linear_98_137" x1="195.708" y1="173.678" x2="193.646" y2="174.184" gradientUnits="userSpaceOnUse">
<stop stop-color="#24ADB6"/>
<stop offset="1" stop-color="#49D1A4"/>
</linearGradient>
<linearGradient id="paint31_linear_98_137" x1="195.706" y1="172.987" x2="193.683" y2="173.799" gradientUnits="userSpaceOnUse">
<stop stop-color="#24ADB6"/>
<stop offset="1" stop-color="#49D1A4"/>
</linearGradient>
<linearGradient id="paint32_linear_98_137" x1="158.808" y1="188.202" x2="156.437" y2="189.391" gradientUnits="userSpaceOnUse">
<stop stop-color="#24ADB6"/>
<stop offset="1" stop-color="#49D1A4"/>
</linearGradient>
<linearGradient id="paint33_linear_98_137" x1="158.785" y1="187.278" x2="157.05" y2="187.556" gradientUnits="userSpaceOnUse">
<stop stop-color="#24ADB6"/>
<stop offset="1" stop-color="#49D1A4"/>
</linearGradient>
<linearGradient id="paint34_linear_98_137" x1="187.321" y1="67.2861" x2="174.469" y2="68.9522" gradientUnits="userSpaceOnUse">
<stop stop-color="#24ADB6"/>
<stop offset="1" stop-color="#49D1A4"/>
</linearGradient>
<linearGradient id="paint35_linear_98_137" x1="181.803" y1="66.4276" x2="153.786" y2="70.0555" gradientUnits="userSpaceOnUse">
<stop stop-color="#24ADB6"/>
<stop offset="1" stop-color="#49D1A4"/>
</linearGradient>
<linearGradient id="paint36_linear_98_137" x1="165.221" y1="67.4102" x2="150.037" y2="69.5719" gradientUnits="userSpaceOnUse">
<stop stop-color="#24ADB6"/>
<stop offset="1" stop-color="#49D1A4"/>
</linearGradient>
<linearGradient id="paint37_linear_98_137" x1="196.117" y1="101.559" x2="161.303" y2="104.357" gradientUnits="userSpaceOnUse">
<stop stop-color="#24ADB6"/>
<stop offset="1" stop-color="#49D1A4"/>
</linearGradient>
<linearGradient id="paint38_linear_98_137" x1="173.371" y1="101.559" x2="149.415" y2="102.678" gradientUnits="userSpaceOnUse">
<stop stop-color="#24ADB6"/>
<stop offset="1" stop-color="#49D1A4"/>
</linearGradient>
<clipPath id="clip0_98_137">
<rect width="225" height="199" fill="white"/>
</clipPath>
</defs>
</svg>
