<svg width="224" height="199" viewBox="0 0 224 199" fill="none" xmlns="http://www.w3.org/2000/svg">
<g clip-path="url(#clip0_98_304)">
<path d="M186.441 178.892H168.811V179.026H186.441V178.892Z" fill="#EBEBEB"/>
<path d="M140.423 183.411H116.985V183.544H140.423V183.411Z" fill="#EBEBEB"/>
<path d="M210.809 183.849H186.973V183.982H210.809V183.849Z" fill="#EBEBEB"/>
<path d="M31.2303 178.759H8.23999V178.892H31.2303V178.759Z" fill="#EBEBEB"/>
<path d="M39.3429 178.759H35.9734V178.892H39.3429V178.759Z" fill="#EBEBEB"/>
<path d="M100.164 181.013H50.2976V181.146H100.164V181.013Z" fill="#EBEBEB"/>
<path d="M105.817 151.062H3.03415C2.22895 151.06 1.45722 150.739 0.888358 150.167C0.319498 149.595 -1.23481e-06 148.82 0 148.012V3.04957C0.00700939 2.24634 0.329601 1.47833 0.897705 0.912339C1.46581 0.346352 2.23354 0.0281094 3.03415 0.0267334H105.817C106.623 0.0267334 107.396 0.348024 107.966 0.919924C108.537 1.49182 108.857 2.26749 108.857 3.07628V148.012C108.857 148.821 108.537 149.597 107.966 150.169C107.396 150.741 106.623 151.062 105.817 151.062ZM3.03415 0.133548C2.26425 0.134963 1.52636 0.442809 0.982458 0.989517C0.438554 1.53622 0.133075 2.27712 0.133077 3.04957V148.012C0.133075 148.785 0.438554 149.526 0.982458 150.072C1.52636 150.619 2.26425 150.927 3.03415 150.928H105.817C106.588 150.927 107.326 150.619 107.871 150.073C108.416 149.526 108.722 148.785 108.724 148.012V3.04957C108.722 2.27663 108.416 1.53575 107.871 0.989191C107.326 0.442636 106.588 0.13496 105.817 0.133548H3.03415Z" fill="#EBEBEB"/>
<path d="M220.96 151.062H118.172C117.366 151.06 116.594 150.739 116.024 150.167C115.455 149.596 115.134 148.821 115.133 148.012V3.04957C115.141 2.24586 115.465 1.47784 116.034 0.912005C116.603 0.346166 117.371 0.0280944 118.172 0.0267334H220.96C221.76 0.029513 222.527 0.348377 223.093 0.914213C223.66 1.48005 223.982 2.24727 223.989 3.04957V148.012C223.989 148.819 223.671 149.593 223.103 150.165C222.535 150.736 221.765 151.059 220.96 151.062ZM118.172 0.133548C117.402 0.13496 116.663 0.442636 116.118 0.989191C115.574 1.53575 115.267 2.27663 115.266 3.04957V148.012C115.267 148.785 115.574 149.526 116.118 150.073C116.663 150.619 117.402 150.927 118.172 150.928H220.96C221.731 150.927 222.469 150.619 223.014 150.073C223.559 149.526 223.865 148.785 223.867 148.012V3.04957C223.865 2.27663 223.559 1.53575 223.014 0.989191C222.469 0.442636 221.731 0.13496 220.96 0.133548H118.172Z" fill="#EBEBEB"/>
<path d="M161.56 104.688H211.31V12.9191H161.56V104.688Z" fill="#E6E6E6"/>
<path d="M155.891 104.688H209.958V12.9191H155.891V104.688Z" fill="#F0F0F0"/>
<path d="M205.428 100.144V17.4641L160.421 17.4641V100.144H205.428Z" fill="white"/>
<path d="M47.4178 16.6364H8.23999V62.3207H47.4178V16.6364Z" fill="#E0E0E0"/>
<path d="M49.7599 16.6364H9.56543V62.3207H49.7599V16.6364Z" fill="#F5F5F5"/>
<path d="M46.3958 58.7211V20.236L12.9349 20.236V58.7211H46.3958Z" fill="white"/>
<path d="M102.378 43.3025H63.2007V88.9869H102.378V43.3025Z" fill="#E0E0E0"/>
<path d="M104.715 43.3025H64.521V88.9869H104.715V43.3025Z" fill="#F5F5F5"/>
<path d="M101.346 85.3926V46.9075H67.8851V85.3926H101.346Z" fill="white"/>
<path d="M79.9739 127.034C79.7077 127.034 79.4416 127.034 79.1648 127.061C77.4664 127.183 75.8159 127.68 74.3314 128.516C72.8468 129.353 71.5648 130.508 70.5771 131.9C69.5894 133.292 68.9204 134.885 68.6179 136.566C68.3154 138.247 68.3869 139.975 68.8274 141.625C70.0888 146.551 70.6973 151.622 70.6372 156.707V171.522C70.6372 171.778 70.6875 172.031 70.7852 172.267C70.8829 172.504 71.0261 172.718 71.2066 172.899C71.3871 173.079 71.6013 173.222 71.837 173.32C72.0727 173.417 72.3252 173.467 72.5801 173.466H119.423V127.034H79.9739Z" fill="#F0F0F0"/>
<path d="M130.979 138.618C130.912 135.659 129.719 132.838 127.643 130.735C125.568 128.631 122.769 127.405 119.82 127.308C116.872 127.211 113.999 128.25 111.79 130.213C109.582 132.175 108.207 134.911 107.946 137.86C107.866 139.128 107.992 140.402 108.319 141.63C109.578 146.556 110.186 151.627 110.129 156.712V171.527C110.129 172.043 110.333 172.538 110.696 172.902C111.06 173.267 111.553 173.472 112.066 173.472H126.865C127.378 173.472 127.871 173.267 128.235 172.902C128.598 172.538 128.802 172.043 128.802 171.527V155.847C128.759 151.075 129.36 146.32 130.591 141.71C130.859 140.702 130.989 139.662 130.979 138.618Z" fill="#F5F5F5"/>
<path d="M103.539 145.278H61.4761V173.471H103.539V145.278Z" fill="#F0F0F0"/>
<path d="M66.7991 105.345H27.9727C23.1447 105.345 19.8656 109.271 20.6481 114.11L26.7058 151.649H83.0079L76.9502 114.11C76.1677 109.271 71.6218 105.345 66.7991 105.345Z" fill="#EBEBEB"/>
<path d="M78.2171 105.345H38.5496C33.9558 105.345 30.8365 109.084 31.5817 113.688L37.7086 151.649H94.0053L87.8785 113.688C87.1332 109.084 82.8109 105.345 78.2171 105.345Z" fill="#F5F5F5"/>
<path d="M64.228 142.704H102.996C103.668 142.704 104.312 142.971 104.788 143.448C105.263 143.925 105.53 144.572 105.53 145.246V151.655C105.53 152.329 105.263 152.975 104.788 153.452C104.312 153.929 103.668 154.197 102.996 154.197H64.228C64.1288 154.197 64.0305 154.177 63.9388 154.139C63.8471 154.101 63.7637 154.045 63.6936 153.975C63.6234 153.904 63.5677 153.821 63.5297 153.729C63.4917 153.637 63.4722 153.538 63.4722 153.438V143.462C63.4722 143.261 63.5518 143.068 63.6936 142.926C63.8353 142.784 64.0276 142.704 64.228 142.704Z" fill="#EBEBEB"/>
<path d="M22.5593 127.034C22.2931 127.034 22.027 127.034 21.7502 127.061C18.9729 127.271 16.3642 128.479 14.4022 130.462C12.4401 132.445 11.256 135.072 11.0668 137.86C10.9868 139.128 11.1127 140.402 11.4394 141.63C12.7008 146.556 13.3093 151.627 13.2492 156.712V171.527C13.2492 172.043 13.4534 172.538 13.8167 172.902C14.1801 173.267 14.6729 173.471 15.1868 173.471H62.0298V127.034H22.5593Z" fill="#F0F0F0"/>
<path d="M73.5647 138.618C73.5629 136.97 73.2105 135.342 72.5313 133.842C71.852 132.342 70.8614 131.004 69.6257 129.919C68.39 128.833 66.9376 128.025 65.3657 127.548C63.7938 127.071 62.1384 126.936 60.5103 127.152C58.8822 127.368 57.3189 127.931 55.9247 128.802C54.5306 129.673 53.3377 130.832 52.4259 132.202C51.5141 133.573 50.9044 135.123 50.6374 136.749C50.3704 138.374 50.4524 140.039 50.8778 141.63C52.1366 146.556 52.7451 151.627 52.6876 156.712V171.527C52.6876 172.043 52.8918 172.537 53.2551 172.902C53.6185 173.267 54.1113 173.471 54.6252 173.471H69.4234C69.9372 173.471 70.4301 173.267 70.7934 172.902C71.1568 172.537 71.361 172.043 71.361 171.527V155.847C71.3183 151.076 71.9181 146.321 73.1442 141.71C73.4253 140.704 73.5668 139.663 73.5647 138.618Z" fill="#F5F5F5"/>
<path d="M118.593 174.881H23.3843C23.0116 174.881 22.6541 174.733 22.3906 174.468C22.1271 174.204 21.979 173.845 21.979 173.471H120.019C120.019 173.658 119.982 173.843 119.91 174.016C119.838 174.188 119.733 174.345 119.6 174.476C119.467 174.607 119.31 174.711 119.137 174.78C118.964 174.85 118.779 174.884 118.593 174.881Z" fill="#E0E0E0"/>
<path d="M221.19 153.15H198.279V155.035H221.19V153.15Z" fill="#E6E6E6"/>
<path d="M155.066 174.881H159.298V131.477H155.066V174.881Z" fill="#E6E6E6"/>
<path d="M140.417 155.041H198.279V153.156H140.417V155.041Z" fill="#F5F5F5"/>
<path d="M221.19 163.474H198.279V165.359H221.19V163.474Z" fill="#E6E6E6"/>
<path d="M140.417 165.359H198.279V163.474H140.417V165.359Z" fill="#F5F5F5"/>
<path d="M221.19 132.508H198.279V134.394H221.19V132.508Z" fill="#E6E6E6"/>
<path d="M140.417 134.394H198.279V132.508H140.417V134.394Z" fill="#F5F5F5"/>
<path d="M221.19 142.832H198.279V144.717H221.19V142.832Z" fill="#E6E6E6"/>
<path d="M140.417 144.717H198.279V142.832H140.417V144.717Z" fill="#F5F5F5"/>
<path d="M212.928 174.881H217.16V131.477H212.928V174.881Z" fill="#E6E6E6"/>
<path d="M194.047 174.881H198.279V131.477H194.047V174.881Z" fill="#F5F5F5"/>
<path d="M140.417 174.881H144.649V131.477H140.417V174.881Z" fill="#F5F5F5"/>
<path d="M182.033 130.965H184.295V105.655H182.033V130.965Z" fill="#E6E6E6"/>
<path d="M182.326 130.949H182.964V105.639H182.326V130.949Z" fill="#F0F0F0"/>
<path d="M174.783 132.508H191.519C191.519 131.942 191.294 131.398 190.895 130.998C190.496 130.597 189.954 130.372 189.389 130.372H176.896C176.331 130.372 175.79 130.597 175.39 130.998C174.991 131.398 174.767 131.942 174.767 132.508H174.783Z" fill="#F0F0F0"/>
<path d="M179.387 131.883H180.234C180.36 131.883 180.463 131.781 180.463 131.654V129.886C180.463 129.759 180.36 129.656 180.234 129.656H179.387C179.261 129.656 179.158 129.759 179.158 129.886V131.654C179.158 131.781 179.261 131.883 179.387 131.883Z" fill="#F0F0F0"/>
<path d="M173.032 111.647H193.297L191.359 95.4331C191.251 94.5173 190.812 93.6729 190.126 93.0598C189.439 92.4467 188.552 92.1073 187.633 92.1058H178.706C177.788 92.1096 176.902 92.4498 176.216 93.0625C175.53 93.6752 175.09 94.5182 174.98 95.4331L173.032 111.647Z" fill="#F5F5F5"/>
<path d="M112.737 199C169.738 199 215.946 196.293 215.946 192.954C215.946 189.615 169.738 186.909 112.737 186.909C55.7365 186.909 9.52832 189.615 9.52832 192.954C9.52832 196.293 55.7365 199 112.737 199Z" fill="#F5F5F5"/>
<path d="M137.069 57.3699L136.883 58.0001L136.712 58.5342C136.595 58.892 136.468 59.2231 136.34 59.5649C136.084 60.2325 135.807 60.8841 135.504 61.5303C134.913 62.8153 134.247 64.0637 133.508 65.2688C133.141 65.8723 132.752 66.4545 132.358 67.0366C131.964 67.6187 131.544 68.1795 131.102 68.7296C130.236 69.8417 129.306 70.9027 128.318 71.9073L128.11 72.1209C127.824 72.4157 127.484 72.6531 127.11 72.8206C126.001 73.3074 124.795 73.5321 123.586 73.4775C122.533 73.4203 121.498 73.1762 120.53 72.7565C119.719 72.4126 118.952 71.9714 118.247 71.4427C117.613 70.9787 117.014 70.4701 116.453 69.9206C115.433 68.8965 114.513 67.777 113.706 66.5773C113.312 66.0005 112.95 65.4077 112.604 64.8095C112.258 64.2114 111.96 63.6132 111.635 62.9242C111.424 62.4753 111.374 61.9664 111.496 61.4849C111.618 61.0035 111.903 60.5796 112.302 60.2863C112.702 59.993 113.191 59.8484 113.685 59.8776C114.179 59.9068 114.648 60.1078 115.01 60.4462L115.149 60.5743L116.447 61.7707C116.889 62.1765 117.342 62.5664 117.794 62.9403C118.651 63.6695 119.558 64.337 120.509 64.9377C121.253 65.435 122.078 65.7967 122.947 66.0058C123.168 66.0684 123.402 66.0684 123.623 66.0058C123.696 65.9731 123.756 65.9167 123.793 65.8456L122.569 66.7749C123.245 65.8563 123.9 64.927 124.501 63.9657C125.103 63.0044 125.678 62.011 126.215 61.0123C126.753 60.0136 127.248 58.9828 127.706 57.9521C127.94 57.418 128.148 56.916 128.36 56.4032L128.893 55.004L129.042 54.6195C129.467 53.6344 130.246 52.8459 131.224 52.4107C132.202 51.9755 133.307 51.9256 134.32 52.2709C135.333 52.6162 136.179 53.3313 136.691 54.2742C137.202 55.217 137.341 56.3183 137.08 57.3592L137.069 57.3699Z" fill="#263238"/>
<path d="M113.142 62.9509L109.543 61.6959L108.788 56.7504C108.788 56.7504 114.819 58.3526 114.792 61.2686L113.142 62.9509Z" fill="#CE7A63"/>
<path d="M134.338 37.1874C131.991 36.3595 128.749 33.5397 130.021 29.892C130.99 27.1255 134.578 26.8798 135.988 27.7076C137.399 28.5354 137.458 26.8371 139.262 26.1855C141.067 25.5339 142.339 27.1735 143.254 28.0334C144.17 28.8932 145.24 28.2417 146.597 28.3004C147.955 28.3592 148.923 30.143 148.168 31.4461C146.837 33.7319 149.035 35.1846 147.369 36.9684C144.915 39.5586 146.837 42.1008 143.377 44.6804C141.274 46.2612 135.302 43.3612 134.338 37.1874Z" fill="#263238"/>
<path d="M134.296 39.6014C134.208 39.6537 134.11 39.6848 134.008 39.6922C133.832 39.707 133.657 39.6514 133.521 39.5373C133.386 39.4233 133.301 39.2601 133.284 39.0834C133.167 38.0234 133.305 36.9508 133.687 35.9555C134.068 34.9602 134.683 34.0713 135.477 33.3635C135.546 33.3085 135.625 33.2678 135.71 33.244C135.795 33.2201 135.883 33.2134 135.971 33.2244C136.058 33.2353 136.142 33.2636 136.218 33.3077C136.294 33.3518 136.361 33.4107 136.414 33.4809C136.469 33.5496 136.51 33.6284 136.534 33.7129C136.558 33.7973 136.566 33.8858 136.556 33.9731C136.546 34.0604 136.519 34.145 136.476 34.2218C136.434 34.2987 136.377 34.3663 136.308 34.4209C135.686 34.9887 135.208 35.6974 134.915 36.488C134.621 37.2786 134.52 38.1282 134.62 38.9659C134.631 39.0917 134.607 39.218 134.549 39.3304C134.492 39.4428 134.404 39.5367 134.296 39.6014Z" fill="#263238"/>
<path d="M130.468 52.0292C130.468 52.0292 125.747 64.1526 130.229 86.7438H151.633C151.782 83.4486 149.717 67.3677 152.884 51.8369C150.517 51.3804 148.124 51.0771 145.719 50.929C142.689 50.7527 139.652 50.7527 136.622 50.929C134.545 51.1334 132.488 51.5012 130.468 52.0292Z" fill="white"/>
<path d="M144.819 40.6161C144.244 43.5535 143.675 48.9369 145.719 50.8969C145.719 50.8969 142.291 53.6848 138.687 56.5047C137.891 55.8274 137.282 54.9554 136.921 53.9729C136.559 52.9905 136.456 51.931 136.622 50.8969C139.885 50.1172 139.816 47.6925 139.235 45.4014L144.819 40.6161Z" fill="#CE7A63"/>
<path opacity="0.2" d="M142.546 42.5868L139.241 45.4174C139.382 45.942 139.476 46.4782 139.523 47.0196C140.587 48.0343 142.482 45.4654 142.616 44.157C142.686 43.6336 142.662 43.1019 142.546 42.5868Z" fill="black"/>
<path d="M144.782 35.6759C144.931 39.6601 145.219 41.9833 143.43 44.221C140.731 47.575 135.685 46.2452 134.354 42.3838C133.156 38.9124 133.114 32.9842 136.824 31.0295C137.638 30.5942 138.549 30.3748 139.471 30.3921C140.394 30.4093 141.296 30.6627 142.093 31.1281C142.89 31.5936 143.556 32.2557 144.026 33.0516C144.497 33.8475 144.757 34.7508 144.782 35.6759Z" fill="#CE7A63"/>
<path d="M144.676 39.361C143.584 41.4973 142.328 34.7413 142.648 33.6144C138.788 34.6826 132.869 34.3301 133.327 31.6277C133.859 28.5781 137.394 28.4606 141.311 28.8345C147.779 29.4594 145.857 37.0432 144.676 39.361Z" fill="#263238"/>
<path d="M142.765 39.7402C142.664 39.746 142.564 39.7277 142.472 39.6868C142.391 39.6514 142.318 39.6004 142.257 39.5367C142.196 39.473 142.148 39.3978 142.116 39.3155C142.084 39.2331 142.068 39.1452 142.07 39.0568C142.071 38.9684 142.091 38.8812 142.126 38.8002C142.529 37.8137 143.161 36.9385 143.971 36.2481C144.78 35.5576 145.743 35.072 146.778 34.8321C146.951 34.8009 147.129 34.8395 147.274 34.9396C147.418 35.0396 147.518 35.193 147.55 35.3662C147.578 35.5392 147.539 35.7166 147.439 35.861C147.34 36.0054 147.189 36.1056 147.018 36.1406C146.199 36.3438 145.44 36.7407 144.804 37.2981C144.169 37.8556 143.676 38.5574 143.366 39.345C143.315 39.4626 143.231 39.5626 143.124 39.6328C143.017 39.7031 142.892 39.7404 142.765 39.7402Z" fill="#263238"/>
<path d="M146.762 38.4798C146.552 39.4393 145.999 40.2885 145.208 40.8671C144.17 41.5934 143.35 40.7015 143.377 39.4464C143.403 38.3195 143.978 36.5892 145.139 36.3648C146.299 36.1405 147.023 37.2995 146.762 38.4798Z" fill="#CE7A63"/>
<path d="M128.057 187.683C127.562 187.806 127.067 187.854 126.854 187.683C126.8 187.633 126.762 187.566 126.747 187.494C126.732 187.421 126.739 187.345 126.769 187.277C126.787 187.216 126.818 187.159 126.859 187.11C126.9 187.062 126.951 187.022 127.008 186.994C127.61 186.658 129.138 187.096 129.207 187.117C129.227 187.122 129.244 187.133 129.256 187.149C129.269 187.165 129.276 187.185 129.276 187.205C129.276 187.225 129.269 187.245 129.256 187.261C129.244 187.277 129.227 187.288 129.207 187.293C128.836 187.456 128.451 187.587 128.057 187.683ZM127.269 187.08C127.21 187.093 127.153 187.115 127.099 187.144C127.064 187.161 127.033 187.184 127.007 187.214C126.981 187.243 126.962 187.277 126.95 187.315C126.907 187.448 126.95 187.496 126.977 187.523C127.216 187.731 128.196 187.496 128.893 187.213C128.365 187.064 127.814 187.019 127.269 187.08Z" fill="#263238"/>
<path d="M129.202 187.282H129.164C128.632 187.192 127.525 186.578 127.493 186.118C127.493 186.011 127.53 185.862 127.775 185.776C127.95 185.716 128.141 185.728 128.307 185.808C128.893 186.092 129.239 187.117 129.255 187.16C129.264 187.174 129.269 187.191 129.269 187.208C129.269 187.225 129.264 187.241 129.255 187.256C129.24 187.27 129.222 187.279 129.202 187.282ZM127.892 185.937H127.839C127.674 185.99 127.679 186.059 127.685 186.081C127.685 186.359 128.483 186.861 129.026 187.031C128.881 186.602 128.605 186.228 128.238 185.963C128.129 185.916 128.007 185.907 127.892 185.937Z" fill="#263238"/>
<path d="M135.019 188.554L131.011 189.146L131.139 179.928L135.153 179.336L135.019 188.554Z" fill="#CE7A63"/>
<path d="M130.41 186.765H135.664C135.741 186.762 135.816 186.789 135.875 186.839C135.934 186.89 135.973 186.96 135.983 187.037L136.515 190.588C136.526 190.678 136.518 190.768 136.491 190.853C136.464 190.939 136.42 191.018 136.36 191.085C136.301 191.152 136.228 191.206 136.147 191.243C136.065 191.28 135.977 191.299 135.887 191.299C134.317 191.272 132.06 191.181 130.085 191.181C127.78 191.181 125.71 191.304 123.006 191.304C121.371 191.304 121.068 189.75 121.744 189.499C124.767 188.361 126.386 188.169 129.446 187.074C129.748 186.918 130.074 186.814 130.41 186.765Z" fill="#263238"/>
<path opacity="0.2" d="M131.139 179.934L131.075 184.682L135.083 184.089L135.153 179.341L131.139 179.934Z" fill="black"/>
<path d="M132.965 187.047C132.938 185.344 133.471 182.604 129.239 184.281C126.716 185.274 130.138 188.196 130.138 188.196L132.965 187.047Z" fill="#263238"/>
<path d="M130.229 86.7278C130.229 86.7278 128.1 119.076 128.701 130.58C129.287 141.481 129.617 172.403 129.691 180.516C129.694 180.763 129.749 181.006 129.853 181.229C129.957 181.453 130.107 181.652 130.293 181.813C130.479 181.974 130.698 182.094 130.933 182.164C131.169 182.234 131.417 182.253 131.661 182.22L134.493 181.835C134.871 181.783 135.221 181.608 135.491 181.337C135.76 181.066 135.933 180.714 135.983 180.334C137.814 166.016 139.991 143.927 140.465 132.102C140.997 118.606 144.308 86.7064 144.308 86.7064L130.229 86.7278Z" fill="url(#paint0_linear_98_304)"/>
<path opacity="0.2" d="M130.229 86.7278C130.229 86.7278 128.1 119.076 128.701 130.58C129.287 141.481 129.617 172.403 129.691 180.516C129.694 180.763 129.749 181.006 129.853 181.229C129.957 181.453 130.107 181.652 130.293 181.813C130.479 181.974 130.698 182.094 130.933 182.164C131.169 182.234 131.417 182.253 131.661 182.22L134.493 181.835C134.871 181.783 135.221 181.608 135.491 181.337C135.76 181.066 135.933 180.714 135.983 180.334C137.814 166.016 139.991 143.927 140.465 132.102C140.997 118.606 144.308 86.7064 144.308 86.7064L130.229 86.7278Z" fill="white"/>
<path d="M156.951 187.154C156.488 187.363 156.009 187.502 155.764 187.357C155.701 187.319 155.653 187.261 155.625 187.193C155.597 187.125 155.592 187.05 155.609 186.978C155.615 186.914 155.635 186.851 155.667 186.795C155.699 186.738 155.743 186.69 155.796 186.652C156.328 186.214 157.925 186.375 157.978 186.38C157.998 186.381 158.016 186.389 158.032 186.401C158.047 186.414 158.058 186.43 158.063 186.449C158.067 186.468 158.066 186.488 158.059 186.506C158.053 186.523 158.041 186.539 158.026 186.551C157.686 186.784 157.326 186.986 156.951 187.154ZM156.067 186.7C156.012 186.727 155.961 186.759 155.913 186.797C155.88 186.819 155.853 186.848 155.832 186.882C155.812 186.916 155.8 186.955 155.796 186.994C155.796 187.128 155.828 187.176 155.859 187.192C156.131 187.357 157.052 186.946 157.691 186.551C157.145 186.495 156.594 186.546 156.067 186.7Z" fill="#263238"/>
<path d="M157.983 186.561C157.451 186.561 156.248 186.161 156.136 185.712C156.11 185.611 156.136 185.456 156.354 185.328C156.434 185.281 156.522 185.252 156.614 185.241C156.705 185.23 156.798 185.237 156.887 185.264C157.515 185.44 158.042 186.38 158.063 186.423C158.071 186.437 158.075 186.454 158.075 186.471C158.075 186.487 158.071 186.504 158.063 186.519C158.053 186.531 158.041 186.541 158.027 186.548C158.014 186.556 157.999 186.56 157.983 186.561ZM156.456 185.493H156.408C156.259 185.579 156.275 185.643 156.28 185.664C156.349 185.931 157.206 186.289 157.77 186.364C157.552 185.964 157.216 185.643 156.807 185.445C156.697 185.416 156.581 185.425 156.477 185.472L156.456 185.493Z" fill="#263238"/>
<path d="M164.19 186.791L160.416 188.078L157.904 179.17L161.683 177.883L164.19 186.791Z" fill="#CE7A63"/>
<path opacity="0.2" d="M140.162 98.2957C139.06 102.723 139.353 121.122 140.492 131.493C140.763 125.421 141.53 116.059 142.307 107.46L140.162 98.2957Z" fill="black"/>
<path d="M158.957 185.921L164.131 184.986C164.209 184.971 164.289 184.983 164.358 185.021C164.427 185.059 164.481 185.121 164.509 185.194L165.867 188.559C165.9 188.641 165.914 188.729 165.909 188.817C165.903 188.905 165.878 188.991 165.835 189.067C165.792 189.144 165.733 189.211 165.661 189.261C165.589 189.312 165.506 189.346 165.42 189.36C163.871 189.616 161.624 189.926 159.681 190.279C157.414 190.69 157.398 190.813 154.736 191.304C153.139 191.598 152.453 190.14 153.054 189.771C155.758 188.126 155.316 188.014 158.063 186.401C158.331 186.19 158.634 186.027 158.957 185.921Z" fill="#263238"/>
<path opacity="0.2" d="M157.904 179.17L159.197 183.763L162.976 182.476L161.683 177.883L157.904 179.17Z" fill="black"/>
<path d="M137.825 86.7278C137.825 86.7278 140.582 119.082 142.706 130.58C144.75 141.646 153.996 173.167 156.722 180.329C156.88 180.747 157.193 181.088 157.596 181.28C157.999 181.472 158.46 181.5 158.883 181.36L161.614 180.468C162.015 180.336 162.355 180.063 162.569 179.698C162.784 179.333 162.859 178.902 162.779 178.486C160.065 164.424 155.742 143.873 154.667 132.102C153.437 118.606 151.633 86.7064 151.633 86.7064L137.825 86.7278Z" fill="url(#paint1_linear_98_304)"/>
<path opacity="0.2" d="M137.825 86.7278C137.825 86.7278 140.582 119.082 142.706 130.58C144.75 141.646 153.996 173.167 156.722 180.329C156.88 180.747 157.193 181.088 157.596 181.28C157.999 181.472 158.46 181.5 158.883 181.36L161.614 180.468C162.015 180.336 162.355 180.063 162.569 179.698C162.784 179.333 162.859 178.902 162.779 178.486C160.065 164.424 155.742 143.873 154.667 132.102C153.437 118.606 151.633 86.7064 151.633 86.7064L137.825 86.7278Z" fill="white"/>
<path d="M138.911 37.3743C138.943 37.7001 138.799 37.9778 138.586 37.9992C138.373 38.0206 138.182 37.7749 138.15 37.4651C138.118 37.1554 138.261 36.867 138.474 36.8456C138.687 36.8243 138.879 37.0539 138.911 37.3743Z" fill="#263238"/>
<path d="M135.281 37.7374C135.312 38.0579 135.169 38.3356 134.956 38.3569C134.743 38.3783 134.551 38.1326 134.519 37.8229C134.487 37.5131 134.631 37.2194 134.844 37.198C135.057 37.1766 135.249 37.4116 135.281 37.7374Z" fill="#263238"/>
<path d="M136.451 37.7802C136.165 38.8043 135.738 39.7837 135.185 40.6908C135.42 40.8261 135.682 40.9081 135.952 40.9311C136.223 40.9542 136.495 40.9178 136.75 40.8244L136.451 37.7802Z" fill="#BA4D3C"/>
<path d="M137.756 41.6255C137.731 41.627 137.707 41.619 137.688 41.6031C137.669 41.5872 137.657 41.5646 137.654 41.54C137.653 41.5274 137.654 41.5146 137.658 41.5024C137.661 41.4901 137.667 41.4787 137.675 41.4688C137.683 41.4588 137.693 41.4506 137.704 41.4445C137.715 41.4384 137.727 41.4345 137.74 41.4332C138.14 41.4034 138.528 41.279 138.871 41.0702C139.214 40.8613 139.503 40.574 139.714 40.2316C139.726 40.209 139.746 40.1919 139.77 40.1839C139.794 40.1759 139.82 40.1777 139.842 40.1888C139.864 40.2012 139.88 40.2211 139.888 40.2448C139.896 40.2684 139.895 40.2941 139.885 40.317C139.66 40.6902 139.35 41.0037 138.979 41.2314C138.609 41.4591 138.189 41.5943 137.756 41.6255Z" fill="#263238"/>
<path d="M139.885 36.0925C139.856 36.095 139.826 36.091 139.799 36.0808C139.771 36.0707 139.746 36.0546 139.725 36.0338C139.571 35.8496 139.375 35.705 139.154 35.6121C138.932 35.5192 138.692 35.4807 138.453 35.4997C138.404 35.5075 138.353 35.4957 138.313 35.4668C138.272 35.4378 138.244 35.3941 138.235 35.3448C138.23 35.3202 138.231 35.295 138.236 35.2706C138.241 35.2461 138.251 35.223 138.266 35.2026C138.28 35.1822 138.299 35.1649 138.32 35.1517C138.341 35.1385 138.365 35.1297 138.389 35.1259C138.686 35.0946 138.986 35.135 139.263 35.2437C139.541 35.3524 139.789 35.5263 139.986 35.7507C140.005 35.7682 140.019 35.7893 140.03 35.8127C140.04 35.8361 140.045 35.8614 140.045 35.8869C140.045 35.9124 140.04 35.9377 140.03 35.9611C140.019 35.9845 140.005 36.0056 139.986 36.0231C139.96 36.0557 139.925 36.0798 139.885 36.0925Z" fill="#263238"/>
<path d="M133.524 36.6052C133.496 36.6108 133.467 36.6108 133.439 36.6052C133.393 36.5842 133.358 36.5462 133.34 36.4993C133.322 36.4524 133.323 36.4003 133.343 36.3542C133.458 36.076 133.638 35.8296 133.868 35.6355C134.098 35.4413 134.37 35.305 134.663 35.238C134.689 35.2288 134.717 35.2255 134.745 35.2282C134.773 35.231 134.799 35.2398 134.823 35.254C134.847 35.2682 134.868 35.2874 134.884 35.3104C134.9 35.3334 134.91 35.3596 134.915 35.3871C134.92 35.4146 134.918 35.4428 134.911 35.4698C134.904 35.4967 134.891 35.5218 134.873 35.5432C134.855 35.5645 134.833 35.5818 134.807 35.5936C134.782 35.6055 134.755 35.6117 134.727 35.6118C134.496 35.6684 134.281 35.7792 134.1 35.9352C133.92 36.0912 133.779 36.2878 133.689 36.5091C133.673 36.5385 133.649 36.563 133.62 36.5799C133.591 36.5969 133.557 36.6056 133.524 36.6052Z" fill="#263238"/>
<path d="M146.273 50.2294C148.359 50.2294 153.39 50.3415 153.879 52.2108C154.369 54.08 153.831 57.1082 153.166 58.8867C154.145 61.5997 153.831 65.6053 152.9 66.855C153.922 69.8778 153.256 72.1049 152.634 73.173C153.123 74.3747 153.565 77.8034 152.815 79.4911C153.432 81.8944 154.14 85.8999 153.033 86.7064C151.526 87.7745 147.518 88.3086 144.686 87.6357C141.854 86.9627 142.967 81.2268 143.185 79.8916C141.945 78.2467 143.276 73.3066 143.276 73.3066C142.653 71.9287 143.584 66.7642 143.584 66.7642C142.834 65.5198 143.808 58.7531 143.808 58.7531C142.999 57.3966 142.648 50.2294 146.273 50.2294Z" fill="#263238"/>
<path d="M130.948 51.4738C132.587 50.7475 138.08 49.4283 137.016 50.881C135.472 52.9905 136.42 55.2123 135.504 57.8239C136.313 60.318 136.036 64.393 135.286 65.8349C135.952 67.927 135.885 70.185 135.094 72.2331C135.493 73.3012 135.861 76.6499 135.238 78.5084C135.77 80.7729 136.175 85.3392 135.238 86.37C134.564 87.1152 133.67 87.6253 132.687 87.826C131.704 88.0267 130.682 87.9077 129.771 87.4862C128.467 86.9521 127.887 82.5834 128.531 81.0773C127.264 78.3055 128.297 74.1985 128.297 74.1985C127.072 72.0622 128.02 67.5814 128.02 67.5814C126.806 63.6079 128.297 59.2125 128.297 59.2125C127.642 58.0215 128.334 52.6327 130.948 51.4738Z" fill="#263238"/>
<path d="M134.562 51.9651C134.344 51.8028 134.166 51.592 134.044 51.3491C133.921 51.1063 133.856 50.8381 133.854 50.5658C133.85 50.3833 133.881 50.2017 133.948 50.0315C134.014 49.8614 134.113 49.7061 134.239 49.5745C134.365 49.4429 134.516 49.3377 134.683 49.2649C134.85 49.1922 135.029 49.1533 135.211 49.1505C135.834 49.2024 136.44 49.3843 136.989 49.6846C137.825 50.0958 138.134 50.475 138.171 51.0945C138.208 51.7141 136.686 53.8931 135.85 53.375C135.014 52.857 135.03 52.4991 134.562 51.9651Z" fill="#263238"/>
<path opacity="0.2" d="M150.712 59.6023C151.127 57.8024 152.181 57.9627 153.23 58.6997L153.155 58.908C154.135 61.621 153.821 65.6266 152.889 66.8763C152.948 67.0472 153.001 67.2181 153.049 67.4104C151.745 66.1286 149.935 62.9989 150.712 59.6023Z" fill="black"/>
<path d="M150.898 63.9977L147.353 65.6159L147.007 77.0877L137.388 83.3097L148.157 87.1817L151.079 98.2797L154.625 96.6561L156.605 78.5671L150.898 63.9977Z" fill="url(#paint2_linear_98_304)"/>
<path opacity="0.3" d="M150.898 63.9977L147.353 65.6159L147.007 77.0877L137.388 83.3097L148.157 87.1817L151.079 98.2797L154.625 96.6561L156.605 78.5671L150.898 63.9977Z" fill="black"/>
<path d="M173.048 88.2231L169.502 89.8467L158.084 89.2058L162.859 85.964L173.048 88.2231Z" fill="url(#paint3_linear_98_304)"/>
<path opacity="0.3" d="M173.048 88.2231L169.502 89.8467L158.084 89.2058L162.859 85.964L173.048 88.2231Z" fill="black"/>
<path d="M150.898 63.9977L159.761 71.2504L170.743 68.0353L166.607 78.738L173.048 88.2231L161.624 87.5822L154.625 96.6561L151.702 85.5634L140.934 81.6861L150.547 75.4695L150.898 63.9977Z" fill="url(#paint4_linear_98_304)"/>
<path d="M156.466 86.8025L156.386 90.4289L160.645 90.1885C160.645 90.1885 161.22 87.9187 158.771 86.3379L156.466 86.8025Z" fill="#CE7A63"/>
<path d="M157.754 94.0605L160.703 92.3515L160.65 90.1885L156.386 90.4288L157.754 94.0605Z" fill="#CE7A63"/>
<path d="M154.023 52.104C154.369 52.4244 154.63 52.6701 154.917 52.9532C155.205 53.2362 155.45 53.4872 155.748 53.7863C156.28 54.3471 156.812 54.9239 157.345 55.506C158.386 56.7009 159.365 57.9487 160.278 59.2445C161.243 60.5985 162.099 62.0271 162.838 63.5171C163.728 65.2421 164.298 67.1151 164.52 69.0447C164.553 69.3301 164.569 69.6173 164.568 69.9046V70.3532V70.663L164.478 71.8753C164.382 72.6711 164.286 73.4775 164.153 74.2305C163.906 75.7539 163.583 77.2637 163.184 78.7541C162.418 81.6844 161.403 84.5433 160.15 87.2992C159.945 87.7634 159.583 88.1393 159.127 88.3597C158.672 88.58 158.153 88.6305 157.663 88.502C157.174 88.3735 156.746 88.0744 156.457 87.6583C156.167 87.2422 156.035 86.7363 156.083 86.2311V86.1457C156.312 83.3258 156.615 80.4525 156.77 77.6646C156.876 76.2654 156.919 74.8821 156.951 73.5309C156.951 72.8526 156.951 72.1904 156.951 71.5282L156.908 70.5668V70.3318V70.2304C156.897 70.1546 156.881 70.0797 156.86 70.006C156.584 69.0664 156.183 68.1683 155.668 67.3357C155.019 66.2707 154.308 65.2453 153.539 64.2648C152.735 63.2394 151.873 62.2193 150.978 61.2152C150.531 60.7132 150.068 60.2219 149.61 59.7252L148.918 58.9935L148.263 58.3152L148.157 58.2031C147.398 57.4017 146.978 56.3364 146.985 55.2309C146.993 54.1254 147.427 53.0659 148.197 52.2749C148.967 51.4839 150.012 51.023 151.113 50.9892C152.215 50.9553 153.286 51.3511 154.103 52.0933L154.023 52.104Z" fill="#263238"/>
<path d="M147.87 51.4951C148.402 51.4203 148.54 50.1706 148.114 49.3588C147.768 48.6912 146.517 48.782 145.4 49.0704C144.5 49.2715 143.639 49.6178 142.85 50.0958C141.721 50.7207 142.131 51.4737 142.392 52.0665C142.653 52.6593 143.148 54.0212 144.213 53.3002C145.277 52.5792 147.124 51.6072 147.87 51.4951Z" fill="#263238"/>
<path d="M161.294 185.686C161.214 183.982 161.662 181.232 157.483 183.015C154.987 184.083 158.494 186.903 158.494 186.903L161.294 185.686Z" fill="#263238"/>
<path d="M108.958 52.8997H114.675C114.834 52.9055 114.987 52.9597 115.115 53.0551C115.242 53.1505 115.337 53.2826 115.388 53.4338L118.38 64.1152C118.399 64.1774 118.404 64.2434 118.393 64.3077C118.382 64.372 118.355 64.4327 118.316 64.4849C118.277 64.537 118.227 64.5791 118.168 64.6077C118.11 64.6363 118.045 64.6505 117.98 64.6493H112.258C112.101 64.641 111.949 64.5858 111.823 64.4906C111.697 64.3955 111.602 64.2648 111.55 64.1152L108.559 53.4338C108.538 53.3715 108.533 53.3051 108.543 53.2404C108.554 53.1756 108.58 53.1143 108.619 53.0618C108.658 53.0093 108.709 52.9671 108.768 52.9389C108.827 52.9106 108.892 52.8972 108.958 52.8997Z" fill="url(#paint5_linear_98_304)"/>
<path d="M112.072 60.099L110.874 55.9172L108.788 56.7504L109.543 61.6905L112.072 60.099Z" fill="#CE7A63"/>
<path opacity="0.3" d="M115.133 53.2843C115.189 53.2877 115.242 53.3085 115.286 53.3439C115.33 53.3793 115.362 53.4276 115.377 53.4819L118.374 64.1153C118.383 64.1372 118.387 64.1612 118.384 64.1848C118.382 64.2085 118.373 64.2311 118.359 64.2504C118.345 64.2697 118.326 64.2851 118.305 64.2951C118.283 64.3051 118.26 64.3094 118.236 64.3075C118.18 64.3053 118.126 64.2855 118.083 64.251C118.039 64.2165 118.007 64.169 117.991 64.1153L115.005 53.4659C114.999 53.4454 114.998 53.4239 115.002 53.403C115.006 53.3821 115.014 53.3623 115.026 53.3449C115.038 53.3276 115.054 53.3131 115.073 53.3027C115.091 53.2922 115.111 53.2859 115.133 53.2843Z" fill="black"/>
<path d="M44.9055 11.4025H40.876V11.9365H44.9055V11.4025Z" fill="url(#paint6_linear_98_304)"/>
<path d="M25.9713 17.4588H25.439C25.4403 15.8576 26.0731 14.322 27.1991 13.1873C28.3251 12.0526 29.8528 11.4109 31.4487 11.4025H38.6881V11.9365H31.4487C29.994 11.945 28.6017 12.5304 27.5755 13.5649C26.5493 14.5995 25.9727 15.9993 25.9713 17.4588Z" fill="url(#paint7_linear_98_304)"/>
<path d="M94.2982 13.2717H31.4487C29.1468 13.2717 27.2808 15.144 27.2808 17.4535V27.8358C27.2808 30.1454 29.1468 32.0176 31.4487 32.0176H94.2982C96.6001 32.0176 98.4661 30.1454 98.4661 27.8358V17.4535C98.4661 15.144 96.6001 13.2717 94.2982 13.2717Z" fill="url(#paint8_linear_98_304)"/>
<path d="M54.3698 19.8141L55.2853 21.678L57.3347 21.9771L55.8549 23.4244L56.2009 25.4699L54.3698 24.5032L52.5386 25.4699L52.89 23.4244L51.4102 21.9771L53.4542 21.678L54.3698 19.8141Z" fill="white"/>
<path d="M62.6845 19.8141L63.6 21.678L65.6494 21.9771L64.1696 23.4244L64.5156 25.4699L62.6845 24.5032L60.8533 25.4699L61.2047 23.4244L59.7249 21.9771L61.7689 21.678L62.6845 19.8141Z" fill="white"/>
<path d="M70.9992 19.8141L71.9147 21.678L73.9641 21.9771L72.4843 23.4244L72.8303 25.4699L70.9992 24.5032L69.168 25.4699L69.5194 23.4244L68.0396 21.9771L70.0836 21.678L70.9992 19.8141Z" fill="white"/>
<path d="M79.3136 19.8141L80.2292 21.678L82.2786 21.9771L80.7988 23.4244L81.1448 25.4699L79.3136 24.5032L77.4825 25.4699L77.8338 23.4244L76.354 21.9771L78.3981 21.678L79.3136 19.8141Z" fill="white"/>
<path opacity="0.3" d="M87.6285 21.0264L88.065 21.9183C88.104 21.9957 88.1612 22.0624 88.2317 22.1127C88.3022 22.1629 88.3838 22.1952 88.4695 22.2067L89.449 22.3509L88.741 23.0452C88.6794 23.1052 88.6332 23.1793 88.6063 23.2611C88.5794 23.343 88.5727 23.4301 88.5866 23.5151L88.7516 24.4978L87.8787 24.0599C87.8005 24.0223 87.7151 24.0022 87.6285 24.0011C87.5433 24.0008 87.4594 24.0209 87.3836 24.0599L86.5053 24.5245L86.6544 23.5258C86.6683 23.4408 86.6616 23.3536 86.6347 23.2718C86.6078 23.19 86.5616 23.1159 86.5 23.0558L85.792 22.3615L86.7715 22.2173C86.8596 22.207 86.9437 22.1747 87.0162 22.1234C87.0888 22.0721 87.1473 22.0034 87.1867 21.9236L87.6232 21.0317M87.6232 19.8247L86.7076 21.6833L84.6582 21.9824L86.1433 23.435L85.792 25.4805L87.6232 24.5138L89.4543 25.4805L89.103 23.435L90.5881 21.9824L88.5387 21.6833L87.6232 19.8247Z" fill="white"/>
<path opacity="0.2" d="M40.2636 29.0588C43.7944 29.0588 46.6566 26.1871 46.6566 22.6447C46.6566 19.1022 43.7944 16.2305 40.2636 16.2305C36.7328 16.2305 33.8706 19.1022 33.8706 22.6447C33.8706 26.1871 36.7328 29.0588 40.2636 29.0588Z" fill="white"/>
<path d="M45.5442 22.6447C45.5456 23.8232 45.1548 24.9685 44.4339 25.899C43.7131 26.8295 42.7033 27.4919 41.5646 27.7814C40.4259 28.0708 39.2235 27.9707 38.148 27.4968C37.0725 27.023 36.1854 26.2025 35.6273 25.1655C35.2055 24.3929 34.9857 23.5256 34.9886 22.6447C35.0321 21.2694 35.6072 19.965 36.5923 19.0076C37.5773 18.0502 38.8949 17.5149 40.2664 17.5149C41.6378 17.5149 42.9555 18.0502 43.9405 19.0076C44.9255 19.965 45.5007 21.2694 45.5442 22.6447Z" fill="white"/>
<path d="M44.9053 25.1655C44.454 26.0056 43.7845 26.7076 42.9678 27.1968C42.151 27.6861 41.2175 27.9444 40.2663 27.9444C39.315 27.9444 38.3815 27.6861 37.5648 27.1968C36.748 26.7076 36.0785 26.0056 35.6272 25.1655C37.0007 24.2458 38.615 23.755 40.2663 23.755C41.9175 23.755 43.5318 24.2458 44.9053 25.1655Z" fill="#263238"/>
<path d="M42.6165 20.8555C42.6165 21.3223 42.4785 21.7787 42.22 22.1669C41.9614 22.5551 41.594 22.8577 41.1641 23.0364C40.7341 23.215 40.2611 23.2618 39.8047 23.1707C39.3483 23.0796 38.9291 22.8548 38.6 22.5247C38.271 22.1945 38.0469 21.7739 37.9561 21.316C37.8653 20.8581 37.9119 20.3834 38.09 19.9521C38.2681 19.5208 38.5696 19.1521 38.9565 18.8927C39.3435 18.6333 39.7983 18.4949 40.2637 18.4949C40.8877 18.4949 41.4861 18.7436 41.9274 19.1863C42.3686 19.629 42.6165 20.2294 42.6165 20.8555Z" fill="#FFC3BD"/>
<path d="M89.9652 78.4124H79.3137V78.9464H89.9652V78.4124Z" fill="url(#paint9_linear_98_304)"/>
<path d="M94.2982 58.3313H31.4487C29.1468 58.3313 27.2808 60.2035 27.2808 62.5131V72.8954C27.2808 75.2049 29.1468 77.0772 31.4487 77.0772H94.2982C96.6001 77.0772 98.4661 75.2049 98.4661 72.8954V62.5131C98.4661 60.2035 96.6001 58.3313 94.2982 58.3313Z" fill="url(#paint10_linear_98_304)"/>
<path d="M54.3698 64.8789L55.2853 66.7375L57.3347 67.0365L55.8549 68.4892L56.2009 70.5347L54.3698 69.568L52.5386 70.5347L52.89 68.4892L51.4102 67.0365L53.4542 66.7375L54.3698 64.8789Z" fill="white"/>
<path d="M62.6845 64.8789L63.6 66.7375L65.6494 67.0365L64.1696 68.4892L64.5156 70.5347L62.6845 69.568L60.8533 70.5347L61.2047 68.4892L59.7249 67.0365L61.7689 66.7375L62.6845 64.8789Z" fill="white"/>
<path d="M70.9992 64.8789L71.9147 66.7375L73.9641 67.0365L72.4843 68.4892L72.8303 70.5347L70.9992 69.568L69.168 70.5347L69.5194 68.4892L68.0396 67.0365L70.0836 66.7375L70.9992 64.8789Z" fill="white"/>
<path d="M79.3136 64.8789L80.2292 66.7375L82.2786 67.0365L80.7988 68.4892L81.1448 70.5347L79.3136 69.568L77.4825 70.5347L77.8338 68.4892L76.354 67.0365L78.3981 66.7375L79.3136 64.8789Z" fill="white"/>
<path d="M87.6283 64.8789L88.5439 66.7375L90.5933 67.0365L89.1135 68.4892L89.4595 70.5347L87.6283 69.568L85.7972 70.5347L86.1485 68.4892L84.6687 67.0365L86.7128 66.7375L87.6283 64.8789Z" fill="white"/>
<path opacity="0.2" d="M44.7877 72.2441C47.2843 69.7392 47.2843 65.678 44.7877 63.1731C42.2911 60.6682 38.2432 60.6682 35.7466 63.1731C33.25 65.678 33.25 69.7392 35.7466 72.2441C38.2432 74.749 42.2911 74.749 44.7877 72.2441Z" fill="white"/>
<path d="M45.5442 67.7041C45.5467 68.8831 45.1569 70.0292 44.4364 70.9606C43.7159 71.892 42.7061 72.5554 41.5672 72.8455C40.4282 73.1357 39.2253 73.0359 38.1493 72.5622C37.0732 72.0884 36.1856 71.2677 35.6273 70.2303C35.2055 69.4557 34.9858 68.5868 34.9886 67.7041C35.0321 66.3288 35.6072 65.0245 36.5923 64.0671C37.5773 63.1097 38.8949 62.5743 40.2664 62.5743C41.6378 62.5743 42.9555 63.1097 43.9405 64.0671C44.9255 65.0245 45.5007 66.3288 45.5442 67.7041Z" fill="white"/>
<path opacity="0.5" d="M44.9053 70.2303C44.4528 71.069 43.7828 71.7694 42.9662 72.2575C42.1497 72.7456 41.2168 73.0033 40.2663 73.0033C39.3157 73.0033 38.3828 72.7456 37.5663 72.2575C36.7497 71.7694 36.0797 71.069 35.6272 70.2303C37.0007 69.3106 38.615 68.8198 40.2663 68.8198C41.9175 68.8198 43.5318 69.3106 44.9053 70.2303Z" fill="url(#paint11_linear_98_304)"/>
<path d="M42.6165 65.8937C42.6175 66.3608 42.4804 66.8177 42.2225 67.2066C41.9647 67.5955 41.5976 67.8989 41.1677 68.0784C40.7379 68.2579 40.2647 68.3054 39.8079 68.2149C39.3512 68.1244 38.9315 67.9 38.6019 67.5701C38.2723 67.2402 38.0477 66.8196 37.9565 66.3615C37.8653 65.9035 37.9116 65.4286 38.0895 64.9969C38.2674 64.5653 38.569 64.1963 38.956 63.9367C39.343 63.677 39.7981 63.5385 40.2637 63.5385C40.8868 63.5385 41.4844 63.7864 41.9255 64.228C42.3666 64.6695 42.6151 65.2686 42.6165 65.8937Z" fill="#FFB573"/>
<path d="M94.2982 35.8042H31.4487C29.1468 35.8042 27.2808 37.6764 27.2808 39.986V50.3683C27.2808 52.6778 29.1468 54.5501 31.4487 54.5501H94.2982C96.6001 54.5501 98.4661 52.6778 98.4661 50.3683V39.986C98.4661 37.6764 96.6001 35.8042 94.2982 35.8042Z" fill="url(#paint12_linear_98_304)"/>
<path d="M96.5339 46.7793L92.0625 54.55H103.241L96.5339 46.7793Z" fill="url(#paint13_linear_98_304)"/>
<path d="M54.3698 42.3466L55.2853 44.2105L57.3347 44.5042L55.8549 45.9569L56.2009 48.0024L54.3698 47.0357L52.5386 48.0024L52.89 45.9569L51.4102 44.5042L53.4542 44.2105L54.3698 42.3466Z" fill="white"/>
<path d="M62.6845 42.3466L63.6 44.2105L65.6494 44.5042L64.1696 45.9569L64.5156 48.0024L62.6845 47.0357L60.8533 48.0024L61.2047 45.9569L59.7249 44.5042L61.7689 44.2105L62.6845 42.3466Z" fill="white"/>
<path opacity="0.3" d="M70.9991 43.5535L71.4356 44.4454C71.4739 44.5238 71.5309 44.5916 71.6014 44.6428C71.6719 44.694 71.7539 44.7271 71.8401 44.7391L72.8142 44.8886L72.1063 45.5829C72.0447 45.643 71.9985 45.7171 71.9716 45.7989C71.9447 45.8807 71.9379 45.9679 71.9519 46.0529L72.1169 47.0356L71.2439 46.571C71.1671 46.5293 71.0811 46.5073 70.9938 46.5069C70.908 46.5066 70.8236 46.5287 70.7489 46.571L69.8706 47.0356L70.0356 46.0529C70.0496 45.9679 70.0428 45.8807 70.016 45.7989C69.9891 45.7171 69.9429 45.643 69.8812 45.5829L69.1733 44.8886L70.1527 44.7444C70.2389 44.7324 70.3209 44.6993 70.3915 44.6481C70.462 44.5969 70.5189 44.5291 70.5573 44.4507L70.9938 43.5588M70.9938 42.3518L70.0782 44.2157L68.0288 44.5148L69.5139 45.9621L69.1626 48.0076L70.9938 47.0409L72.8249 48.0076L72.4736 45.9621L73.9587 44.5148L71.9093 44.2157L70.9938 42.3518Z" fill="white"/>
<path opacity="0.3" d="M79.3138 43.5536L79.7503 44.4455C79.7887 44.5239 79.8456 44.5917 79.9161 44.6429C79.9867 44.6941 80.0686 44.7272 80.1549 44.7392L81.1343 44.8834L80.4263 45.5777C80.3647 45.6377 80.3185 45.7118 80.2916 45.7936C80.2648 45.8755 80.258 45.9626 80.272 46.0477L80.437 47.0303L79.564 46.5657C79.4871 46.5241 79.4012 46.5021 79.3138 46.5016C79.2281 46.5013 79.1437 46.5234 79.069 46.5657L78.1907 47.0303L78.3557 46.0477C78.3696 45.9626 78.3629 45.8755 78.336 45.7936C78.3091 45.7118 78.2629 45.6377 78.2013 45.5777L77.4933 44.8834L78.4728 44.7392C78.559 44.7272 78.641 44.6941 78.7115 44.6429C78.782 44.5917 78.839 44.5239 78.8773 44.4455L79.3138 43.5536ZM79.3138 42.3466L78.3983 44.2105L76.3489 44.5095L77.834 45.9569L77.4827 48.0024L79.3138 47.0357L81.145 48.0024L80.799 45.9569L82.2841 44.5095L80.2347 44.2105L79.3191 42.3466H79.3138Z" fill="white"/>
<path opacity="0.3" d="M87.6283 43.5536L88.0648 44.4455C88.1031 44.5239 88.1601 44.5917 88.2306 44.6429C88.3011 44.6941 88.3831 44.7272 88.4693 44.7392L89.4488 44.8834L88.7408 45.5777C88.6792 45.6377 88.633 45.7118 88.6061 45.7936C88.5792 45.8755 88.5725 45.9626 88.5864 46.0477L88.7514 47.0303L87.8785 46.5657C87.8016 46.5241 87.7157 46.5021 87.6283 46.5016C87.5425 46.5013 87.4581 46.5234 87.3834 46.5657L86.5051 47.0303L86.6701 46.0477C86.6841 45.9626 86.6774 45.8755 86.6505 45.7936C86.6236 45.7118 86.5774 45.6377 86.5158 45.5777L85.8078 44.8834L86.7872 44.7392C86.8735 44.7272 86.9554 44.6941 87.026 44.6429C87.0965 44.5917 87.1534 44.5239 87.1918 44.4455L87.6283 43.5536ZM87.6283 42.3466L86.7127 44.2105L84.6633 44.5095L86.1485 45.9569L85.7971 48.0024L87.6283 47.0357L89.4594 48.0024L89.1081 45.9569L90.5932 44.5095L88.5439 44.2105L87.6283 42.3466Z" fill="white"/>
<path opacity="0.2" d="M40.2636 51.5913C43.7944 51.5913 46.6566 48.7196 46.6566 45.1771C46.6566 41.6347 43.7944 38.7629 40.2636 38.7629C36.7328 38.7629 33.8706 41.6347 33.8706 45.1771C33.8706 48.7196 36.7328 51.5913 40.2636 51.5913Z" fill="white"/>
<path d="M45.5441 45.1771C45.5455 46.3556 45.1548 47.5009 44.4339 48.4314C43.713 49.3619 42.7032 50.0244 41.5645 50.3138C40.4259 50.6032 39.2235 50.5031 38.148 50.0292C37.0725 49.5554 36.1854 48.7349 35.6273 47.6979C35.2055 46.9253 34.9857 46.058 34.9885 45.1771C34.966 44.4676 35.0859 43.7607 35.3411 43.0986C35.5962 42.4364 35.9813 41.8325 36.4737 41.3226C36.966 40.8127 37.5554 40.4073 38.2069 40.1305C38.8584 39.8536 39.5588 39.7109 40.2663 39.7109C40.9739 39.7109 41.6742 39.8536 42.3257 40.1305C42.9773 40.4073 43.5667 40.8127 44.059 41.3226C44.5513 41.8325 44.9365 42.4364 45.1916 43.0986C45.4467 43.7607 45.5666 44.4676 45.5441 45.1771Z" fill="white"/>
<path d="M44.9053 47.6979C44.4528 48.5366 43.7828 49.237 42.9662 49.7252C42.1497 50.2133 41.2168 50.471 40.2663 50.471C39.3157 50.471 38.3828 50.2133 37.5663 49.7252C36.7497 49.237 36.0797 48.5366 35.6272 47.6979C37.0007 46.7783 38.615 46.2875 40.2663 46.2875C41.9175 46.2875 43.5318 46.7783 44.9053 47.6979Z" fill="url(#paint14_linear_98_304)"/>
<path d="M42.6165 43.3666C42.6165 43.8335 42.4785 44.2899 42.22 44.6781C41.9614 45.0663 41.594 45.3688 41.1641 45.5475C40.7341 45.7262 40.2611 45.7729 39.8047 45.6818C39.3483 45.5907 38.9291 45.3659 38.6 45.0358C38.271 44.7056 38.0469 44.285 37.9561 43.8271C37.8653 43.3692 37.9119 42.8946 38.09 42.4632C38.2681 42.0319 38.5696 41.6632 38.9565 41.4038C39.3435 41.1444 39.7983 41.006 40.2637 41.006C40.5729 41.0053 40.8791 41.0659 41.1649 41.1842C41.4507 41.3026 41.7103 41.4765 41.9289 41.6958C42.1475 41.9152 42.3208 42.1757 42.4388 42.4624C42.5568 42.7491 42.6172 43.0564 42.6165 43.3666Z" fill="#B55B52"/>
</g>
<defs>
<linearGradient id="paint0_linear_98_304" x1="144.308" y1="86.7064" x2="125.626" y2="87.2905" gradientUnits="userSpaceOnUse">
<stop stop-color="#24ADB6"/>
<stop offset="1" stop-color="#49D1A4"/>
</linearGradient>
<linearGradient id="paint1_linear_98_304" x1="162.81" y1="86.7064" x2="133.151" y2="88.1929" gradientUnits="userSpaceOnUse">
<stop stop-color="#24ADB6"/>
<stop offset="1" stop-color="#49D1A4"/>
</linearGradient>
<linearGradient id="paint2_linear_98_304" x1="156.605" y1="63.9977" x2="133.993" y2="66.4064" gradientUnits="userSpaceOnUse">
<stop stop-color="#24ADB6"/>
<stop offset="1" stop-color="#49D1A4"/>
</linearGradient>
<linearGradient id="paint3_linear_98_304" x1="173.048" y1="85.964" x2="161.458" y2="94.4523" gradientUnits="userSpaceOnUse">
<stop stop-color="#24ADB6"/>
<stop offset="1" stop-color="#49D1A4"/>
</linearGradient>
<linearGradient id="paint4_linear_98_304" x1="173.048" y1="63.9977" x2="136.12" y2="70.8985" gradientUnits="userSpaceOnUse">
<stop stop-color="#24ADB6"/>
<stop offset="1" stop-color="#49D1A4"/>
</linearGradient>
<linearGradient id="paint5_linear_98_304" x1="118.398" y1="52.8994" x2="106.955" y2="54.7245" gradientUnits="userSpaceOnUse">
<stop stop-color="#24ADB6"/>
<stop offset="1" stop-color="#49D1A4"/>
</linearGradient>
<linearGradient id="paint6_linear_98_304" x1="44.9055" y1="11.4025" x2="43.3364" y2="13.6525" gradientUnits="userSpaceOnUse">
<stop stop-color="#24ADB6"/>
<stop offset="1" stop-color="#49D1A4"/>
</linearGradient>
<linearGradient id="paint7_linear_98_304" x1="38.6881" y1="11.4025" x2="25.2447" y2="16.9915" gradientUnits="userSpaceOnUse">
<stop stop-color="#24ADB6"/>
<stop offset="1" stop-color="#49D1A4"/>
</linearGradient>
<linearGradient id="paint8_linear_98_304" x1="98.4661" y1="13.2717" x2="42.7627" y2="53.4708" gradientUnits="userSpaceOnUse">
<stop stop-color="#24ADB6"/>
<stop offset="1" stop-color="#49D1A4"/>
</linearGradient>
<linearGradient id="paint9_linear_98_304" x1="89.9652" y1="78.4124" x2="89.1402" y2="81.5391" gradientUnits="userSpaceOnUse">
<stop stop-color="#24ADB6"/>
<stop offset="1" stop-color="#49D1A4"/>
</linearGradient>
<linearGradient id="paint10_linear_98_304" x1="98.4661" y1="58.3313" x2="42.7627" y2="98.5303" gradientUnits="userSpaceOnUse">
<stop stop-color="#24ADB6"/>
<stop offset="1" stop-color="#49D1A4"/>
</linearGradient>
<linearGradient id="paint11_linear_98_304" x1="44.9053" y1="68.8198" x2="35.5295" y2="72.7715" gradientUnits="userSpaceOnUse">
<stop stop-color="#24ADB6"/>
<stop offset="1" stop-color="#49D1A4"/>
</linearGradient>
<linearGradient id="paint12_linear_98_304" x1="98.4661" y1="35.8042" x2="42.7627" y2="76.0032" gradientUnits="userSpaceOnUse">
<stop stop-color="#24ADB6"/>
<stop offset="1" stop-color="#49D1A4"/>
</linearGradient>
<linearGradient id="paint13_linear_98_304" x1="103.241" y1="46.7793" x2="90.8632" y2="50.1631" gradientUnits="userSpaceOnUse">
<stop stop-color="#24ADB6"/>
<stop offset="1" stop-color="#49D1A4"/>
</linearGradient>
<linearGradient id="paint14_linear_98_304" x1="44.9053" y1="46.2875" x2="35.5295" y2="50.2391" gradientUnits="userSpaceOnUse">
<stop stop-color="#24ADB6"/>
<stop offset="1" stop-color="#49D1A4"/>
</linearGradient>
<clipPath id="clip0_98_304">
<rect width="224" height="199" fill="white"/>
</clipPath>
</defs>
</svg>
