<svg width="225" height="199" viewBox="0 0 225 199" fill="none" xmlns="http://www.w3.org/2000/svg">
<g clip-path="url(#clip0_98_437)">
<path d="M219.381 183.746H201.672V183.88H219.381V183.746Z" fill="#EBEBEB"/>
<path d="M155.924 185.201H151.278V185.334H155.924V185.201Z" fill="#EBEBEB"/>
<path d="M201.137 178.782H190.876V178.916H201.137V178.782Z" fill="#EBEBEB"/>
<path d="M29.9689 179.681H6.87598V179.815H29.9689V179.681Z" fill="#EBEBEB"/>
<path d="M38.1175 179.681H34.7329V179.815H38.1175V179.681Z" fill="#EBEBEB"/>
<path d="M99.2158 181.938H49.1267V182.072H99.2158V181.938Z" fill="#EBEBEB"/>
<path d="M106.3 151.285H3.05304C2.24332 151.285 1.46677 150.963 0.894215 150.391C0.321659 149.818 0 149.041 0 148.231V3.05416C0.00704996 2.24882 0.331818 1.47887 0.903612 0.911891C1.47541 0.344917 2.24793 0.0268246 3.05304 0.0268555H106.3C106.701 0.0268555 107.098 0.10585 107.469 0.259331C107.839 0.412811 108.176 0.637771 108.459 0.921366C108.743 1.20496 108.968 1.54164 109.121 1.91217C109.274 2.28271 109.353 2.67984 109.353 3.08091V148.231C109.353 148.632 109.274 149.029 109.121 149.4C108.968 149.77 108.743 150.107 108.459 150.391C108.176 150.674 107.839 150.899 107.469 151.053C107.098 151.206 106.701 151.285 106.3 151.285ZM3.05304 0.133828C2.27921 0.135242 1.53748 0.443372 0.990295 0.990735C0.443113 1.5381 0.135084 2.28008 0.133671 3.05416V148.231C0.135084 149.005 0.443113 149.747 0.990295 150.295C1.53748 150.842 2.27921 151.15 3.05304 151.152H106.3C107.074 151.15 107.816 150.842 108.363 150.295C108.91 149.747 109.218 149.005 109.22 148.231V3.05416C109.218 2.28008 108.91 1.5381 108.363 0.990735C107.816 0.443372 107.074 0.135242 106.3 0.133828H3.05304Z" fill="#EBEBEB"/>
<path d="M221.952 151.285H118.705C117.895 151.285 117.119 150.963 116.546 150.391C115.974 149.818 115.652 149.041 115.652 148.231V3.05404C115.659 2.2487 115.984 1.47874 116.555 0.911769C117.127 0.344795 117.9 0.0267025 118.705 0.0267334H221.952C222.762 0.0267334 223.538 0.348499 224.111 0.921244C224.684 1.49399 225.005 2.2708 225.005 3.08078V148.231C225.005 149.041 224.684 149.818 224.111 150.391C223.538 150.963 222.762 151.285 221.952 151.285ZM118.705 0.133706C117.931 0.13512 117.189 0.44325 116.642 0.990613C116.095 1.53798 115.787 2.27995 115.786 3.05404V148.231C115.787 149.005 116.095 149.747 116.642 150.295C117.189 150.842 117.931 151.15 118.705 151.151H221.952C222.726 151.15 223.468 150.842 224.015 150.295C224.562 149.747 224.87 149.005 224.872 148.231V3.05404C224.87 2.27995 224.562 1.53798 224.015 0.990613C223.468 0.44325 222.726 0.13512 221.952 0.133706H118.705Z" fill="#EBEBEB"/>
<path d="M45.3732 95.5367L44.1113 95.7934C43.8219 95.8578 43.5676 96.0291 43.399 96.2731C43.2305 96.517 43.1603 96.8157 43.2024 97.1092L44.1006 102.993C44.1195 103.134 44.1674 103.269 44.2414 103.391C44.3154 103.512 44.4138 103.617 44.5304 103.699C44.6471 103.78 44.7794 103.836 44.9189 103.864C45.0585 103.892 45.2022 103.89 45.3411 103.859L46.6029 103.597C46.8919 103.534 47.1462 103.364 47.3148 103.121C47.4834 102.877 47.5538 102.58 47.5119 102.287L46.6136 96.4032C46.5948 96.2621 46.5469 96.1265 46.4729 96.005C46.3989 95.8835 46.3005 95.7786 46.1838 95.6972C46.0672 95.6157 45.9349 95.5594 45.7953 95.5317C45.6558 95.5041 45.512 95.5058 45.3732 95.5367Z" fill="#E6E6E6"/>
<path d="M45.3732 95.5367L44.1113 95.7934C43.8219 95.8578 43.5676 96.0291 43.399 96.2731C43.2305 96.517 43.1603 96.8157 43.2024 97.1092L44.1006 102.993C44.1195 103.134 44.1674 103.269 44.2414 103.391C44.3154 103.512 44.4138 103.617 44.5304 103.699C44.6471 103.78 44.7794 103.836 44.9189 103.864C45.0585 103.892 45.2022 103.89 45.3411 103.859L46.6029 103.597C46.8919 103.534 47.1462 103.364 47.3148 103.121C47.4834 102.877 47.5538 102.58 47.5119 102.287L46.6136 96.4032C46.5948 96.2621 46.5469 96.1265 46.4729 96.005C46.3989 95.8835 46.3005 95.7786 46.1838 95.6972C46.0672 95.6157 45.9349 95.5594 45.7953 95.5317C45.6558 95.5041 45.512 95.5058 45.3732 95.5367Z" fill="#E6E6E6"/>
<path d="M49.1641 103.297C48.7917 103.3 48.4313 103.166 48.1499 102.922C47.8686 102.678 47.6855 102.34 47.6349 101.971L46.7955 96.478C46.7334 96.0406 46.8061 95.5947 47.004 95.1997L48.7204 91.7927L48.33 89.236L50.041 88.8777C50.4031 88.7987 50.7817 88.8573 51.1029 89.0422C51.4241 89.2271 51.665 89.525 51.7787 89.8779L52.2707 91.3701C52.3563 91.6325 52.3729 91.9125 52.3188 92.1831L51.9766 93.8946L55.3932 93.1886L56.639 94.3065L56.5481 99.6925C56.5437 100.026 56.4515 100.353 56.2808 100.639L55.9118 101.276C55.7768 101.509 55.5943 101.712 55.376 101.87C55.1577 102.029 54.9085 102.14 54.6446 102.196L49.4903 103.265C49.3828 103.286 49.2736 103.297 49.1641 103.297ZM48.9342 89.6532L49.2764 91.8782L47.4799 95.4404C47.3307 95.7359 47.2766 96.0703 47.3248 96.3978L48.1643 101.891C48.1824 102.029 48.2294 102.162 48.3022 102.281C48.375 102.4 48.4719 102.502 48.5867 102.581C48.8208 102.737 49.107 102.795 49.3834 102.741L54.5377 101.672C54.7285 101.63 54.9085 101.55 55.066 101.435C55.2235 101.319 55.3551 101.172 55.452 101.003L55.8209 100.372C55.942 100.164 56.0082 99.928 56.0134 99.6872L56.099 94.5418L55.2381 93.7663L51.2922 94.5846L51.7948 92.0815C51.8296 91.9034 51.8186 91.7193 51.7627 91.5466L51.2708 90.0597C51.1978 89.8313 51.0422 89.6384 50.8346 89.5187C50.6269 89.3991 50.3821 89.3612 50.148 89.4125L48.9342 89.6532Z" fill="#E6E6E6"/>
<path d="M50.1266 37.9697L48.8701 37.6969C48.5802 37.638 48.2789 37.6899 48.0255 37.8424C47.772 37.9949 47.585 38.2369 47.5013 38.5206L45.9293 44.2543C45.8903 44.391 45.8797 44.5343 45.8983 44.6753C45.917 44.8162 45.9643 44.9518 46.0375 45.0737C46.1107 45.1956 46.2082 45.3011 46.3239 45.3837C46.4395 45.4663 46.5709 45.5243 46.7099 45.554L47.9664 45.8268C48.257 45.8855 48.5589 45.8329 48.8125 45.6793C49.066 45.5258 49.2526 45.2825 49.3352 44.9978L50.9072 39.2694C50.9462 39.1327 50.9568 38.9894 50.9381 38.8485C50.9195 38.7075 50.8721 38.5719 50.7989 38.45C50.7257 38.3282 50.6283 38.2226 50.5126 38.14C50.397 38.0574 50.2656 37.9994 50.1266 37.9697Z" fill="#E6E6E6"/>
<path d="M50.1266 37.9697L48.8701 37.6969C48.5802 37.638 48.2789 37.6899 48.0255 37.8424C47.772 37.9949 47.585 38.2369 47.5013 38.5206L45.9293 44.2543C45.8903 44.391 45.8797 44.5343 45.8983 44.6753C45.917 44.8162 45.9643 44.9518 46.0375 45.0737C46.1107 45.1956 46.2082 45.3011 46.3239 45.3837C46.4395 45.4663 46.5709 45.5243 46.7099 45.554L47.9664 45.8268C48.257 45.8855 48.5589 45.8329 48.8125 45.6793C49.066 45.5258 49.2526 45.2825 49.3352 44.9978L50.9072 39.2694C50.9462 39.1327 50.9568 38.9894 50.9381 38.8485C50.9195 38.7075 50.8721 38.5719 50.7989 38.45C50.7257 38.3282 50.6283 38.2226 50.5126 38.14C50.397 38.0574 50.2656 37.9994 50.1266 37.9697Z" fill="#E6E6E6"/>
<path d="M56.2753 47.8806C56.1406 47.8796 56.0063 47.8653 55.8743 47.8378L50.736 46.7093C50.5283 46.666 50.3318 46.5804 50.1588 46.4576C49.9857 46.3348 49.8399 46.1776 49.7305 45.9958C49.6211 45.814 49.5503 45.6116 49.5228 45.4012C49.4953 45.1907 49.5115 44.9769 49.5704 44.7731L51.0408 39.4245C51.1627 39.0034 51.4109 38.63 51.7519 38.3547L54.7087 35.9372L55.3931 33.4501L57.1041 33.8245C57.4641 33.8992 57.7839 34.1044 58.002 34.4005C58.22 34.6967 58.3211 35.0629 58.2858 35.4291L58.1254 36.9908C58.0967 37.2657 57.9952 37.5279 57.8313 37.7503L56.8261 39.1731L60.2374 39.9219L60.9164 41.4516L58.6333 46.3349C58.4925 46.6355 58.2771 46.8951 58.0077 47.089L57.4089 47.5169C57.0781 47.7533 56.6818 47.8804 56.2753 47.8806ZM55.7781 34.0545L55.1792 36.226L52.0834 38.7452C51.8254 38.9543 51.6385 39.2383 51.5488 39.5582L50.073 44.9068C50.0353 45.0407 50.0253 45.181 50.0437 45.319C50.0621 45.4569 50.1084 45.5897 50.18 45.7091C50.2513 45.828 50.3466 45.9308 50.4599 46.0109C50.5731 46.091 50.7017 46.1467 50.8376 46.1744L55.9813 47.3029C56.172 47.3419 56.3688 47.3411 56.5592 47.3006C56.7496 47.2601 56.9296 47.1808 57.0881 47.0676L57.6816 46.6397C57.8775 46.503 58.0356 46.3191 58.1414 46.1049L60.3175 41.4409L59.847 40.3712L55.9064 39.5047L57.3875 37.4241C57.4948 37.2764 57.5612 37.1029 57.58 36.9213L57.7404 35.3595C57.7738 35.118 57.7138 34.8729 57.5727 34.6741C57.4316 34.4753 57.22 34.3379 56.9811 34.2898L55.7781 34.0545Z" fill="#E6E6E6"/>
<path d="M24.0661 66.5687H22.7829C22.486 66.5738 22.2021 66.6915 21.9886 66.898C21.7752 67.1046 21.6482 67.3845 21.6333 67.6812L21.3767 73.6181C21.3714 73.76 21.3955 73.9015 21.4474 74.0336C21.4993 74.1658 21.5779 74.2858 21.6782 74.3862C21.7786 74.4866 21.8986 74.5652 22.0307 74.6171C22.1628 74.669 22.3042 74.6931 22.446 74.6879H23.7293C24.0262 74.6828 24.3101 74.5651 24.5235 74.3586C24.737 74.152 24.864 73.872 24.8789 73.5754L25.1355 67.6384C25.1407 67.4965 25.1167 67.3551 25.0648 67.2229C25.0129 67.0908 24.9343 66.9707 24.834 66.8703C24.7336 66.7699 24.6136 66.6913 24.4815 66.6394C24.3494 66.5875 24.208 66.5635 24.0661 66.5687Z" fill="#E6E6E6"/>
<path d="M24.0661 66.5687H22.7829C22.486 66.5738 22.2021 66.6915 21.9886 66.898C21.7752 67.1046 21.6482 67.3845 21.6333 67.6812L21.3767 73.6181C21.3714 73.76 21.3955 73.9015 21.4474 74.0336C21.4993 74.1658 21.5779 74.2858 21.6782 74.3862C21.7786 74.4866 21.8986 74.5652 22.0307 74.6171C22.1628 74.669 22.3042 74.6931 22.446 74.6879H23.7293C24.0262 74.6828 24.3101 74.5651 24.5235 74.3586C24.737 74.152 24.864 73.872 24.8789 73.5754L25.1355 67.6384C25.1407 67.4965 25.1167 67.3551 25.0648 67.2229C25.0129 67.0908 24.9343 66.9707 24.834 66.8703C24.7336 66.7699 24.6136 66.6913 24.4815 66.6394C24.3494 66.5875 24.208 66.5635 24.0661 66.5687Z" fill="#E6E6E6"/>
<path d="M26.5951 74.9499C26.3865 74.9515 26.1797 74.9107 25.9873 74.83C25.7949 74.7492 25.6209 74.6302 25.4759 74.4802C25.3309 74.3301 25.2179 74.1521 25.1438 73.9571C25.0696 73.762 25.0359 73.5539 25.0446 73.3453L25.2798 67.7935C25.3021 67.3515 25.4609 66.9273 25.7343 66.5793L28.0762 63.5681L28.1885 60.9847H29.9369C30.3074 60.9768 30.6677 61.1072 30.9474 61.3504C31.2271 61.5936 31.4063 61.9323 31.4501 62.3005L31.6425 63.8569C31.6753 64.1313 31.6366 64.4095 31.5303 64.6646L30.8619 66.2691L34.3587 66.237L35.3586 67.5795L34.2251 72.8479C34.1541 73.1733 34.0014 73.4752 33.7813 73.7251L33.2947 74.2599C33.1158 74.461 32.8969 74.6225 32.652 74.7339C32.407 74.8454 32.1415 74.9044 31.8725 74.9071L26.6112 74.9553L26.5951 74.9499ZM28.7018 61.4928L28.6055 63.7392L26.1567 66.8842C25.9514 67.1446 25.8319 67.4623 25.8145 67.7935L25.5739 73.3453C25.5706 73.4864 25.5965 73.6267 25.6498 73.7574C25.7032 73.8881 25.7829 74.0064 25.884 74.1048C26.0832 74.3025 26.352 74.4139 26.6326 74.415L31.8938 74.3669C32.0888 74.364 32.2809 74.3201 32.4577 74.2381C32.6346 74.1561 32.7922 74.0378 32.9204 73.8909L33.407 73.356C33.5676 73.1755 33.6782 72.9561 33.7278 72.7195L34.7972 67.6865L34.1021 66.7612L30.0706 66.7986L31.049 64.4399C31.1193 64.271 31.1451 64.0868 31.1239 63.905L30.9314 62.3433C30.9025 62.1079 30.7877 61.8915 30.6091 61.7356C30.4305 61.5796 30.2007 61.4951 29.9636 61.4982L28.7018 61.4928Z" fill="#E6E6E6"/>
<path d="M189.497 100.81L189.791 100.698L189.941 100.645C190.133 100.58 190.32 100.504 190.502 100.415L190.62 100.366C191.132 100.102 191.586 99.738 191.957 99.2967C192.005 99.2379 192.053 99.1791 192.096 99.1149C192.541 98.5281 192.803 97.823 192.85 97.0878C192.85 97.0075 192.85 96.9273 192.85 96.8471C192.847 96.2159 192.636 95.6032 192.251 95.1034C191.262 93.8412 189.363 93.6326 187.797 94.5418C187.374 92.7822 185.92 91.5466 184.321 91.7017C183.693 91.768 183.103 92.0386 182.642 92.4719L182.471 92.6377C181.973 93.1809 181.645 93.8575 181.525 94.5846C181.525 94.6595 181.498 94.7344 181.488 94.8093C181.453 95.1275 181.453 95.4485 181.488 95.7667C181.513 96.0253 181.562 96.2812 181.632 96.5315L181.675 96.6385C181.736 96.8385 181.813 97.0335 181.905 97.2215L181.963 97.3605L182.086 97.6547L183.284 100.522L183.407 100.816L184.268 102.864L186.337 102.073L186.631 101.96L189.497 100.81Z" fill="#EBEBEB"/>
<path d="M205.302 71.7889L205.538 71.5803L205.661 71.4787C205.817 71.3532 205.966 71.2174 206.104 71.0722L206.201 70.9813C206.375 70.7881 206.532 70.5806 206.671 70.3608C206.839 70.0878 206.977 69.7973 207.083 69.4944C207.11 69.4248 207.131 69.35 207.152 69.2804C207.361 68.5716 207.361 67.8177 207.152 67.1089C207.131 67.0339 207.104 66.9605 207.072 66.8896C206.852 66.2978 206.442 65.7956 205.907 65.4615C204.543 64.6111 202.698 65.0764 201.533 66.4671C200.533 64.9641 198.736 64.3276 197.293 65.0069C196.727 65.2864 196.267 65.7426 195.983 66.3066C195.945 66.3761 195.913 66.4457 195.881 66.5206C195.606 67.1982 195.53 67.9405 195.662 68.66C195.662 68.7349 195.689 68.8097 195.71 68.8846C195.783 69.197 195.89 69.5002 196.031 69.7885C196.142 70.0216 196.274 70.2436 196.427 70.4518L196.501 70.5373C196.629 70.7039 196.769 70.8612 196.919 71.008L197.02 71.1203L197.239 71.3503L199.378 73.6288L199.592 73.8588L201.11 75.4901L202.773 74.0246L203.014 73.8214L205.302 71.7889Z" fill="#EBEBEB"/>
<path d="M188.144 40.5958L188.289 40.3124L188.358 40.1733C188.458 40.0013 188.545 39.8226 188.62 39.6384L188.674 39.5208C188.761 39.2775 188.828 39.0269 188.872 38.772C188.928 38.4544 188.948 38.1313 188.93 37.8092V37.5846C188.861 36.8503 188.581 36.1518 188.123 35.5735L187.968 35.397C187.543 34.9355 186.98 34.624 186.364 34.5091C184.76 34.2364 183.241 35.3596 182.691 37.0872C181.193 36.0656 179.285 36.1351 178.21 37.3278C177.789 37.7964 177.534 38.3902 177.483 39.018C177.483 39.0982 177.483 39.1785 177.483 39.2587C177.478 39.9962 177.688 40.7193 178.087 41.3393C178.124 41.4035 178.167 41.4677 178.21 41.5265C178.396 41.7876 178.609 42.0279 178.846 42.2432C179.038 42.4189 179.246 42.5765 179.466 42.7139L179.568 42.762C179.75 42.8686 179.939 42.9615 180.135 43.0401L180.268 43.1043L180.557 43.238L183.375 44.5538L183.664 44.6875L185.674 45.6289L186.674 43.6499L186.813 43.3664L188.144 40.5958Z" fill="#EBEBEB"/>
<path d="M47.2712 131.87C41.5234 136.309 39.8605 146.017 39.5718 152.863C39.5718 153.483 38.5719 153.489 38.5987 152.863C38.9034 145.61 40.5503 135.838 46.7793 131.03C47.2766 130.65 47.7631 131.495 47.2712 131.87Z" fill="#F5F5F5"/>
<path d="M33.9469 126.906C35.4119 126.74 36.6203 128.238 37.2833 129.34C40.593 135.063 39.3098 143.695 38.6842 149.836C38.62 150.451 37.6469 150.456 37.7111 149.836C38.3206 143.861 39.4274 136.074 36.7326 130.399C36.2674 129.425 35.2783 127.725 33.9469 127.88C33.3213 127.955 33.3267 126.981 33.9469 126.906Z" fill="#E6E6E6"/>
<path d="M30.3807 134.769C36.5295 133.25 37.2995 146.889 37.4813 149.836C37.5187 150.456 36.5456 150.456 36.5082 149.836C36.2622 145.851 36.0644 140.149 33.1878 136.956C32.605 136.309 31.5837 135.469 30.6373 135.705C30.0331 135.854 29.7712 134.918 30.3807 134.769Z" fill="#E6E6E6"/>
<path d="M48.6135 141.385C43.5233 137.641 41.8711 147.52 41.5877 150.376C41.5289 150.991 40.5558 150.996 40.6146 150.376C40.9354 147.135 41.4273 141.283 45.1648 139.909C45.824 139.694 46.525 139.64 47.2094 139.75C47.8939 139.861 48.542 140.134 49.1 140.545C49.5973 140.914 49.1 141.759 48.6135 141.385Z" fill="#E6E6E6"/>
<path d="M28.3809 143.171C28.7666 142.767 29.2404 142.457 29.7653 142.266C30.2902 142.075 30.8521 142.008 31.4072 142.07C34.5138 142.604 35.3746 147.274 35.8451 149.702C35.9627 150.317 35.0217 150.579 34.9041 149.964C34.4977 147.867 32.5461 140.337 29.0707 143.861C28.6269 144.311 27.9425 143.621 28.3809 143.171Z" fill="#F5F5F5"/>
<path d="M46.6992 175.081H31.9901C30.6671 173.964 29.6037 172.572 28.8741 171.001C28.1446 169.431 27.7664 167.72 27.7661 165.988C27.7661 161.811 30.108 149.295 30.108 149.295H48.5813C48.5813 149.295 50.9232 161.811 50.9232 165.988C50.9229 167.72 50.5448 169.431 49.8152 171.001C49.0857 172.572 48.0223 173.964 46.6992 175.081Z" fill="#EBEBEB"/>
<path d="M49.0411 146.188C44.6032 146.188 40.2616 144.391 39.3419 142.171C38.4223 139.951 41.2775 138.154 45.7153 138.154C47.1455 138.155 48.5699 138.334 49.9554 138.689C51.1832 138.313 52.4624 138.133 53.7463 138.154C58.1841 138.154 62.5258 139.951 63.4454 142.171C64.3651 144.391 61.5099 146.188 57.072 146.188H49.0411Z" fill="#F5F5F5"/>
<path d="M20.0933 137.587C16.4682 137.587 14.9978 136.116 16.8103 134.298C18.6229 132.479 23.0341 131.014 26.6646 131.014C27.6321 130.984 28.5967 131.134 29.5091 131.458C30.7369 131.175 31.9919 131.026 33.2519 131.014C36.8824 131.014 38.3527 132.485 36.5348 134.298C34.7169 136.111 30.3111 137.587 26.6806 137.587H20.0933Z" fill="#F0F0F0"/>
<path d="M53.4682 134.277C48.902 134.277 43.352 132.426 41.0689 130.142C38.7858 127.858 40.6358 126.008 45.202 126.008C46.7808 126.024 48.3532 126.212 49.8912 126.569C51.0377 126.159 52.2512 125.969 53.4682 126.008C58.0344 126.008 63.5844 127.864 65.8675 130.142C68.1506 132.421 66.3006 134.277 61.7344 134.277H53.4682Z" fill="#EBEBEB"/>
<path d="M28.0869 128.96C25.8038 128.96 24.3441 128.035 24.8093 126.896C25.2744 125.756 27.5148 124.826 29.7979 124.826C30.4589 124.815 31.1175 124.909 31.7495 125.104C32.4621 124.92 33.195 124.827 33.931 124.826C36.2141 124.826 37.6737 125.751 37.2086 126.896C36.7434 128.04 34.5031 128.96 32.22 128.96H28.0869Z" fill="#F0F0F0"/>
<path d="M25.4564 145.509C23.1733 145.509 20.9383 144.583 20.4678 143.439C19.9973 142.294 21.4623 141.374 23.7454 141.374C24.4813 141.376 25.2142 141.469 25.9269 141.652C26.5588 141.458 27.2174 141.364 27.8785 141.374C30.1562 141.374 32.3912 142.299 32.8671 143.439C33.343 144.578 31.8726 145.509 29.5895 145.509H25.4564Z" fill="#EBEBEB"/>
<path d="M29.6909 151.601C29.9422 150.194 30.108 149.285 30.108 149.285H48.5813C48.5813 149.285 48.747 150.194 48.9983 151.601H29.6909Z" fill="#F5F5F5"/>
<path d="M28.8889 132.255C28.8889 132.255 23.8201 133.945 22.2161 136.732C22.2161 136.732 22.4727 132.672 28.8889 132.255Z" fill="#FAFAFA"/>
<path d="M31.2735 125.628C30.452 126.098 29.7264 126.718 29.1348 127.457C29.2763 126.978 29.5536 126.55 29.9332 126.226C30.3128 125.901 30.7784 125.693 31.2735 125.628Z" fill="#FAFAFA"/>
<path d="M50.9233 127.457C50.9233 127.457 56.4145 129.468 59.7937 133.271C59.7937 133.271 57.1738 127.987 50.9233 127.457Z" fill="#FAFAFA"/>
<path d="M50.9233 139.689C53.2044 140.639 55.1879 142.185 56.6658 144.166C56.6658 144.166 55.6499 140.363 50.9233 139.689Z" fill="#E6E6E6"/>
<path d="M26.0125 142.476C26.421 142.688 26.7681 143.001 27.0201 143.386C27.272 143.771 27.4204 144.215 27.4508 144.674C26.7789 144.087 26.2814 143.327 26.0125 142.476Z" fill="#FAFAFA"/>
<path d="M198.255 27.0318C204.028 27.0318 208.708 22.3503 208.708 16.5753C208.708 10.8003 204.028 6.11877 198.255 6.11877C192.482 6.11877 187.802 10.8003 187.802 16.5753C187.802 22.3503 192.482 27.0318 198.255 27.0318Z" fill="#EBEBEB"/>
<path d="M198.287 27.2671C195.451 27.2671 192.731 26.1401 190.726 24.1339C188.72 22.1278 187.594 19.407 187.594 16.5699C187.594 13.7328 188.72 11.0119 190.726 9.00582C192.731 6.9997 195.451 5.87268 198.287 5.87268V6.34336C195.577 6.34336 192.978 7.42023 191.062 9.33707C189.146 11.2539 188.069 13.8537 188.069 16.5645C188.069 19.2754 189.146 21.8752 191.062 23.792C192.978 25.7088 195.577 26.7857 198.287 26.7857V27.2671Z" fill="white"/>
<path d="M198.287 27.2671V26.7964C200.997 26.7964 203.596 25.7196 205.512 23.8027C207.428 21.8859 208.505 19.2861 208.505 16.5753C208.505 13.8644 207.428 11.2646 205.512 9.3478C203.596 7.43096 200.997 6.35409 198.287 6.35409V5.91016C201.123 5.91016 203.843 7.03718 205.849 9.04329C207.854 11.0494 208.981 13.7703 208.981 16.6074C208.981 19.4444 207.854 22.1653 205.849 24.1714C203.843 26.1775 201.123 27.3046 198.287 27.3046V27.2671Z" fill="white"/>
<path d="M203.746 16.5753H203.276C203.276 13.1148 201.517 8.47753 198.159 6.32204L198.41 5.9209C201.912 8.17266 203.746 12.9864 203.746 16.5753Z" fill="white"/>
<path d="M198.41 26.9142L198.159 26.5184C201.517 24.3789 203.276 19.7257 203.276 16.2598H203.746C203.746 19.8487 201.912 24.6624 198.41 26.9142Z" fill="white"/>
<path d="M193.293 16.5753H192.823C192.823 12.9811 194.657 8.16731 198.17 5.9209L198.421 6.3167C195.052 8.47218 193.293 13.1094 193.293 16.5753Z" fill="white"/>
<path d="M198.159 26.9088C194.657 24.6624 192.812 19.8487 192.812 16.2544H193.283C193.283 19.7203 195.042 24.3575 198.399 26.513L198.159 26.9088Z" fill="white"/>
<path d="M198.517 6.11877H198.047V27.0318H198.517V6.11877Z" fill="white"/>
<path d="M207.126 10.7667H189.433V11.2374H207.126V10.7667Z" fill="white"/>
<path d="M208.73 16.5165H187.834V16.9872H208.73V16.5165Z" fill="white"/>
<path d="M206.896 22.2609H189.668V22.7315H206.896V22.2609Z" fill="white"/>
<path d="M112.503 199C169.758 199 216.172 196.289 216.172 192.945C216.172 189.601 169.758 186.891 112.503 186.891C55.2475 186.891 8.83301 189.601 8.83301 192.945C8.83301 196.289 55.2475 199 112.503 199Z" fill="#F5F5F5"/>
<path d="M174.526 186.768C173.67 192.33 171.97 196.144 165.158 196.144C158.346 196.144 156.641 192.33 155.785 186.768C154.716 179.959 158.459 168.615 165.158 168.615C171.858 168.615 175.595 179.959 174.526 186.768Z" fill="#263238"/>
<path d="M164.966 170.112C163.724 169.935 162.534 169.497 161.473 168.826C160.412 168.156 159.505 167.269 158.812 166.224C157.26 163.957 156.563 161.212 156.844 158.479C159.517 157.548 162.319 157.661 164.217 160.378C165.136 161.812 165.686 163.452 165.816 165.151C165.947 166.849 165.655 168.554 164.966 170.112Z" fill="url(#paint0_linear_98_437)"/>
<path opacity="0.3" d="M164.966 170.112C163.724 169.935 162.534 169.497 161.473 168.826C160.412 168.156 159.505 167.269 158.812 166.224C157.26 163.957 156.563 161.212 156.844 158.479C159.517 157.548 162.319 157.661 164.217 160.378C165.136 161.812 165.686 163.452 165.816 165.151C165.947 166.849 165.655 168.554 164.966 170.112Z" fill="black"/>
<path d="M160.09 166.935C159.592 163.555 156.005 161.255 152.604 161.298C150.404 161.382 148.268 162.067 146.428 163.277C146.003 163.544 145.646 163.907 145.386 164.337C145.126 164.767 144.971 165.252 144.933 165.753C144.895 166.255 144.975 166.758 145.167 167.222C145.359 167.687 145.657 168.099 146.038 168.427C147.399 169.61 149.093 170.343 150.888 170.524C154.112 170.84 157.822 169.251 160.09 166.935Z" fill="url(#paint1_linear_98_437)"/>
<path opacity="0.2" d="M160.09 166.935C159.592 163.555 156.005 161.255 152.604 161.298C150.404 161.382 148.268 162.067 146.428 163.277C146.003 163.544 145.646 163.907 145.386 164.337C145.126 164.767 144.971 165.252 144.933 165.753C144.895 166.255 144.975 166.758 145.167 167.222C145.359 167.687 145.657 168.099 146.038 168.427C147.399 169.61 149.093 170.343 150.888 170.524C154.112 170.84 157.822 169.251 160.09 166.935Z" fill="black"/>
<path d="M162.48 169.535C162.46 168.981 162.311 168.44 162.042 167.955C161.774 167.47 161.395 167.056 160.937 166.746C160.478 166.435 159.952 166.238 159.403 166.17C158.853 166.101 158.295 166.164 157.774 166.352C155.759 167.063 154.016 168.385 152.786 170.134C151.557 171.882 150.903 173.97 150.914 176.108C150.91 176.684 151.031 177.254 151.268 177.779C151.506 178.304 151.855 178.771 152.291 179.148C152.726 179.525 153.239 179.803 153.792 179.962C154.346 180.122 154.927 180.159 155.497 180.071C156.506 179.917 157.471 179.553 158.331 179.002C160.236 177.667 161.594 175.687 162.153 173.428C162.448 172.153 162.558 170.841 162.48 169.535Z" fill="url(#paint2_linear_98_437)"/>
<path d="M162.48 169.535C162.46 168.981 162.311 168.44 162.042 167.955C161.774 167.47 161.395 167.056 160.937 166.746C160.478 166.435 159.952 166.238 159.403 166.17C158.853 166.101 158.295 166.164 157.774 166.352C155.759 167.063 154.016 168.385 152.786 170.134C151.557 171.882 150.903 173.97 150.914 176.108C150.91 176.684 151.031 177.254 151.268 177.779C151.506 178.304 151.855 178.771 152.291 179.148C152.726 179.525 153.239 179.803 153.792 179.962C154.346 180.122 154.927 180.159 155.497 180.071C156.506 179.917 157.471 179.553 158.331 179.002C160.236 177.667 161.594 175.687 162.153 173.428C162.448 172.153 162.558 170.841 162.48 169.535Z" fill="url(#paint3_linear_98_437)"/>
<path d="M175.36 159.998C173.231 159.175 170.865 159.211 168.762 160.1C167.99 160.431 167.269 160.872 166.623 161.41C166.079 161.853 165.662 162.433 165.415 163.09C165.169 163.747 165.101 164.458 165.219 165.15C165.337 165.842 165.636 166.491 166.087 167.029C166.538 167.567 167.123 167.976 167.784 168.213C168.557 168.506 169.381 168.641 170.208 168.611C171.034 168.58 171.846 168.385 172.596 168.037C175.67 166.539 177.109 162.929 175.36 159.998Z" fill="url(#paint4_linear_98_437)"/>
<path opacity="0.3" d="M175.36 159.998C173.231 159.175 170.865 159.211 168.762 160.1C167.99 160.431 167.269 160.872 166.623 161.41C166.079 161.853 165.662 162.433 165.415 163.09C165.169 163.747 165.101 164.458 165.219 165.15C165.337 165.842 165.636 166.491 166.087 167.029C166.538 167.567 167.123 167.976 167.784 168.213C168.557 168.506 169.381 168.641 170.208 168.611C171.034 168.58 171.846 168.385 172.596 168.037C175.67 166.539 177.109 162.929 175.36 159.998Z" fill="black"/>
<path d="M172.553 163.266C171.66 164.042 170.746 164.871 170.313 166.095C170.142 166.581 170.088 167.099 170.152 167.609C170.372 169.144 171.575 169.636 172.665 169.93C176.361 170.911 180.263 170.794 183.894 169.593C184.227 169.487 184.528 169.3 184.772 169.049C185.017 168.799 185.195 168.492 185.294 168.157C185.392 167.821 185.406 167.466 185.335 167.124C185.265 166.781 185.111 166.461 184.888 166.192C183.724 164.715 182.225 163.538 180.515 162.758C178.215 161.784 174.526 161.554 172.553 163.266Z" fill="url(#paint5_linear_98_437)"/>
<path opacity="0.2" d="M172.553 163.266C171.66 164.042 170.746 164.871 170.313 166.095C170.142 166.581 170.088 167.099 170.152 167.609C170.372 169.144 171.575 169.636 172.665 169.93C176.361 170.911 180.263 170.794 183.894 169.593C184.227 169.487 184.528 169.3 184.772 169.049C185.017 168.799 185.195 168.492 185.294 168.157C185.392 167.821 185.406 167.466 185.335 167.124C185.265 166.781 185.111 166.461 184.888 166.192C183.724 164.715 182.225 163.538 180.515 162.758C178.215 161.784 174.526 161.554 172.553 163.266Z" fill="black"/>
<path d="M173.991 167.138C173.216 166.953 172.399 167.077 171.715 167.486C171.03 167.895 170.533 168.555 170.329 169.326C170.058 170.393 170.097 171.516 170.441 172.562C170.822 173.566 171.406 174.479 172.157 175.246C172.907 176.013 173.809 176.616 174.804 177.017C175.869 177.467 176.996 177.755 178.146 177.873C178.546 177.922 178.952 177.88 179.333 177.75C179.714 177.621 180.061 177.406 180.348 177.123C180.635 176.84 180.854 176.496 180.99 176.117C181.125 175.737 181.173 175.332 181.129 174.931C180.958 173.197 180.341 171.537 179.338 170.112C178.108 168.449 176.045 167.641 173.991 167.138Z" fill="url(#paint6_linear_98_437)"/>
<path d="M173.991 167.138C173.216 166.953 172.399 167.077 171.715 167.486C171.03 167.895 170.533 168.555 170.329 169.326C170.058 170.393 170.097 171.516 170.441 172.562C170.822 173.566 171.406 174.479 172.157 175.246C172.907 176.013 173.809 176.616 174.804 177.017C175.869 177.467 176.996 177.755 178.146 177.873C178.546 177.922 178.952 177.88 179.333 177.75C179.714 177.621 180.061 177.406 180.348 177.123C180.635 176.84 180.854 176.496 180.99 176.117C181.125 175.737 181.173 175.332 181.129 174.931C180.958 173.197 180.341 171.537 179.338 170.112C178.108 168.449 176.045 167.641 173.991 167.138Z" fill="url(#paint7_linear_98_437)"/>
<path d="M167.575 167.101C166.169 165.496 163.378 165.603 161.806 167.074C160.234 168.545 159.822 170.952 160.336 173.038C160.849 175.124 162.153 176.926 163.608 178.504C164.233 179.173 164.886 179.815 165.575 180.424C166.093 180.88 166.718 181.197 167.391 181.343C168.065 181.49 168.765 181.462 169.425 181.262C170.084 181.062 170.682 180.697 171.161 180.201C171.641 179.706 171.985 179.096 172.163 178.429V178.376C172.767 176.204 173.371 173.947 173.002 171.727C172.633 169.508 169.789 167.331 167.575 167.101Z" fill="url(#paint8_linear_98_437)"/>
<path opacity="0.1" d="M167.575 167.101C166.169 165.496 163.378 165.603 161.806 167.074C160.234 168.545 159.822 170.952 160.336 173.038C160.849 175.124 162.153 176.926 163.608 178.504C164.233 179.173 164.886 179.815 165.575 180.424C166.093 180.88 166.718 181.197 167.391 181.343C168.065 181.49 168.765 181.462 169.425 181.262C170.084 181.062 170.682 180.697 171.161 180.201C171.641 179.706 171.985 179.096 172.163 178.429V178.376C172.767 176.204 173.371 173.947 173.002 171.727C172.633 169.508 169.789 167.331 167.575 167.101Z" fill="white"/>
<path opacity="0.2" d="M168.051 168.641C169.456 172.131 169.951 175.921 169.489 179.654C169.256 175.674 168.43 171.752 167.041 168.016C167.25 168.02 167.454 168.08 167.632 168.19C167.809 168.3 167.954 168.456 168.051 168.641Z" fill="white"/>
<path opacity="0.2" d="M159.106 168.304C156.779 170.785 155.085 173.791 154.165 177.065C154.571 173.783 155.994 170.71 158.234 168.278C158.486 168.053 158.812 168.16 159.106 168.304Z" fill="white"/>
<path opacity="0.2" d="M156.662 165.24C155.477 164.555 154.181 164.083 152.834 163.844C150.866 163.608 148.925 164.502 147.086 165.256C148.588 164.421 150.198 163.8 151.871 163.41C152.711 163.221 153.58 163.207 154.425 163.37C155.269 163.533 156.071 163.869 156.78 164.357C156.748 164.662 156.689 164.929 156.662 165.24Z" fill="white"/>
<path opacity="0.2" d="M179.103 174.434C178.408 173.057 177.568 171.759 176.595 170.561C175.607 169.362 174.253 168.518 172.74 168.16C173.184 168.16 173.724 168.026 174.168 168.026C176.594 169.491 178.375 171.82 179.151 174.546C179.194 174.45 179.06 174.535 179.103 174.434Z" fill="white"/>
<path opacity="0.2" d="M163.298 165.368C162.385 162.754 160.586 160.542 158.213 159.115C159.997 160.454 161.331 162.305 162.036 164.421C162.154 164.774 162.154 165.197 162.282 165.544C162.45 165.618 162.636 165.64 162.816 165.609C162.997 165.577 163.164 165.494 163.298 165.368Z" fill="white"/>
<path opacity="0.2" d="M173.991 160.656C172.729 161.052 171.57 161.721 170.596 162.616C169.622 163.511 168.857 164.609 168.356 165.833C168.543 165.93 168.543 166.021 168.735 166.117C168.971 164.817 170.008 163.801 171.04 162.977C172.072 162.153 173.007 161.554 173.991 160.656Z" fill="white"/>
<path opacity="0.2" d="M183.808 166.951C182.578 165.074 180.285 164.079 178.039 164.015C175.78 164.037 173.564 164.629 171.596 165.737V166.502C173.365 165.243 175.507 164.618 177.675 164.726C179.907 164.78 182.06 165.561 183.808 166.951Z" fill="white"/>
<path d="M141.632 96.6919V89.7388C141.632 89.6294 141.654 89.5212 141.696 89.4203C141.738 89.3193 141.799 89.2277 141.877 89.1506C141.954 89.0736 142.046 89.0126 142.148 88.9713C142.249 88.9299 142.357 88.909 142.466 88.9097H143.851L143.883 85.3529L147.706 88.9097H155.951C156.171 88.9097 156.382 88.9971 156.537 89.1525C156.693 89.308 156.78 89.5189 156.78 89.7388V96.6919C156.778 96.9114 156.691 97.1214 156.536 97.2766C156.38 97.4318 156.171 97.5196 155.951 97.521H142.445C142.228 97.5154 142.023 97.4258 141.871 97.2711C141.719 97.1163 141.634 96.9086 141.632 96.6919Z" fill="url(#paint9_linear_98_437)"/>
<path d="M151.492 94.1621L151.626 94.0391L151.69 93.9695C151.777 93.893 151.859 93.8108 151.936 93.7235L151.984 93.67C152.078 93.5543 152.162 93.4309 152.235 93.301C152.325 93.1314 152.395 92.9519 152.444 92.7661C152.459 92.7241 152.471 92.6812 152.481 92.6377C152.579 92.2247 152.557 91.7923 152.417 91.3915C152.401 91.3478 152.383 91.305 152.363 91.2631C152.217 90.9315 151.967 90.6559 151.652 90.4769C151.221 90.277 150.732 90.2388 150.274 90.3694C149.817 90.5 149.422 90.7906 149.161 91.1883C148.901 90.791 148.506 90.5006 148.05 90.37C147.593 90.2394 147.105 90.2773 146.674 90.4769C146.356 90.6541 146.105 90.9301 145.958 91.2631L145.904 91.3915C145.766 91.7928 145.746 92.2252 145.846 92.6377L145.878 92.7661C145.928 92.9521 146 93.1316 146.092 93.301C146.163 93.432 146.247 93.5557 146.343 93.67L146.391 93.7182C146.468 93.8116 146.554 93.8975 146.648 93.9749L146.706 94.0391L146.84 94.1621L148.129 95.4137L148.257 95.5367L149.182 96.4299L150.096 95.5367L150.225 95.4137L151.492 94.1621Z" fill="white"/>
<path d="M144.974 20.5654V28.4492C144.974 28.7003 145.074 28.9411 145.251 29.1186C145.429 29.2962 145.67 29.3959 145.921 29.3959H147.492L147.535 33.4394L151.877 29.3959H161.25C161.5 29.3945 161.74 29.2943 161.918 29.1171C162.095 28.9398 162.195 28.6998 162.196 28.4492V20.5654C162.195 20.3147 162.095 20.0747 161.918 19.8975C161.74 19.7203 161.5 19.6201 161.25 19.6187H145.921C145.67 19.6187 145.429 19.7184 145.251 19.8959C145.074 20.0735 144.974 20.3143 144.974 20.5654Z" fill="url(#paint10_linear_98_437)"/>
<path d="M156.181 25.2454L156.331 25.101L156.406 25.0261C156.506 24.9397 156.599 24.8449 156.684 24.7426L156.742 24.6838C156.847 24.5502 156.942 24.4089 157.026 24.2612C157.125 24.0753 157.205 23.88 157.266 23.6782C157.281 23.6308 157.294 23.5826 157.304 23.5338C157.416 23.0644 157.392 22.5727 157.234 22.1165L157.175 21.972C157.004 21.5917 156.713 21.278 156.347 21.0788C155.857 20.8494 155.301 20.8048 154.781 20.9533C154.262 21.1017 153.813 21.4331 153.518 21.8865C153.223 21.434 152.774 21.1033 152.255 20.9549C151.735 20.8066 151.179 20.8506 150.69 21.0788C150.335 21.2769 150.053 21.5846 149.888 21.956C149.888 22.0041 149.845 22.0523 149.829 22.1004C149.667 22.5556 149.641 23.0481 149.754 23.5178C149.769 23.5652 149.782 23.6134 149.791 23.6622C149.852 23.865 149.934 24.0605 150.037 24.2452C150.118 24.3952 150.212 24.5368 150.321 24.6677L150.374 24.7212C150.464 24.8258 150.56 24.9241 150.663 25.0154L150.738 25.0849L150.882 25.2293L152.353 26.6467L152.502 26.7911L153.545 27.802L154.588 26.7911L154.737 26.6467L156.181 25.2454Z" fill="white"/>
<path d="M81.6301 80.0472C81.804 79.2756 81.9237 78.4928 81.9883 77.7045C82.3199 75.0569 83.8865 73.0138 85.8648 72.6073L87.2871 72.3184C87.2871 72.3184 85.0521 72.3184 84.1164 71.6659C82.1381 70.2806 81.6836 66.1836 81.6836 66.1836C81.6836 66.1836 81.1489 70.2806 79.1492 71.6659C78.2135 72.3184 75.9785 72.3184 75.9785 72.3184L77.4008 72.6073C79.3791 73.0138 80.9457 75.0569 81.2772 77.7045C81.3448 78.4921 81.4627 79.2746 81.6301 80.0472Z" fill="url(#paint11_linear_98_437)"/>
<g opacity="0.7">
<path d="M81.6301 80.0472C81.804 79.2756 81.9237 78.4928 81.9883 77.7045C82.3199 75.0569 83.8865 73.0138 85.8648 72.6073L87.2871 72.3184C87.2871 72.3184 85.0521 72.3184 84.1164 71.6659C82.1381 70.2806 81.6836 66.1836 81.6836 66.1836C81.6836 66.1836 81.1489 70.2806 79.1492 71.6659C78.2135 72.3184 75.9785 72.3184 75.9785 72.3184L77.4008 72.6073C79.3791 73.0138 80.9457 75.0569 81.2772 77.7045C81.3448 78.4921 81.4627 79.2746 81.6301 80.0472Z" fill="white"/>
</g>
<path d="M152.353 80.2558C152.521 79.4831 152.641 78.7007 152.711 77.9131C153.037 75.2388 154.604 73.2224 156.582 72.8159L158.01 72.5271C158.01 72.5271 155.769 72.5271 154.834 71.8745C152.855 70.4892 152.401 66.3922 152.401 66.3922C152.401 66.3922 151.866 70.4892 149.866 71.8745C148.936 72.5271 146.696 72.5271 146.696 72.5271L148.123 72.8159C150.096 73.2224 151.668 75.2655 151.994 77.9131C152.059 78.7014 152.178 79.4843 152.353 80.2558Z" fill="url(#paint12_linear_98_437)"/>
<g opacity="0.7">
<path d="M152.353 80.2558C152.521 79.4831 152.641 78.7007 152.711 77.9131C153.037 75.2388 154.604 73.2224 156.582 72.8159L158.01 72.5271C158.01 72.5271 155.769 72.5271 154.834 71.8745C152.855 70.4892 152.401 66.3922 152.401 66.3922C152.401 66.3922 151.866 70.4892 149.866 71.8745C148.936 72.5271 146.696 72.5271 146.696 72.5271L148.123 72.8159C150.096 73.2224 151.668 75.2655 151.994 77.9131C152.059 78.7014 152.178 79.4843 152.353 80.2558Z" fill="white"/>
</g>
<path d="M140.525 124.114C140.694 123.344 140.814 122.563 140.884 121.777C141.21 119.129 142.776 117.086 144.755 116.68L146.182 116.391C146.182 116.391 143.942 116.391 143.006 115.733C141.028 114.348 140.573 110.256 140.573 110.256C140.573 110.256 140.039 114.348 138.039 115.733C137.109 116.391 134.868 116.391 134.868 116.391L136.296 116.68C138.269 117.086 139.841 119.129 140.167 121.777C140.234 122.563 140.354 123.344 140.525 124.114Z" fill="url(#paint13_linear_98_437)"/>
<g opacity="0.7">
<path d="M140.525 124.114C140.694 123.344 140.814 122.563 140.884 121.777C141.21 119.129 142.776 117.086 144.755 116.68L146.182 116.391C146.182 116.391 143.942 116.391 143.006 115.733C141.028 114.348 140.573 110.256 140.573 110.256C140.573 110.256 140.039 114.348 138.039 115.733C137.109 116.391 134.868 116.391 134.868 116.391L136.296 116.68C138.269 117.086 139.841 119.129 140.167 121.777C140.234 122.563 140.354 123.344 140.525 124.114Z" fill="white"/>
</g>
<path d="M183.45 50.1699H160.089C159.9 50.1692 159.713 50.206 159.538 50.278C159.363 50.3501 159.205 50.456 159.071 50.5898C158.937 50.7235 158.831 50.8824 158.759 51.0573C158.687 51.2322 158.65 51.4196 158.651 51.6087V54.4007H151.936L158.56 60.5676L158.63 60.5355V63.6377C158.63 64.0193 158.781 64.3853 159.051 64.6551C159.321 64.9249 159.687 65.0765 160.068 65.0765H183.45C183.831 65.0751 184.196 64.923 184.465 64.6535C184.735 64.384 184.887 64.0189 184.888 63.6377V51.6087C184.888 51.2271 184.737 50.8612 184.467 50.5913C184.197 50.3215 183.831 50.1699 183.45 50.1699Z" fill="white"/>
<path d="M183.45 65.3385H160.089C159.637 65.3385 159.203 65.1588 158.883 64.8388C158.563 64.5188 158.384 64.0848 158.384 63.6323V60.7441L151.278 54.1279H158.384V51.6087C158.384 51.1562 158.563 50.7222 158.883 50.4022C159.203 50.0822 159.637 49.9025 160.089 49.9025H183.471C183.923 49.9039 184.356 50.0841 184.676 50.4038C184.995 50.7234 185.175 51.1566 185.177 51.6087V63.6323C185.176 63.858 185.131 64.0813 185.043 64.2894C184.956 64.4975 184.829 64.6862 184.668 64.8448C184.508 65.0034 184.317 65.1286 184.108 65.2134C183.899 65.2981 183.675 65.3406 183.45 65.3385ZM158.897 60.1183V63.6323C158.898 63.9425 159.022 64.2397 159.242 64.459C159.461 64.6784 159.758 64.8023 160.068 64.8037H183.45C183.76 64.8023 184.057 64.6784 184.276 64.459C184.495 64.2397 184.619 63.9425 184.621 63.6323V51.6087C184.619 51.2984 184.495 51.0013 184.276 50.782C184.057 50.5626 183.76 50.4387 183.45 50.4373H160.089C159.779 50.4387 159.482 50.5626 159.263 50.782C159.044 51.0013 158.92 51.2984 158.918 51.6087V54.775L158.598 54.6627H152.604L158.603 60.2467L158.897 60.1183Z" fill="url(#paint14_linear_98_437)"/>
<path d="M166.923 58.3586L167.051 58.2356L167.121 58.1714C167.206 58.0948 167.286 58.0126 167.361 57.9254L167.409 57.8719C167.503 57.7574 167.586 57.6338 167.655 57.5028C167.743 57.3428 167.815 57.1744 167.869 57.0001L167.901 56.8717C167.999 56.4623 167.977 56.0333 167.837 55.6362L167.789 55.5132C167.642 55.1831 167.393 54.9093 167.078 54.7323C166.652 54.5339 166.168 54.4961 165.716 54.6258C165.264 54.7555 164.874 55.044 164.618 55.4383C164.362 55.044 163.972 54.7555 163.52 54.6258C163.068 54.4961 162.585 54.5339 162.159 54.7323C161.844 54.908 161.596 55.1824 161.453 55.5132C161.433 55.5532 161.415 55.5942 161.399 55.6362C161.259 56.0332 161.238 56.4631 161.341 56.8717C161.346 56.9156 161.357 56.9587 161.373 57.0001C161.423 57.1751 161.493 57.3438 161.581 57.5028C161.653 57.6326 161.735 57.7561 161.827 57.8719L161.87 57.92C161.949 58.0105 162.035 58.0945 162.127 58.1714L162.185 58.2356L162.314 58.3586L163.592 59.5941L163.72 59.7172L164.634 60.5997L165.538 59.7172L165.666 59.5941L166.923 58.3586Z" fill="#263238"/>
<path d="M125.629 7.33823V19.3619C125.629 19.7435 125.478 20.1094 125.208 20.3793C124.938 20.6491 124.572 20.8007 124.191 20.8007H115.673L112.503 25.7L108.99 20.8167H100.815C100.433 20.8153 100.068 20.6633 99.799 20.3937C99.5296 20.1242 99.3776 19.7591 99.3762 19.3779V7.33823C99.3804 6.95894 99.5337 6.59653 99.8028 6.32932C100.072 6.0621 100.435 5.91154 100.815 5.91016H124.191C124.57 5.91015 124.935 6.06026 125.204 6.32777C125.474 6.59529 125.626 6.9585 125.629 7.33823Z" fill="white"/>
<path d="M112.503 26.16L108.84 21.0681H100.82C100.371 21.0625 99.9427 20.8803 99.6275 20.5609C99.3122 20.2415 99.1355 19.8108 99.1355 19.3619V7.33828C99.1355 6.88577 99.3152 6.45179 99.6351 6.13181C99.9549 5.81184 100.389 5.63208 100.841 5.63208H124.217C124.67 5.63208 125.104 5.81184 125.424 6.13181C125.743 6.45179 125.923 6.88577 125.923 7.33828V19.3619C125.923 19.8144 125.743 20.2484 125.424 20.5684C125.104 20.8884 124.67 21.0681 124.217 21.0681H115.818L112.503 26.16ZM100.814 6.16694C100.509 6.17393 100.217 6.30041 100.004 6.51933C99.7898 6.73825 99.6701 7.0322 99.6702 7.33828V19.3619C99.6702 19.6726 99.7935 19.9705 100.013 20.1902C100.233 20.4099 100.531 20.5333 100.841 20.5333H109.15L112.519 25.2133L115.556 20.5333H124.217C124.528 20.5333 124.826 20.4099 125.045 20.1902C125.265 19.9705 125.388 19.6726 125.388 19.3619V7.33828C125.388 7.02762 125.265 6.72969 125.045 6.51002C124.826 6.29035 124.528 6.16694 124.217 6.16694H100.814Z" fill="url(#paint15_linear_98_437)"/>
<path d="M172.285 58.4443V59.0166H169.997V58.562L171.163 57.4548C171.435 57.1981 171.483 57.043 171.483 56.8932C171.483 56.6579 171.318 56.5188 170.997 56.5188C170.875 56.5143 170.754 56.5397 170.644 56.5928C170.534 56.646 170.438 56.7252 170.366 56.8237L169.831 56.4921C169.973 56.3115 170.157 56.1683 170.366 56.0751C170.576 55.9819 170.805 55.9414 171.034 55.9572C171.708 55.9572 172.163 56.3049 172.163 56.8504C172.158 57.0385 172.11 57.223 172.022 57.3893C171.934 57.5555 171.808 57.6988 171.655 57.8078L170.954 58.471L172.285 58.4443Z" fill="#263238"/>
<path d="M174.82 58.0858C174.82 58.6206 174.424 59.0646 173.563 59.0646C173.155 59.0717 172.754 58.9602 172.408 58.7436L172.681 58.2088C172.933 58.3905 173.237 58.4862 173.547 58.4816C173.895 58.4816 174.114 58.3371 174.114 58.0911C174.114 57.8451 173.943 57.7221 173.547 57.7221H173.227V57.2567L173.847 56.5507H172.558V55.9838H174.697V56.4437L173.991 57.2139C174.215 57.2236 174.427 57.3199 174.581 57.4825C174.736 57.6451 174.821 57.8614 174.82 58.0858Z" fill="#263238"/>
<path d="M177.392 58.4442V59.0165H175.098V58.5618L176.269 57.4547C176.536 57.1979 176.584 57.0428 176.584 56.8931C176.584 56.6577 176.419 56.5187 176.098 56.5187C175.976 56.5141 175.856 56.5395 175.747 56.5927C175.638 56.6459 175.543 56.7252 175.472 56.8235L174.938 56.4919C175.079 56.3114 175.263 56.1682 175.473 56.075C175.682 55.9817 175.912 55.9413 176.141 55.9571C176.82 55.9571 177.269 56.3047 177.269 56.8503C177.266 57.0387 177.218 57.2236 177.13 57.39C177.041 57.5565 176.915 57.6996 176.761 57.8077L176.066 58.4709L177.392 58.4442Z" fill="#263238"/>
<path d="M179.921 58.0858C179.921 58.6206 179.525 59.0646 178.664 59.0646C178.257 59.0699 177.856 58.9585 177.509 58.7436L177.782 58.2088C178.034 58.3899 178.338 58.4854 178.648 58.4816C179.001 58.4816 179.215 58.3371 179.215 58.0911C179.215 57.8451 179.049 57.7221 178.648 57.7221H178.327V57.2567L178.953 56.5507H177.659V55.9838H179.798V56.4437L179.113 57.2193C179.333 57.2342 179.538 57.3321 179.688 57.493C179.838 57.6539 179.921 57.8658 179.921 58.0858Z" fill="#263238"/>
<path d="M180.247 57.4974C180.247 56.4972 180.782 55.9303 181.546 55.9303C182.311 55.9303 182.845 56.4972 182.845 57.4974C182.845 58.4976 182.311 59.0646 181.546 59.0646C180.782 59.0646 180.247 58.4976 180.247 57.4974ZM182.14 57.4974C182.14 56.8075 181.899 56.524 181.546 56.524C181.193 56.524 180.958 56.8075 180.958 57.4974C180.958 58.1874 181.204 58.4709 181.546 58.4709C181.888 58.4709 182.14 58.1874 182.14 57.4974Z" fill="#263238"/>
<path d="M105.782 13.0131C106.803 13.0131 107.632 12.1846 107.632 11.1625C107.632 10.1404 106.803 9.31189 105.782 9.31189C104.76 9.31189 103.932 10.1404 103.932 11.1625C103.932 12.1846 104.76 13.0131 105.782 13.0131Z" fill="#263238"/>
<path d="M107.257 13.3982H104.397C103.96 13.3982 103.541 13.5718 103.232 13.8807C102.924 14.1896 102.75 14.6087 102.75 15.0456V16.3667H108.904V15.0402C108.903 14.6042 108.729 14.1866 108.42 13.8788C108.111 13.571 107.693 13.3982 107.257 13.3982Z" fill="#263238"/>
<path d="M115.331 11.2855V15.5965H114.331V12.0878H113.47V11.2855H115.331Z" fill="#263238"/>
<path d="M121.886 13.6977V15.5964H120.924V13.8475C120.924 13.3126 120.683 13.0666 120.293 13.0666C119.903 13.0666 119.56 13.3447 119.56 13.933V15.5964H118.603V13.8475C118.603 13.3126 118.373 13.0666 117.972 13.0666C117.571 13.0666 117.245 13.3447 117.245 13.933V15.5964H116.283V12.2803H117.202V12.6654C117.334 12.5218 117.496 12.4086 117.676 12.3338C117.856 12.259 118.05 12.2243 118.245 12.2322C118.454 12.2245 118.661 12.2694 118.848 12.3629C119.035 12.4564 119.195 12.5953 119.314 12.767C119.459 12.5923 119.641 12.4531 119.848 12.3604C120.055 12.2676 120.28 12.2238 120.507 12.2322C121.319 12.2322 121.886 12.6868 121.886 13.6977Z" fill="#263238"/>
<path d="M85.7685 36.3224L84.5227 36.0015C84.2346 35.933 83.9313 35.9753 83.6728 36.1199C83.4144 36.2645 83.2196 36.5009 83.1272 36.7824L81.3627 42.4626C81.319 42.5977 81.3036 42.7404 81.3175 42.8818C81.3314 43.0231 81.3743 43.1601 81.4436 43.2841C81.5128 43.4081 81.6069 43.5165 81.72 43.6024C81.833 43.6884 81.9626 43.7501 82.1006 43.7837L83.3464 44.0992C83.6346 44.169 83.9384 44.1273 84.1972 43.9825C84.4559 43.8377 84.6505 43.6005 84.7419 43.3183L86.5064 37.6435C86.5501 37.5083 86.5655 37.3656 86.5516 37.2243C86.5377 37.0829 86.4948 36.9459 86.4255 36.8219C86.3562 36.6979 86.2621 36.5896 86.1491 36.5036C86.036 36.4176 85.9065 36.3559 85.7685 36.3224Z" fill="#263238"/>
<path d="M85.7685 36.3224L84.5227 36.0015C84.2346 35.933 83.9313 35.9753 83.6728 36.1199C83.4144 36.2645 83.2196 36.5009 83.1272 36.7824L81.3627 42.4626C81.319 42.5977 81.3036 42.7404 81.3175 42.8818C81.3314 43.0231 81.3743 43.1601 81.4436 43.2841C81.5128 43.4081 81.6069 43.5165 81.72 43.6024C81.833 43.6884 81.9626 43.7501 82.1006 43.7837L83.3464 44.0992C83.6346 44.169 83.9384 44.1273 84.1972 43.9825C84.4559 43.8377 84.6505 43.6005 84.7419 43.3183L86.5064 37.6435C86.5501 37.5083 86.5655 37.3656 86.5516 37.2243C86.5377 37.0829 86.4948 36.9459 86.4255 36.8219C86.3562 36.6979 86.2621 36.5896 86.1491 36.5036C86.036 36.4176 85.9065 36.3559 85.7685 36.3224Z" fill="url(#paint16_linear_98_437)"/>
<path d="M95.5905 38.8256L91.944 37.9003L93.2433 36.1887C93.3865 36.0082 93.4772 35.7917 93.5053 35.5629L93.7191 34.0119C93.7624 33.7095 93.6917 33.4018 93.5207 33.1487C93.3497 32.8956 93.0907 32.7152 92.7941 32.6426L91.3398 32.2736L90.6233 34.5842L87.5222 36.9482C87.2137 37.1812 86.9856 37.5047 86.8698 37.8735L85.2337 43.1793C85.1794 43.3468 85.1603 43.5236 85.1775 43.6988C85.1947 43.874 85.2479 44.0437 85.3337 44.1973C85.4196 44.351 85.5362 44.4852 85.6763 44.5917C85.8164 44.6982 85.977 44.7745 86.148 44.816L91.2489 46.1104C91.4739 46.1679 91.7086 46.1766 91.9373 46.136C92.166 46.0955 92.3834 46.0065 92.5749 45.875L93.1845 45.4686C93.4239 45.3098 93.619 45.0926 93.7512 44.8374L96.1359 40.1413L95.5905 38.8256Z" fill="white"/>
<path d="M91.6499 46.4313C91.493 46.4302 91.3369 46.4104 91.1847 46.3724L86.0838 45.0727C85.8783 45.0229 85.6853 44.9312 85.5169 44.8032C85.3486 44.6753 85.2084 44.5139 85.1053 44.3293C85.0024 44.1443 84.9383 43.9402 84.9172 43.7296C84.896 43.5189 84.9182 43.3062 84.9824 43.1044L86.6345 37.7933C86.7665 37.3674 87.0282 36.9934 87.3831 36.7235L90.4147 34.4129L91.1847 31.9419L92.8796 32.3751C93.2403 32.4608 93.5556 32.6787 93.7635 32.9856C93.9714 33.2926 94.0567 33.6664 94.0025 34.0332L93.7939 35.5896C93.7556 35.8641 93.647 36.1239 93.4785 36.3438L92.4091 37.7291L95.7937 38.5902L96.4246 40.1413L93.9811 44.955C93.8311 45.2534 93.6064 45.5077 93.3288 45.6931L92.7192 46.0996C92.4019 46.3103 92.0307 46.4254 91.6499 46.4313ZM91.5429 32.5944L90.8746 34.7339L87.7039 37.1514C87.4396 37.351 87.2435 37.6275 87.1425 37.943L85.4957 43.2488C85.4525 43.3817 85.4374 43.5221 85.4512 43.6611C85.465 43.8001 85.5074 43.9347 85.5759 44.0565C85.6427 44.1781 85.7344 44.2842 85.8449 44.3681C85.9555 44.452 86.0824 44.5116 86.2175 44.5432L91.3184 45.8429C91.5082 45.8891 91.7055 45.8953 91.8979 45.8612C92.0902 45.8272 92.2734 45.7535 92.4358 45.645L93.0454 45.2332C93.2457 45.0984 93.4078 44.9142 93.5159 44.6983L95.8471 40.1092L95.414 39.0395L91.5055 38.0446L93.0507 36.0175C93.1643 35.8713 93.238 35.698 93.2646 35.5148L93.4731 33.9637C93.5089 33.7265 93.4539 33.4846 93.3191 33.2863C93.1842 33.088 92.9796 32.9478 92.746 32.8939L91.5429 32.5944Z" fill="url(#paint17_linear_98_437)"/>
<path d="M77.0692 102.597L75.8341 102.95C75.5505 103.036 75.3098 103.226 75.1601 103.482C75.0104 103.737 74.9628 104.04 75.0267 104.33L76.3795 110.117C76.4103 110.256 76.4693 110.387 76.5528 110.502C76.6363 110.616 76.7425 110.713 76.8648 110.785C76.9871 110.857 77.1229 110.904 77.2639 110.921C77.4048 110.939 77.5478 110.927 77.6841 110.887L78.9192 110.529C79.2051 110.443 79.4475 110.251 79.5974 109.993C79.7474 109.735 79.7935 109.429 79.7266 109.138L78.3738 103.351C78.3419 103.213 78.282 103.084 78.1979 102.97C78.1138 102.857 78.0073 102.762 77.885 102.691C77.7627 102.62 77.6272 102.575 77.4869 102.559C77.3465 102.543 77.2044 102.556 77.0692 102.597Z" fill="#263238"/>
<path d="M77.0692 102.597L75.8341 102.95C75.5505 103.036 75.3098 103.226 75.1601 103.482C75.0104 103.737 74.9628 104.04 75.0267 104.33L76.3795 110.117C76.4103 110.256 76.4693 110.387 76.5528 110.502C76.6363 110.616 76.7425 110.713 76.8648 110.785C76.9871 110.857 77.1229 110.904 77.2639 110.921C77.4048 110.939 77.5478 110.927 77.6841 110.887L78.9192 110.529C79.2051 110.443 79.4475 110.251 79.5974 109.993C79.7474 109.735 79.7935 109.429 79.7266 109.138L78.3738 103.351C78.3419 103.213 78.282 103.084 78.1979 102.97C78.1138 102.857 78.0073 102.762 77.885 102.691C77.7627 102.62 77.6272 102.575 77.4869 102.559C77.3465 102.543 77.2044 102.556 77.0692 102.597Z" fill="url(#paint18_linear_98_437)"/>
<path d="M86.8378 99.7675L83.2233 100.837L83.48 98.6978C83.5095 98.4691 83.4781 98.2366 83.3891 98.0239L82.7849 96.5798C82.671 96.2967 82.4552 96.0665 82.18 95.9348C81.9048 95.8031 81.5903 95.7794 81.2985 95.8684L79.8602 96.2856L80.3949 98.639L78.9138 102.249C78.7666 102.609 78.7349 103.005 78.8229 103.383L80.0847 108.791C80.1231 108.961 80.1958 109.122 80.2986 109.263C80.4013 109.404 80.5318 109.522 80.6821 109.611C80.8324 109.7 80.9992 109.757 81.1724 109.778C81.3455 109.8 81.5213 109.786 81.6888 109.737L86.7416 108.272C86.9643 108.205 87.1707 108.093 87.3475 107.942C87.5243 107.791 87.6676 107.604 87.7681 107.395L88.089 106.737C88.2153 106.478 88.2724 106.19 88.2547 105.902L87.9339 100.645L86.8378 99.7675Z" fill="white"/>
<path d="M81.3253 110.042C81.053 110.042 80.7856 109.97 80.55 109.834C80.368 109.725 80.2099 109.581 80.0849 109.41C79.9599 109.239 79.8708 109.045 79.8228 108.839L78.561 103.426C78.4617 102.994 78.499 102.542 78.6679 102.132L80.1115 98.6015L79.5234 96.0824L81.2076 95.5956C81.562 95.4882 81.9436 95.517 82.2779 95.6763C82.6121 95.8355 82.8749 96.1138 83.0149 96.4568L83.6297 97.9062C83.7361 98.1613 83.7748 98.4395 83.742 98.7139L83.5335 100.447L86.886 99.4734L88.212 100.49L88.5435 105.87C88.5633 106.204 88.497 106.538 88.351 106.838L88.0302 107.496C87.914 107.74 87.7478 107.956 87.5424 108.132C87.3369 108.307 87.0968 108.436 86.8378 108.512L81.7851 109.978C81.6357 110.022 81.4808 110.043 81.3253 110.042ZM80.1596 96.4568L80.6943 98.6443L79.1865 102.335C79.0587 102.641 79.0288 102.979 79.101 103.303L80.3682 108.716C80.3983 108.851 80.4561 108.98 80.538 109.092C80.6198 109.204 80.724 109.299 80.8439 109.369C80.9639 109.439 81.097 109.484 81.235 109.5C81.373 109.517 81.513 109.505 81.6461 109.465L86.7042 107.999C86.8909 107.944 87.0638 107.849 87.2113 107.722C87.3587 107.595 87.4775 107.438 87.5597 107.261L87.8805 106.603C87.9872 106.386 88.0352 106.144 88.0195 105.902L87.704 100.768L86.7683 100.046L82.8919 101.169L83.202 98.6336C83.2232 98.4519 83.1974 98.2677 83.1271 98.0988L82.5229 96.6493C82.4282 96.4313 82.2562 96.256 82.04 96.1572C81.8238 96.0585 81.5788 96.0432 81.352 96.1144L80.1596 96.4568Z" fill="url(#paint19_linear_98_437)"/>
<path d="M54.0831 68.1198L52.8052 67.9754C52.5106 67.9436 52.215 68.0248 51.9778 68.2024C51.7407 68.3801 51.5797 68.6411 51.5273 68.9328L50.5381 74.8162C50.5123 74.9564 50.5157 75.1003 50.5482 75.239C50.5807 75.3778 50.6416 75.5083 50.7269 75.6223C50.8123 75.7364 50.9204 75.8315 51.0443 75.9017C51.1683 75.9719 51.3054 76.0158 51.4471 76.0304L52.725 76.1748C53.0187 76.2051 53.313 76.1233 53.549 75.9457C53.7849 75.7682 53.9452 75.5081 53.9975 75.2174L54.992 69.3339C55.0179 69.1938 55.0144 69.0498 54.9819 68.9111C54.9494 68.7724 54.8886 68.6419 54.8032 68.5278C54.7178 68.4138 54.6098 68.3186 54.4858 68.2484C54.3619 68.1782 54.2248 68.1344 54.0831 68.1198Z" fill="#263238"/>
<path d="M54.0831 68.1198L52.8052 67.9754C52.5106 67.9436 52.215 68.0248 51.9778 68.2024C51.7407 68.3801 51.5797 68.6411 51.5273 68.9328L50.5381 74.8162C50.5123 74.9564 50.5157 75.1003 50.5482 75.239C50.5807 75.3778 50.6416 75.5083 50.7269 75.6223C50.8123 75.7364 50.9204 75.8315 51.0443 75.9017C51.1683 75.9719 51.3054 76.0158 51.4471 76.0304L52.725 76.1748C53.0187 76.2051 53.313 76.1233 53.549 75.9457C53.7849 75.7682 53.9452 75.5081 53.9975 75.2174L54.992 69.3339C55.0179 69.1938 55.0144 69.0498 54.9819 68.9111C54.9494 68.7724 54.8886 68.6419 54.8032 68.5278C54.7178 68.4138 54.6098 68.3186 54.4858 68.2484C54.3619 68.1782 54.2248 68.1344 54.0831 68.1198Z" fill="url(#paint20_linear_98_437)"/>
<path d="M64.1724 69.2911L60.4296 68.8579L61.499 66.9912C61.6134 66.791 61.6724 66.564 61.6701 66.3334V64.7448C61.673 64.4393 61.5616 64.1437 61.3578 63.9161C61.154 63.6885 60.8726 63.5453 60.5687 63.5147L59.0822 63.3435L58.6812 65.7236L55.9276 68.4889C55.6484 68.7597 55.4614 69.1114 55.3929 69.4944L54.4626 74.9767C54.4315 75.1493 54.4363 75.3264 54.4769 75.497C54.5174 75.6676 54.5928 75.828 54.6982 75.9681C54.8036 76.1082 54.9369 76.2251 55.0895 76.3112C55.2422 76.3974 55.411 76.4511 55.5854 76.469L60.8146 77.0787C61.0455 77.1045 61.2791 77.0811 61.5003 77.0101C61.7214 76.9391 61.9251 76.8221 62.0979 76.6669L62.6325 76.1801C62.8491 75.9917 63.0131 75.7503 63.1084 75.4795L64.8461 70.5053L64.1724 69.2911Z" fill="white"/>
<path d="M61.0073 77.3729H60.7934L55.5642 76.7685C55.3538 76.7454 55.1504 76.6793 54.9666 76.5744C54.7828 76.4694 54.6225 76.3278 54.4957 76.1583C54.3688 75.9888 54.2782 75.795 54.2293 75.589C54.1804 75.383 54.1743 75.1691 54.2115 74.9607L55.1365 69.4837C55.2139 69.047 55.425 68.6452 55.7407 68.3338L58.4141 65.6327L58.8472 63.0868L60.5849 63.2847C60.954 63.3233 61.2955 63.4981 61.5427 63.775C61.7899 64.0519 61.925 64.4111 61.9216 64.7823V66.3494C61.9242 66.6272 61.8522 66.9006 61.7131 67.141L60.8522 68.6547L64.3223 69.0558L65.1511 70.5107L63.3706 75.5972C63.2653 75.9112 63.0812 76.193 62.8359 76.4155L62.3012 76.8969C61.9417 77.2069 61.482 77.376 61.0073 77.3729ZM59.3124 63.6751L58.9381 65.8948L56.115 68.7135C55.8799 68.9473 55.723 69.2481 55.6658 69.5746L54.7569 75.0356C54.731 75.1726 54.7338 75.3135 54.7653 75.4493C54.7967 75.5851 54.8561 75.7129 54.9395 75.8246C55.023 75.9362 55.1288 76.0293 55.2501 76.0979C55.3715 76.1665 55.5058 76.2091 55.6444 76.223L60.8736 76.8273C61.0663 76.8471 61.2609 76.8264 61.445 76.7665C61.6292 76.7066 61.7988 76.6089 61.943 76.4797L62.4777 75.993C62.66 75.8348 62.7981 75.6321 62.8787 75.4046L64.5736 70.5481L64.0069 69.5586L60.0021 69.0933L61.264 66.8736C61.3591 66.7117 61.4072 66.5265 61.403 66.3387V64.7449C61.4055 64.5059 61.3186 64.2745 61.1593 64.0964C61 63.9182 60.7799 63.8061 60.5421 63.7821L59.3124 63.6751Z" fill="url(#paint21_linear_98_437)"/>
<path d="M140.665 45.7948L137.136 45.9445C136.952 45.9557 136.769 45.9275 136.597 45.8619C136.426 45.7963 136.27 45.6947 136.141 45.564C136.012 45.4333 135.912 45.2766 135.849 45.1042C135.785 44.9318 135.759 44.7479 135.772 44.5646L136.216 34.7981C136.226 34.6311 136.297 34.4737 136.415 34.3555C136.533 34.2372 136.691 34.1664 136.858 34.1562L141.21 33.9744C141.393 33.965 141.576 33.9943 141.746 34.0606C141.917 34.1268 142.072 34.2284 142.201 34.3587C142.329 34.489 142.429 34.6451 142.493 34.8167C142.558 34.9882 142.585 35.1715 142.573 35.3543L142.162 44.3025C142.135 44.6905 141.969 45.0557 141.694 45.3302C141.418 45.6046 141.052 45.7698 140.665 45.7948Z" fill="url(#paint22_linear_98_437)"/>
<path opacity="0.2" d="M140.665 45.7948L137.136 45.9445C136.952 45.9557 136.769 45.9275 136.597 45.8619C136.426 45.7963 136.27 45.6947 136.141 45.564C136.012 45.4333 135.912 45.2766 135.849 45.1042C135.785 44.9318 135.759 44.7479 135.772 44.5646L136.216 34.7981C136.226 34.6311 136.297 34.4737 136.415 34.3555C136.533 34.2372 136.691 34.1664 136.858 34.1562L141.21 33.9744C141.393 33.965 141.576 33.9943 141.746 34.0606C141.917 34.1268 142.072 34.2284 142.201 34.3587C142.329 34.489 142.429 34.6451 142.493 34.8167C142.558 34.9882 142.585 35.1715 142.573 35.3543L142.162 44.3025C142.135 44.6905 141.969 45.0557 141.694 45.3302C141.418 45.6046 141.052 45.7698 140.665 45.7948Z" fill="black"/>
<path d="M140.841 45.9712L137.307 46.1156C137.124 46.1267 136.941 46.0986 136.77 46.0333C136.598 45.968 136.443 45.8669 136.314 45.7369C136.185 45.6068 136.085 45.4507 136.021 45.2789C135.957 45.1072 135.931 44.9238 135.943 44.741L136.392 34.9691C136.401 34.8032 136.471 34.6465 136.589 34.529C136.706 34.4116 136.863 34.3416 137.029 34.3326L141.381 34.1508C141.564 34.1397 141.747 34.1678 141.918 34.2331C142.089 34.2984 142.244 34.3995 142.373 34.5295C142.503 34.6596 142.602 34.8157 142.666 34.9875C142.73 35.1592 142.757 35.3426 142.744 35.5254L142.333 44.4736C142.308 44.8617 142.143 45.2274 141.868 45.5029C141.594 45.7784 141.229 45.9448 140.841 45.9712Z" fill="url(#paint23_linear_98_437)"/>
<path opacity="0.5" d="M140.841 45.9712L137.376 46.1156C137.189 46.1266 137.002 46.0977 136.826 46.0308C136.651 45.9639 136.492 45.8606 136.359 45.7276C136.227 45.5947 136.124 45.4351 136.058 45.2595C135.992 45.0839 135.964 44.8963 135.975 44.709L136.425 35.0012C136.436 34.8262 136.511 34.6613 136.635 34.5373C136.758 34.4133 136.923 34.3386 137.098 34.3273L141.376 34.1508C141.563 34.1399 141.751 34.1688 141.926 34.2357C142.101 34.3026 142.26 34.4059 142.393 34.5389C142.525 34.6718 142.628 34.8314 142.694 35.007C142.76 35.1825 142.788 35.3702 142.777 35.5575L142.37 44.4469C142.345 44.8438 142.176 45.2177 141.894 45.4984C141.612 45.7791 141.238 45.9473 140.841 45.9712Z" fill="white"/>
<path opacity="0.3" d="M138.536 37.1622L136.986 37.2263C136.899 37.2318 136.813 37.2189 136.732 37.1883C136.651 37.1577 136.577 37.1102 136.516 37.049C136.455 36.9878 136.408 36.9142 136.377 36.8332C136.346 36.7522 136.333 36.6656 136.339 36.5792L136.414 34.9746C136.424 34.8048 136.496 34.6447 136.616 34.5245C136.736 34.4042 136.896 34.3322 137.066 34.3221L138.67 34.2525C138.757 34.2477 138.843 34.2614 138.924 34.2927C139.004 34.3239 139.078 34.372 139.138 34.4338C139.199 34.4955 139.246 34.5694 139.276 34.6507C139.306 34.732 139.318 34.8187 139.312 34.905L139.242 36.4454C139.235 36.6312 139.158 36.8075 139.028 36.94C138.897 37.0725 138.722 37.1517 138.536 37.1622Z" fill="white"/>
<path d="M138.397 37.0391L136.991 37.0979C136.905 37.1026 136.818 37.0889 136.737 37.0577C136.656 37.0265 136.582 36.9785 136.521 36.9169C136.46 36.8552 136.413 36.7814 136.382 36.7001C136.352 36.6188 136.339 36.532 136.344 36.4454L136.408 35.0334C136.42 34.8498 136.498 34.6768 136.628 34.5468C136.758 34.4168 136.931 34.3387 137.114 34.3273L138.526 34.2685C138.612 34.2637 138.699 34.2774 138.779 34.3087C138.86 34.3399 138.933 34.388 138.994 34.4497C139.055 34.5115 139.101 34.5854 139.131 34.6667C139.161 34.748 139.174 34.8347 139.167 34.921L139.103 36.3331C139.093 36.517 139.015 36.6907 138.885 36.8209C138.755 36.9512 138.581 37.0288 138.397 37.0391Z" fill="#263238"/>
<path opacity="0.1" d="M138.397 37.0391L136.991 37.0979C136.905 37.1026 136.818 37.0889 136.737 37.0577C136.656 37.0265 136.582 36.9785 136.521 36.9169C136.46 36.8552 136.413 36.7814 136.382 36.7001C136.352 36.6188 136.339 36.532 136.344 36.4454L136.408 35.0334C136.42 34.8498 136.498 34.6768 136.628 34.5468C136.758 34.4168 136.931 34.3387 137.114 34.3273L138.526 34.2685C138.612 34.2637 138.699 34.2774 138.779 34.3087C138.86 34.3399 138.933 34.388 138.994 34.4497C139.055 34.5115 139.101 34.5854 139.131 34.6667C139.161 34.748 139.174 34.8347 139.167 34.921L139.103 36.3331C139.093 36.517 139.015 36.6907 138.885 36.8209C138.755 36.9512 138.581 37.0288 138.397 37.0391Z" fill="white"/>
<path d="M140.076 40.2483C140.065 40.4431 139.982 40.627 139.844 40.765C139.706 40.9031 139.523 40.9856 139.328 40.9971C139.236 41.0025 139.144 40.9884 139.058 40.9557C138.971 40.9229 138.893 40.8723 138.828 40.8071C138.763 40.7419 138.712 40.6636 138.68 40.5775C138.647 40.4913 138.633 40.3991 138.638 40.3071C138.651 40.1112 138.734 39.9266 138.873 39.7878C139.012 39.649 139.196 39.5655 139.392 39.553C139.484 39.5473 139.577 39.5616 139.663 39.5947C139.749 39.6278 139.827 39.679 139.892 39.7449C139.957 39.8108 140.007 39.8898 140.039 39.9766C140.071 40.0634 140.083 40.1561 140.076 40.2483Z" fill="white"/>
<path d="M106.156 36.8466C105.921 38.2051 104.498 39.1037 103.402 39.9434C103.589 40.6869 105.284 40.6655 105.996 40.366C106.081 41.6229 104.857 43.5751 103.696 44.0779C104.643 45.1476 106.487 44.9872 107.439 43.9388C107.691 45.736 106.546 47.7363 105.017 48.7098C105.119 48.7686 105.22 48.8168 105.322 48.8649C107.717 49.9346 110.508 48.7686 111.69 46.4152C112.023 45.7495 112.285 45.0503 112.471 44.3293C113.058 42.0164 112.916 39.5785 112.064 37.3494C111.305 35.3811 107.91 35.6699 106.156 36.8466Z" fill="#263238"/>
<path d="M121.058 36.868C121.352 38.2265 123.122 39.1251 124.49 39.9648C124.255 40.7082 122.143 40.6869 121.282 40.3873C121.175 41.6443 122.699 43.5965 124.143 44.0993C122.966 45.169 120.667 45.0085 119.48 43.9602C119.17 45.7573 120.598 47.7524 122.501 48.7311C122.378 48.7846 122.25 48.8381 122.116 48.8863C119.138 49.956 115.657 48.79 114.192 46.4366C113.779 45.7859 113.45 45.0849 113.214 44.3506C112.483 42.0448 112.665 39.5463 113.722 37.3707C114.641 35.4024 118.882 35.6913 121.058 36.868Z" fill="#263238"/>
<path d="M128.554 191.191L133.04 190.03L130.543 179.595L126.057 180.756L128.554 191.191Z" fill="#FF887B"/>
<path d="M132.944 189.052L128.041 190.319C127.948 190.35 127.869 190.412 127.818 190.496C127.767 190.579 127.748 190.677 127.763 190.774L128.18 195.657C128.189 195.862 128.274 196.057 128.418 196.203C128.562 196.35 128.755 196.437 128.96 196.449H129.089C130.848 195.957 133.366 195.17 135.585 194.598C138.178 193.924 138.435 194.037 141.467 193.25C143.306 192.774 143.204 190.464 142.381 190.469C138.638 190.469 137.761 190.597 134.12 189.185C133.751 189.022 133.34 188.975 132.944 189.052Z" fill="#263238"/>
<path opacity="0.2" d="M130.543 179.601L131.831 185.516L127.345 186.677L126.062 180.761L130.543 179.601Z" fill="black"/>
<path d="M133.425 189.218C133.407 189.221 133.389 189.22 133.373 189.214C133.356 189.209 133.34 189.199 133.329 189.185C133.309 189.165 133.298 189.139 133.298 189.111C133.298 189.083 133.309 189.056 133.329 189.036C133.5 188.875 135.029 187.517 135.644 187.682C135.701 187.697 135.754 187.726 135.798 187.766C135.842 187.806 135.875 187.856 135.895 187.912C135.929 187.999 135.942 188.093 135.933 188.186C135.924 188.279 135.892 188.369 135.842 188.447C135.58 188.736 135.227 188.925 134.842 188.982C134.378 189.105 133.904 189.184 133.425 189.218ZM133.708 188.988C134.73 188.897 135.446 188.667 135.644 188.356C135.68 188.303 135.702 188.241 135.708 188.176C135.714 188.111 135.703 188.046 135.676 187.987C135.669 187.965 135.657 187.945 135.642 187.929C135.626 187.912 135.607 187.899 135.585 187.891C135.516 187.877 135.445 187.877 135.377 187.891C134.761 188.156 134.196 188.527 133.708 188.988Z" fill="url(#paint24_linear_98_437)"/>
<path d="M133.355 189.234C133.339 189.224 133.325 189.21 133.314 189.195C133.303 189.179 133.295 189.161 133.291 189.143C133.291 189.094 133.077 187.875 133.494 187.276C133.556 187.187 133.635 187.112 133.727 187.056C133.819 187 133.922 186.964 134.029 186.95C134.323 186.902 134.473 187.025 134.5 187.137C134.719 187.618 133.965 188.832 133.473 189.212H133.43C133.408 189.226 133.382 189.233 133.355 189.234ZM133.676 187.404C133.462 187.875 133.398 188.4 133.494 188.907C133.943 188.442 134.446 187.511 134.318 187.228C134.318 187.228 134.264 187.115 134.077 187.164H134.013C133.874 187.199 133.754 187.284 133.676 187.404Z" fill="url(#paint25_linear_98_437)"/>
<path d="M85.0522 188.271L89.4741 189.651L92.8586 179.472L88.4368 178.092L85.0522 188.271Z" fill="#FF887B"/>
<path d="M89.8429 188.297L85.0308 186.789C84.9364 186.766 84.8369 186.777 84.7498 186.82C84.6628 186.863 84.5937 186.935 84.5549 187.025L82.3573 191.303C82.2578 191.481 82.2284 191.689 82.275 191.887C82.3215 192.085 82.4406 192.259 82.6086 192.373L82.7263 192.427C84.48 192.935 87.0037 193.598 89.2227 194.283C91.7785 195.085 91.9389 195.309 94.9331 196.245C96.751 196.812 97.8739 194.828 97.1681 194.395C93.96 192.432 93.174 192.079 90.816 188.987C90.5696 188.664 90.23 188.423 89.8429 188.297Z" fill="#263238"/>
<path opacity="0.2" d="M92.8585 179.478L90.8908 185.388L86.469 184.008L88.4366 178.098L92.8585 179.478Z" fill="black"/>
<path d="M90.2278 189.164C90.2116 189.157 90.1976 189.146 90.1872 189.132C90.1769 189.118 90.1705 189.101 90.169 189.084C90.1658 189.057 90.1728 189.03 90.1887 189.008C90.2045 188.986 90.2281 188.971 90.2545 188.966C90.4844 188.923 92.5002 188.576 92.9279 189.041C92.9696 189.083 92.9999 189.135 93.0158 189.192C93.0317 189.249 93.0327 189.31 93.0188 189.367C93.0057 189.464 92.9677 189.556 92.9087 189.633C92.8497 189.711 92.7716 189.772 92.682 189.811C92.3051 189.923 91.9012 189.902 91.5378 189.752C91.0835 189.598 90.6449 189.401 90.2278 189.164ZM90.5914 189.116C91.511 189.586 92.2382 189.763 92.5697 189.608C92.6294 189.582 92.6812 189.54 92.7197 189.488C92.7582 189.435 92.7821 189.373 92.7889 189.308C92.8002 189.289 92.8061 189.267 92.8061 189.244C92.8061 189.222 92.8002 189.199 92.7889 189.18C92.7357 189.136 92.6738 189.103 92.6071 189.084C91.9348 188.978 91.2493 188.989 90.5807 189.116H90.5914Z" fill="url(#paint26_linear_98_437)"/>
<path d="M90.1691 189.143C90.1614 189.126 90.1575 189.108 90.1575 189.089C90.1575 189.071 90.1614 189.052 90.1691 189.036C90.1691 188.987 90.6557 187.843 91.3294 187.554C91.427 187.51 91.5326 187.488 91.6395 187.488C91.7464 187.488 91.8521 187.51 91.9496 187.554C92.2277 187.672 92.2865 187.854 92.2544 187.966C92.1849 188.501 90.891 189.11 90.2868 189.185H90.244L90.1691 189.143ZM91.3989 187.763C90.9696 188.048 90.639 188.459 90.4525 188.939C91.0781 188.784 91.9978 188.255 92.0566 187.95C92.0566 187.918 92.0566 187.827 91.8855 187.768H91.8213C91.755 187.738 91.6833 187.723 91.6107 187.722C91.538 187.721 91.466 187.735 91.3989 187.763Z" fill="url(#paint27_linear_98_437)"/>
<path d="M140.392 48.6509L140.526 53.3417L136.473 53.4166L136.783 48.2017C136.783 48.2017 140.306 45.9232 140.392 48.6509Z" fill="#FF887B"/>
<path d="M138.296 49.4532L140.392 48.6509L141.429 44.7464C141.483 44.5341 141.492 44.3131 141.457 44.0969C141.423 43.8808 141.344 43.6741 141.226 43.4895L140.001 41.564C139.789 41.2398 139.465 41.0037 139.092 40.8995C138.718 40.7952 138.32 40.8299 137.97 40.9971L137.061 41.4517C136.727 41.6147 136.462 41.8904 136.313 42.2301C136.163 42.5698 136.138 42.9515 136.243 43.3077L136.777 45.169C136.777 45.169 136.082 49.5762 138.296 49.4532Z" fill="#FF887B"/>
<path d="M118.106 60.7281C121.582 63.258 130.056 72.7678 137.264 72.6661C143.108 72.7678 141.509 50.3625 141.509 50.3625L136.029 49.7955C136.029 49.7955 134.831 64.0014 133.997 63.4773C133.596 63.2259 122.565 53.3149 122.565 53.3149C119.796 51.1327 115.315 52.657 113.214 55.4918L118.106 60.7281Z" fill="#263238"/>
<g opacity="0.1">
<path d="M118.106 60.7281C121.582 63.258 130.056 72.7678 137.264 72.6661C143.108 72.7678 141.509 50.3625 141.509 50.3625L136.029 49.7955C136.029 49.7955 134.831 64.0014 133.997 63.4773C133.596 63.2259 122.565 53.3149 122.565 53.3149C119.796 51.1327 115.315 52.657 113.214 55.4918L118.106 60.7281Z" fill="black"/>
</g>
<path d="M125.405 94.5205L129.8 148.718L132.821 181.719C132.878 182.148 132.766 182.583 132.509 182.931C132.251 183.28 131.868 183.514 131.441 183.585L125.961 184.12C125.551 184.139 125.149 184.003 124.834 183.739C124.52 183.476 124.315 183.104 124.26 182.698C122.865 175.359 119.063 163.887 118.844 149.943C118.844 149.943 111.252 114.038 109.899 102.977L109.829 93.0497L125.405 94.5205Z" fill="#263238"/>
<path opacity="0.7" d="M125.405 94.5205L129.8 148.718L132.821 181.719C132.878 182.148 132.766 182.583 132.509 182.931C132.251 183.28 131.868 183.514 131.441 183.585L125.961 184.12C125.551 184.139 125.149 184.003 124.834 183.739C124.52 183.476 124.315 183.104 124.26 182.698C122.865 175.359 119.063 163.887 118.844 149.943C118.844 149.943 111.252 114.038 109.899 102.977L109.829 93.0497L125.405 94.5205Z" fill="white"/>
<path opacity="0.2" d="M113.754 106.234C113.754 106.234 115.289 115.294 115.24 130.27C115.24 130.27 112.808 119.504 111.471 113.615L113.754 106.234Z" fill="black"/>
<path d="M117.133 95.0393L105.477 150.472L94.2486 182.772C94.1939 182.966 94.0998 183.146 93.9722 183.302C93.8445 183.457 93.6861 183.585 93.5069 183.676C93.3276 183.768 93.1314 183.821 92.9306 183.833C92.7298 183.845 92.5286 183.815 92.3398 183.746L86.592 181.633C86.2175 181.457 85.9167 181.155 85.7419 180.779C85.567 180.404 85.5292 179.98 85.6349 179.579C87.2389 172.498 88.6665 160.736 94.0454 148.595C94.0454 148.595 97.2535 113.433 101.579 94.6274L117.133 95.0393Z" fill="#263238"/>
<path opacity="0.7" d="M117.133 95.0393L105.477 150.472L94.2486 182.772C94.1939 182.966 94.0998 183.146 93.9722 183.302C93.8445 183.457 93.6861 183.585 93.5069 183.676C93.3276 183.768 93.1314 183.821 92.9306 183.833C92.7298 183.845 92.5286 183.815 92.3398 183.746L86.592 181.633C86.2175 181.457 85.9167 181.155 85.7419 180.779C85.567 180.404 85.5292 179.98 85.6349 179.579C87.2389 172.498 88.6665 160.736 94.0454 148.595C94.0454 148.595 97.2535 113.433 101.579 94.6274L117.133 95.0393Z" fill="white"/>
<path d="M110.054 50.9562C110.995 48.0359 110.797 43.8372 110.482 41.2111L116.818 47.4796C116.415 48.5932 116.277 49.7855 116.417 50.9616C116.457 51.2354 116.586 51.4885 116.784 51.6817C116.982 51.875 117.238 51.9979 117.513 52.0313L120.213 52.8764L120.528 54.9623L118.897 55.3848L116.828 58.0966L111.433 55.3848L105.776 52.7533C106.631 52.4793 107.517 52.314 108.412 52.2613C108.77 52.1891 109.105 52.0332 109.39 51.8063C109.675 51.5794 109.903 51.2881 110.054 50.9562Z" fill="#FF887B"/>
<path d="M127.019 95.5795H98.6812L105.349 52.4805C105.349 52.4805 105.541 52.4163 105.926 52.3147L107.974 51.951C108.386 52.2291 112.46 55.8929 116.417 56.0427C119.769 56.171 118.395 51.9403 118.395 51.9403L119.833 52.3896C120.02 52.4217 120.207 52.4431 120.4 52.4698L122.127 53.7802C122.127 53.7802 125.822 61.8031 126.709 81.7534L127.019 95.5795Z" fill="url(#paint28_linear_98_437)"/>
<path d="M116.711 57.1819C116.657 57.2568 116.449 57.214 116.128 57.075L116.711 57.1819Z" fill="url(#paint29_linear_98_437)"/>
<path opacity="0.2" d="M113.037 44.249L116.689 47.8326C116.487 48.4924 116.37 49.1755 116.342 49.8651C114.85 49.5227 113.027 48.1214 112.556 46.4313C112.273 45.3936 112.663 44.3399 113.037 44.249Z" fill="black"/>
<path d="M109.525 36.4721C109.797 41.2859 109.717 44.1153 112.139 46.5917C115.775 50.3357 121.726 48.1321 122.886 43.3451C123.956 39.002 123.309 31.8777 118.609 29.9468C117.574 29.5142 116.446 29.3536 115.332 29.4803C114.218 29.6071 113.154 30.0171 112.243 30.6711C111.332 31.3252 110.603 32.2017 110.127 33.2171C109.65 34.2325 109.441 35.3531 109.519 36.4721H109.525Z" fill="#FF887B"/>
<path d="M111.129 39.0715C110.909 38.9568 110.665 38.8945 110.418 38.8897C110.266 38.8691 110.111 38.8889 109.969 38.9471C109.828 39.0053 109.704 39.0999 109.61 39.2213C109.536 39.3806 109.495 39.5529 109.489 39.7283C109.482 39.9037 109.511 40.0787 109.573 40.2429C109.947 41.7672 110.359 43.2862 110.813 44.7892C108.401 42.3386 106.918 39.1231 106.621 35.6966C108.049 35.5682 109.733 35.488 111.161 35.3596" fill="#263238"/>
<path d="M117.171 37.7398C117.208 38.1356 117.438 38.4298 117.705 38.4084C117.973 38.387 118.138 38.05 118.101 37.6542C118.064 37.2584 117.828 36.9696 117.566 36.9963C117.304 37.0231 117.133 37.3547 117.171 37.7398Z" fill="#263238"/>
<path d="M121.592 37.4136C121.63 37.804 121.865 38.0982 122.127 38.0768C122.389 38.0554 122.555 37.7184 122.517 37.328C122.48 36.9375 122.25 36.638 121.983 36.6647C121.715 36.6915 121.539 37.0231 121.592 37.4136Z" fill="#263238"/>
<path d="M115.449 35.9266C115.411 35.9172 115.374 35.9009 115.342 35.8785C115.301 35.834 115.278 35.7758 115.278 35.7153C115.278 35.6549 115.301 35.5967 115.342 35.5522C115.613 35.3092 115.939 35.134 116.291 35.041C116.643 34.948 117.012 34.9399 117.368 35.0173C117.398 35.0254 117.425 35.0391 117.449 35.0577C117.473 35.0763 117.493 35.0995 117.507 35.1258C117.522 35.1521 117.532 35.1811 117.536 35.2112C117.539 35.2412 117.537 35.2717 117.529 35.3008C117.521 35.3304 117.508 35.3581 117.49 35.3824C117.471 35.4067 117.448 35.4269 117.422 35.4419C117.395 35.4569 117.366 35.4664 117.336 35.4697C117.305 35.473 117.275 35.4702 117.245 35.4613C116.962 35.4042 116.668 35.4152 116.39 35.4932C116.111 35.5713 115.854 35.7143 115.641 35.9106C115.612 35.927 115.58 35.937 115.547 35.9398C115.514 35.9426 115.48 35.9381 115.449 35.9266Z" fill="#263238"/>
<path d="M123.245 35.6056C123.211 35.6254 123.174 35.6358 123.135 35.6358C123.096 35.6358 123.059 35.6254 123.025 35.6056C122.781 35.4547 122.505 35.3635 122.219 35.3394C121.932 35.3152 121.645 35.3588 121.379 35.4666C121.352 35.4803 121.323 35.4885 121.293 35.4908C121.263 35.4931 121.233 35.4894 121.205 35.4799C121.176 35.4705 121.15 35.4554 121.128 35.4357C121.105 35.4159 121.087 35.3919 121.074 35.3649C121.059 35.3381 121.05 35.3085 121.048 35.2781C121.045 35.2476 121.048 35.217 121.058 35.1879C121.067 35.1589 121.083 35.1321 121.103 35.1092C121.123 35.0863 121.148 35.0677 121.175 35.0547C121.511 34.9104 121.877 34.8487 122.242 34.8747C122.606 34.9008 122.959 35.0138 123.271 35.2045C123.297 35.2184 123.32 35.2375 123.339 35.2605C123.357 35.2836 123.371 35.3102 123.379 35.3386C123.387 35.3671 123.389 35.3969 123.385 35.4263C123.382 35.4556 123.372 35.4839 123.357 35.5093C123.332 35.5535 123.292 35.5875 123.245 35.6056Z" fill="#263238"/>
<path d="M107.156 40.9489C107.473 41.458 107.888 41.8995 108.376 42.2482C108.864 42.5969 109.416 42.8461 110.001 42.9814C111.573 43.329 112.273 41.9116 111.765 40.4729C111.311 39.1839 109.947 37.4402 108.407 37.7344C106.867 38.0286 106.381 39.6759 107.156 40.9489Z" fill="#FF887B"/>
<path d="M119.892 37.6488C120.519 38.7369 121.297 39.7309 122.202 40.6012C121.973 40.838 121.695 41.0223 121.387 41.1414C121.08 41.2605 120.75 41.3116 120.421 41.2912L119.892 37.6488Z" fill="#BA4D3C"/>
<path d="M118.384 51.951C118.384 51.951 122.394 53.6466 123.87 64.4882C125.303 74.6012 125.84 84.8211 125.474 95.0287C125.073 104.533 125.415 110.689 128.356 110.288C128.356 110.288 128.623 105.175 128.356 88.1771C128.089 71.1793 128.971 52.2613 118.384 51.951Z" fill="#263238"/>
<path d="M106.354 51.951C106.354 51.951 111.166 54.6253 111.701 71.5804C112.236 88.5355 113.043 110.705 107.332 111.24C101.622 111.775 95.3823 108.566 95.3823 108.566C95.3823 108.566 98.2696 90.4235 98.8578 84.2512C99.5368 77.1162 95.6497 57.4815 98.1413 55.5186C100.633 53.5556 106.354 51.951 106.354 51.951Z" fill="#263238"/>
<g opacity="0.2">
<path d="M106.859 100.18L102.376 99.5349C101.917 99.4689 101.503 99.2232 101.225 98.8519C100.947 98.4806 100.828 98.014 100.894 97.5549L101.039 96.549L108.978 97.6905L108.833 98.6964C108.767 99.1556 108.521 99.5697 108.15 99.8477C107.779 100.126 107.313 100.245 106.854 100.179L106.859 100.18Z" fill="white"/>
</g>
<path d="M111.562 79.3305L117.662 77.1162L119.122 74.1958C119.29 73.8618 119.568 73.5955 119.908 73.4417L122.004 72.4896C122.236 72.3864 122.488 72.3381 122.741 72.3483C122.994 72.3585 123.241 72.427 123.464 72.5484L124.389 73.0833C124.707 73.2559 124.958 73.5311 125.1 73.8642L125.528 74.8644C125.656 75.1559 125.694 75.4789 125.638 75.7923C125.581 76.1056 125.433 76.3952 125.212 76.6241L122.485 79.507C122.272 79.7316 122 79.8911 121.699 79.967L118.962 80.6516L112.011 84.0426L111.562 79.3305Z" fill="#FF887B"/>
<path d="M116.711 80.8388C116.849 81.1786 116.863 81.5562 116.75 81.9053C116.638 82.2545 116.406 82.5529 116.096 82.7483C114.396 83.818 110.958 85.5937 107.065 85.0856C101.531 84.3689 96.2004 69.0398 95.4572 64.7288C94.6337 59.9151 97.0986 57.1499 97.0986 57.1499C99.7721 52.9619 101.97 56.7968 104.263 61.8192C106.557 66.8415 107.418 76.0785 108.231 77.3301C108.765 78.1217 111.706 77.1857 113.754 76.4102C113.976 76.3208 114.215 76.2834 114.454 76.3009C114.692 76.3184 114.924 76.3904 115.13 76.5112C115.337 76.632 115.513 76.7985 115.645 76.998C115.777 77.1974 115.862 77.4244 115.893 77.6617C116.035 78.7502 116.309 79.8172 116.711 80.8388Z" fill="#263238"/>
<g opacity="0.1">
<path d="M116.711 80.8388C116.849 81.1786 116.863 81.5562 116.75 81.9053C116.638 82.2545 116.406 82.5529 116.096 82.7483C114.396 83.818 110.958 85.5937 107.065 85.0856C101.531 84.3689 96.2004 69.0398 95.4572 64.7288C94.6337 59.9151 97.0986 57.1499 97.0986 57.1499C99.7721 52.9619 101.97 56.7968 104.263 61.8192C106.557 66.8415 107.418 76.0785 108.231 77.3301C108.765 78.1217 111.706 77.1857 113.754 76.4102C113.976 76.3208 114.215 76.2834 114.454 76.3009C114.692 76.3184 114.924 76.3904 115.13 76.5112C115.337 76.632 115.513 76.7985 115.645 76.998C115.777 77.1974 115.862 77.4244 115.893 77.6617C116.035 78.7502 116.309 79.8172 116.711 80.8388Z" fill="white"/>
</g>
<path d="M119.256 43.3932C118.825 43.296 118.419 43.1122 118.061 42.8529C117.703 42.5936 117.402 42.2643 117.176 41.8849C117.168 41.872 117.164 41.8576 117.162 41.8428C117.16 41.8279 117.161 41.8128 117.165 41.7983C117.169 41.7839 117.176 41.7704 117.185 41.7586C117.194 41.7468 117.206 41.737 117.219 41.7298C117.246 41.7176 117.277 41.7158 117.305 41.7246C117.334 41.7335 117.358 41.7524 117.374 41.7779C117.625 42.1875 117.968 42.5333 118.375 42.7885C118.782 43.0436 119.243 43.2012 119.721 43.2488C119.736 43.2495 119.75 43.2531 119.764 43.2594C119.777 43.2657 119.789 43.2745 119.799 43.2855C119.809 43.2964 119.817 43.3092 119.822 43.3231C119.827 43.337 119.829 43.3517 119.828 43.3665C119.827 43.3812 119.824 43.3957 119.817 43.4091C119.811 43.4224 119.802 43.4344 119.791 43.4444C119.78 43.4543 119.768 43.462 119.754 43.467C119.74 43.472 119.725 43.4742 119.71 43.4735C119.558 43.4551 119.406 43.4283 119.256 43.3932Z" fill="#263238"/>
<path d="M115.502 35.3275C117.379 35.0548 118.78 33.2309 119.02 31.3482C120.699 31.76 121.79 33.2683 122.662 34.7713C122.722 34.8773 122.806 34.9684 122.906 35.0379C123.006 35.1075 123.121 35.1537 123.241 35.1732C123.362 35.1927 123.485 35.1849 123.602 35.1506C123.719 35.1162 123.827 35.056 123.918 34.9745C124.057 34.8191 124.156 34.6323 124.207 34.4303C124.259 34.2282 124.26 34.0167 124.212 33.8139C124.107 33.3889 123.926 32.9866 123.678 32.6265C123.357 32.0916 123.031 31.5568 122.672 31.0219C122.156 30.2713 121.464 29.6595 120.655 29.2406C119.846 28.8217 118.947 28.6087 118.037 28.6204H117.914C116.554 27.921 115.01 27.663 113.497 27.8823C111.776 28.0909 110.674 28.8878 109.364 30.0217C107.546 31.6263 107.327 34.8355 103.408 37.0765L106.423 37.1193C109.55 37.1681 112.65 36.5424 115.513 35.2848L115.502 35.3275Z" fill="#263238"/>
<path d="M120.491 36.6754C120.491 36.6754 122.63 35.9801 123.838 36.6326C125.046 37.2851 124.576 39.4085 124.373 39.7883C123.934 40.5799 122.838 40.7457 121.886 40.0343C120.935 39.3229 120.491 36.6754 120.491 36.6754Z" fill="#263238"/>
<path d="M119.764 36.7181C119.764 36.7181 117.122 36.3116 115.77 37.1193C114.417 37.9269 115.235 39.9701 115.566 40.3284C116.192 41.0559 117.518 41.0773 118.555 40.2429C119.593 39.4085 119.764 36.7181 119.764 36.7181Z" fill="#263238"/>
<path d="M119.395 37.1032C119.587 36.9901 119.802 36.9221 120.025 36.9045C120.247 36.8869 120.471 36.9201 120.678 37.0016L120.86 36.7128C120.605 36.5987 120.328 36.5461 120.049 36.5591C119.77 36.5721 119.499 36.6504 119.256 36.7877L119.395 37.1032Z" fill="#263238"/>
<path d="M115.973 37.3975L115.952 37.0605L114.829 37.1247L109.38 36.7931L109.359 37.1301L114.829 37.467L115.973 37.3975Z" fill="#263238"/>
<path d="M124.681 36.6105L123.742 36.667L123.762 37.0087L124.702 36.9522L124.681 36.6105Z" fill="#263238"/>
<path d="M123.533 36.809C123.848 37.0883 124.088 37.4411 124.234 37.836C124.381 38.3025 124.381 38.8029 124.234 39.2694L122.801 36.7395C122.918 36.6849 123.048 36.6625 123.176 36.6748C123.305 36.687 123.428 36.7333 123.533 36.809Z" fill="white"/>
<path d="M118.213 36.9696C118.571 37.3401 118.861 37.7711 119.069 38.2425C119.138 38.4397 119.158 38.6505 119.128 38.8572C119.098 39.0639 119.019 39.2603 118.898 39.4299L117.459 36.9C117.579 36.8407 117.713 36.8157 117.846 36.828C117.979 36.8403 118.106 36.8893 118.213 36.9696Z" fill="white"/>
<path d="M119.373 37.1675L119.261 37.7719C119.11 37.4402 118.902 37.1378 118.646 36.8787C118.646 36.8787 119.486 36.7343 119.373 37.1675Z" fill="white"/>
</g>
<defs>
<linearGradient id="paint0_linear_98_437" x1="165.846" y1="157.952" x2="155.273" y2="159.45" gradientUnits="userSpaceOnUse">
<stop stop-color="#24ADB6"/>
<stop offset="1" stop-color="#49D1A4"/>
</linearGradient>
<linearGradient id="paint1_linear_98_437" x1="160.09" y1="161.297" x2="143.633" y2="166.415" gradientUnits="userSpaceOnUse">
<stop stop-color="#24ADB6"/>
<stop offset="1" stop-color="#49D1A4"/>
</linearGradient>
<linearGradient id="paint2_linear_98_437" x1="162.504" y1="166.143" x2="149.046" y2="168.264" gradientUnits="userSpaceOnUse">
<stop stop-color="#24ADB6"/>
<stop offset="1" stop-color="#49D1A4"/>
</linearGradient>
<linearGradient id="paint3_linear_98_437" x1="162.504" y1="166.143" x2="149.046" y2="168.264" gradientUnits="userSpaceOnUse">
<stop stop-color="#24ADB6"/>
<stop offset="1" stop-color="#49D1A4"/>
</linearGradient>
<linearGradient id="paint4_linear_98_437" x1="176.115" y1="159.406" x2="163.714" y2="162.209" gradientUnits="userSpaceOnUse">
<stop stop-color="#24ADB6"/>
<stop offset="1" stop-color="#49D1A4"/>
</linearGradient>
<linearGradient id="paint5_linear_98_437" x1="185.38" y1="162.002" x2="169.085" y2="167.504" gradientUnits="userSpaceOnUse">
<stop stop-color="#24ADB6"/>
<stop offset="1" stop-color="#49D1A4"/>
</linearGradient>
<linearGradient id="paint6_linear_98_437" x1="181.145" y1="167.054" x2="168.53" y2="169.486" gradientUnits="userSpaceOnUse">
<stop stop-color="#24ADB6"/>
<stop offset="1" stop-color="#49D1A4"/>
</linearGradient>
<linearGradient id="paint7_linear_98_437" x1="181.145" y1="167.054" x2="168.53" y2="169.486" gradientUnits="userSpaceOnUse">
<stop stop-color="#24ADB6"/>
<stop offset="1" stop-color="#49D1A4"/>
</linearGradient>
<linearGradient id="paint8_linear_98_437" x1="173.115" y1="165.934" x2="158.041" y2="168.334" gradientUnits="userSpaceOnUse">
<stop stop-color="#24ADB6"/>
<stop offset="1" stop-color="#49D1A4"/>
</linearGradient>
<linearGradient id="paint9_linear_98_437" x1="156.78" y1="85.3529" x2="139.709" y2="89.3914" gradientUnits="userSpaceOnUse">
<stop stop-color="#24ADB6"/>
<stop offset="1" stop-color="#49D1A4"/>
</linearGradient>
<linearGradient id="paint10_linear_98_437" x1="162.196" y1="19.6187" x2="142.79" y2="24.2144" gradientUnits="userSpaceOnUse">
<stop stop-color="#24ADB6"/>
<stop offset="1" stop-color="#49D1A4"/>
</linearGradient>
<linearGradient id="paint11_linear_98_437" x1="87.2871" y1="66.1836" x2="74.1452" y2="68.2208" gradientUnits="userSpaceOnUse">
<stop stop-color="#24ADB6"/>
<stop offset="1" stop-color="#49D1A4"/>
</linearGradient>
<linearGradient id="paint12_linear_98_437" x1="158.01" y1="66.3922" x2="144.862" y2="68.4313" gradientUnits="userSpaceOnUse">
<stop stop-color="#24ADB6"/>
<stop offset="1" stop-color="#49D1A4"/>
</linearGradient>
<linearGradient id="paint13_linear_98_437" x1="146.182" y1="110.256" x2="133.035" y2="112.296" gradientUnits="userSpaceOnUse">
<stop stop-color="#24ADB6"/>
<stop offset="1" stop-color="#49D1A4"/>
</linearGradient>
<linearGradient id="paint14_linear_98_437" x1="185.177" y1="49.9025" x2="150.82" y2="64.2412" gradientUnits="userSpaceOnUse">
<stop stop-color="#24ADB6"/>
<stop offset="1" stop-color="#49D1A4"/>
</linearGradient>
<linearGradient id="paint15_linear_98_437" x1="125.923" y1="5.63208" x2="95.8917" y2="13.0796" gradientUnits="userSpaceOnUse">
<stop stop-color="#24ADB6"/>
<stop offset="1" stop-color="#49D1A4"/>
</linearGradient>
<linearGradient id="paint16_linear_98_437" x1="86.5566" y1="35.9695" x2="80.4076" y2="36.7202" gradientUnits="userSpaceOnUse">
<stop stop-color="#24ADB6"/>
<stop offset="1" stop-color="#49D1A4"/>
</linearGradient>
<linearGradient id="paint17_linear_98_437" x1="96.4246" y1="31.9419" x2="83.0267" y2="33.9654" gradientUnits="userSpaceOnUse">
<stop stop-color="#24ADB6"/>
<stop offset="1" stop-color="#49D1A4"/>
</linearGradient>
<linearGradient id="paint18_linear_98_437" x1="79.7565" y1="102.552" x2="74.1601" y2="103.157" gradientUnits="userSpaceOnUse">
<stop stop-color="#24ADB6"/>
<stop offset="1" stop-color="#49D1A4"/>
</linearGradient>
<linearGradient id="paint19_linear_98_437" x1="88.5469" y1="95.5317" x2="76.8016" y2="97.0762" gradientUnits="userSpaceOnUse">
<stop stop-color="#24ADB6"/>
<stop offset="1" stop-color="#49D1A4"/>
</linearGradient>
<linearGradient id="paint20_linear_98_437" x1="55.0092" y1="67.9686" x2="49.7251" y2="68.5174" gradientUnits="userSpaceOnUse">
<stop stop-color="#24ADB6"/>
<stop offset="1" stop-color="#49D1A4"/>
</linearGradient>
<linearGradient id="paint21_linear_98_437" x1="65.1511" y1="63.0868" x2="52.3757" y2="64.95" gradientUnits="userSpaceOnUse">
<stop stop-color="#24ADB6"/>
<stop offset="1" stop-color="#49D1A4"/>
</linearGradient>
<linearGradient id="paint22_linear_98_437" x1="142.576" y1="33.9727" x2="134.569" y2="34.8377" gradientUnits="userSpaceOnUse">
<stop stop-color="#24ADB6"/>
<stop offset="1" stop-color="#49D1A4"/>
</linearGradient>
<linearGradient id="paint23_linear_98_437" x1="142.747" y1="34.1484" x2="134.74" y2="35.0139" gradientUnits="userSpaceOnUse">
<stop stop-color="#24ADB6"/>
<stop offset="1" stop-color="#49D1A4"/>
</linearGradient>
<linearGradient id="paint24_linear_98_437" x1="135.936" y1="187.668" x2="133.094" y2="188.587" gradientUnits="userSpaceOnUse">
<stop stop-color="#24ADB6"/>
<stop offset="1" stop-color="#49D1A4"/>
</linearGradient>
<linearGradient id="paint25_linear_98_437" x1="134.539" y1="186.939" x2="133.007" y2="187.104" gradientUnits="userSpaceOnUse">
<stop stop-color="#24ADB6"/>
<stop offset="1" stop-color="#49D1A4"/>
</linearGradient>
<linearGradient id="paint26_linear_98_437" x1="93.0285" y1="188.801" x2="90.3115" y2="190.167" gradientUnits="userSpaceOnUse">
<stop stop-color="#24ADB6"/>
<stop offset="1" stop-color="#49D1A4"/>
</linearGradient>
<linearGradient id="paint27_linear_98_437" x1="92.2623" y1="187.488" x2="89.8892" y2="188.047" gradientUnits="userSpaceOnUse">
<stop stop-color="#24ADB6"/>
<stop offset="1" stop-color="#49D1A4"/>
</linearGradient>
<linearGradient id="paint28_linear_98_437" x1="127.019" y1="51.9403" x2="93.8016" y2="56.0397" gradientUnits="userSpaceOnUse">
<stop stop-color="#24ADB6"/>
<stop offset="1" stop-color="#49D1A4"/>
</linearGradient>
<linearGradient id="paint29_linear_98_437" x1="116.711" y1="57.075" x2="116.276" y2="57.4105" gradientUnits="userSpaceOnUse">
<stop stop-color="#24ADB6"/>
<stop offset="1" stop-color="#49D1A4"/>
</linearGradient>
<clipPath id="clip0_98_437">
<rect width="225" height="199" fill="white"/>
</clipPath>
</defs>
</svg>
